<?xml version="1.0" standalone="no"?>
<!DOCTYPE svg PUBLIC "-//W3C//DTD SVG 1.1//EN" "http://www.w3.org/Graphics/SVG/1.1/DTD/svg11.dtd" >
<svg xmlns="http://www.w3.org/2000/svg" xmlns:xlink="http://www.w3.org/1999/xlink" version="1.1">
<metadata></metadata>
<defs>
<font id="exo_2semi_bold_expanded" horiz-adv-x="1648" >
<font-face units-per-em="2048" ascent="1638" descent="-410" />
<missing-glyph horiz-adv-x="587" />
<glyph unicode="&#xfb01;" horiz-adv-x="1552" d="M63 823v170l232 11v165q0 147 90 225.5t293 78.5q182 0 293 -19l-17 -176h-188q-119 0 -168 -32t-49 -109v-133h833v-1004h-252v823h-581v-823h-254v823h-232zM1122 1260v110q0 72 76 72h117q76 0 76 -72v-110q0 -72 -76 -72h-117q-76 0 -76 72z" />
<glyph unicode="&#xfb02;" horiz-adv-x="1781" d="M61 823v170l232 11v139q0 161 89.5 245.5t293.5 84.5q573 0 768 -33v-1153q0 -115 168 -115h121l28 -160q-35 -16 -112 -25.5t-133 -9.5q-151 0 -238.5 66.5t-87.5 183.5v1053h-426q-120 1 -168.5 -36.5t-48.5 -131.5v-108h375v-181h-375v-823h-254v823h-232z" />
<glyph horiz-adv-x="0" />
<glyph horiz-adv-x="682" />
<glyph unicode=" "  horiz-adv-x="587" />
<glyph unicode="&#x09;" horiz-adv-x="587" />
<glyph unicode="&#xa0;" horiz-adv-x="587" />
<glyph unicode="!" horiz-adv-x="686" d="M217 840v583h252v-583l-25 -398h-202zM219 88v105q0 49 20.5 68.5t73.5 19.5h64q51 0 71.5 -19.5t20.5 -68.5v-105q0 -49 -20.5 -68.5t-71.5 -19.5h-64q-53 0 -73.5 19.5t-20.5 68.5z" />
<glyph unicode="&#x22;" horiz-adv-x="907" d="M160 1413h200l-16 -446h-170zM547 1413h203l-19 -446h-166z" />
<glyph unicode="#" horiz-adv-x="1800" d="M98 418l33 151h305l74 322h-301l33 153h303l82 369h198l-82 -369h465l82 369h201l-82 -369h289l-31 -153h-293l-74 -322h285l-29 -151h-288l-94 -418h-199l94 418h-467l-94 -418h-199l94 418h-305zM635 569h467l72 322h-467z" />
<glyph unicode="$" horiz-adv-x="1470" d="M131 1059q0 81 15 140.5t49.5 101.5t80.5 69t118 42t151 20.5t190 5.5h31l20 192h123l-20 -194q227 -11 397 -45l-18 -183q-165 6 -402 9l-39 -398l156 -37q205 -52 288 -150.5t83 -260.5q0 -97 -23.5 -165t-68.5 -113.5t-122 -71t-173 -36t-234 -10.5h-10l-23 -225h-122 l22 227q-231 8 -444 43l16 195q424 -7 451 -8l41 401l-168 41q-195 50 -280 149t-85 261zM393 1055q0 -88 48 -124.5t177 -64.5l89 -20l36 371q-86 0 -134.5 -2.5t-96.5 -11t-70 -26t-35.5 -47t-13.5 -75.5zM745 207q199 0 272 33.5t73 132.5q0 91 -46.5 125t-175.5 61 l-86 21z" />
<glyph unicode="%" horiz-adv-x="2344" d="M106 1020q0 231 96.5 325.5t334.5 94.5t334 -94.5t96 -325.5q0 -230 -96 -325t-334 -95t-334.5 95t-96.5 325zM299 1020q0 -159 50 -215.5t186 -56.5q137 0 187 56.5t50 215.5q0 158 -50 215t-187 57q-136 0 -186 -57t-50 -215zM498 0l1167 1413h176l-1167 -1413h-176z M1380 399q0 230 95.5 325t332.5 95q238 0 333 -95t95 -325q0 -233 -95 -327.5t-333 -94.5q-237 0 -332.5 95t-95.5 327zM1573 399q0 -161 48.5 -217.5t184.5 -56.5q137 0 187.5 57t50.5 217t-50 215.5t-188 55.5q-136 0 -184.5 -55.5t-48.5 -215.5z" />
<glyph unicode="&#x26;" horiz-adv-x="2007" d="M152 358q0 170 82.5 264t275.5 107v8q-165 12 -235 92t-70 238q0 70 13.5 123.5t38 93t68.5 66.5t94.5 44t128 26t157 12.5t192.5 3.5q240 0 424 -23l-33 -186q-108 6 -397 6q-103 0 -167.5 -4.5t-118 -16.5t-81 -35t-41.5 -59t-14 -90q0 -120 72 -162.5t264 -42.5h483 l21 234h211v-234h323l-2 -186h-321v-332q0 -64 36.5 -90.5t124.5 -26.5h191l29 -176q-57 -16 -143 -25.5t-146 -9.5q-128 0 -208.5 42.5t-107.5 121.5q-117 -89 -257 -126.5t-353 -37.5q-291 0 -412.5 85t-121.5 296zM426 406q0 -124 69 -168.5t257 -44.5q329 0 530 124v320 h-489q-207 0 -287 -49t-80 -182z" />
<glyph unicode="'" horiz-adv-x="518" d="M160 1413h200l-16 -446h-170z" />
<glyph unicode="(" horiz-adv-x="929" d="M121 639q0 403 171.5 640.5t536.5 338.5l31 -111q-254 -89 -372.5 -304.5t-118.5 -561.5q0 -339 118.5 -556t372.5 -312l-31 -111q-365 103 -536.5 340t-171.5 637z" />
<glyph unicode=")" horiz-adv-x="929" d="M70 -227q254 95 372.5 312t118.5 556q0 346 -118.5 561.5t-372.5 304.5l32 111q364 -101 535.5 -338.5t171.5 -640.5q0 -399 -171.5 -636.5t-535.5 -340.5z" />
<glyph unicode="*" horiz-adv-x="1161" d="M121 1110l49 133l311 -96l-2 -62l-30 -38zM258 815l268 262l-22 338h153l-24 -336l268 -264l-121 -84l-200 250l-199 -248zM680 1085v62l315 96l47 -135l-329 -61z" />
<glyph unicode="+" horiz-adv-x="1421" d="M129 522v185h483v350h195v-350h485v-185h-485v-350h-193v350h-485z" />
<glyph unicode="," horiz-adv-x="573" d="M156 78l2 115q1 49 23 68.5t73 19.5h70q51 0 70.5 -19t19.5 -69v-132q-3 -193 -99 -348l-116 31q28 120 28 256q-34 0 -52.5 20.5t-18.5 57.5z" />
<glyph unicode="-" horiz-adv-x="1132" d="M166 432v176h803v-176h-803z" />
<glyph unicode="." horiz-adv-x="575" d="M154 88v105q0 49 20.5 68.5t73.5 19.5h78q53 0 73.5 -19.5t20.5 -68.5v-105q0 -49 -20.5 -68.5t-73.5 -19.5h-78q-53 0 -73.5 19.5t-20.5 68.5z" />
<glyph unicode="/" horiz-adv-x="1368" d="M63 -141l1039 1554h207l-1041 -1554h-205z" />
<glyph unicode="0" horiz-adv-x="1570" d="M145 707q0 202 33 338t109 226t196.5 129.5t300.5 39.5q181 0 302.5 -39.5t198 -129.5t109.5 -226t33 -338q0 -161 -21 -279.5t-67 -206.5t-122 -142t-182 -80t-251 -26q-144 0 -249 26t-180.5 80t-121.5 142t-67 206.5t-21 279.5zM401 707q0 -151 18.5 -248t64 -159 t117.5 -87t183 -25q113 0 185 25t117.5 87t64 158.5t18.5 248.5q0 201 -35.5 311.5t-117.5 158.5t-232 48q-112 0 -183 -25t-117 -86.5t-64.5 -158.5t-18.5 -248z" />
<glyph unicode="1" horiz-adv-x="1032" d="M49 1270l465 143h260v-1413h-260v1042q0 84 12 140l-444 -95z" />
<glyph unicode="2" horiz-adv-x="1464" d="M129 0v152q0 69 37 106l516 414q176 143 256 243.5t76 182.5q-2 31 -17.5 52t-40.5 33.5t-68 19.5t-87.5 9t-112.5 2q-251 0 -526 -24l-17 196q302 52 564 52q113 0 196.5 -8t157.5 -29t120 -56.5t72.5 -92t26.5 -134.5q0 -134 -68.5 -252.5t-244.5 -259.5l-473 -379 q102 15 247 15h600v-242h-1214z" />
<glyph unicode="3" horiz-adv-x="1462" d="M135 10l17 201q294 -16 503 -16q220 0 308 49t88 180q0 57 -14 95.5t-52 68t-108 43t-177 12.5h-335v191h335q83 0 141 11t91 28.5t51 47t23 58t4 70.5q-1 47 -13.5 77t-35 49.5t-68.5 29t-99 13t-141 3.5q-266 0 -469 -13l-16 195q269 37 522 37q310 0 440 -72t130 -256 q0 -154 -60.5 -244t-210.5 -112v-8q174 -22 245.5 -109t74.5 -246q5 -222 -128.5 -321t-457.5 -99q-244 0 -588 37z" />
<glyph unicode="4" horiz-adv-x="1609" d="M109 557l509 856h256l-495 -821q-21 -38 -3.5 -56t64.5 -18h596v393l47 230h199v-623h234v-172l-234 -27v-319h-246v319h-751q-113 0 -167.5 75.5t-8.5 162.5z" />
<glyph unicode="5" horiz-adv-x="1427" d="M147 23l29 206q246 -30 465 -30q124 0 202.5 13t121.5 44t59 70.5t18 103.5q1 41 -4.5 71.5t-25 55t-37.5 41t-62.5 30t-77.5 21t-105.5 14.5t-123.5 11t-153 10l-140 14q-43 3 -69.5 32.5t-24.5 70.5l41 612h985l-10 -211h-766l-23 -301l207 -20q347 -26 496 -134 t149 -319q0 -62 -9.5 -114t-33 -105.5t-67.5 -94t-108 -73t-160 -49.5t-218 -17q-244 0 -555 48z" />
<glyph unicode="6" horiz-adv-x="1488" d="M152 690q0 121 10.5 218t33.5 172t54 131t78 95.5t99 65t124 40.5t146 20.5t171 5.5q227 0 379 -35l-20 -178q-121 4 -359 4q-87 0 -147 -6.5t-113.5 -24t-86.5 -48t-58.5 -80.5t-38 -119t-16.5 -165q94 80 196 112t256 32q194 0 304 -46t156 -143.5t46 -267.5 q0 -99 -13 -170t-50.5 -136t-102.5 -105t-171 -63.5t-253 -23.5q-133 0 -226.5 13.5t-165 48.5t-115 85.5t-70.5 134.5t-37 185.5t-10 247.5zM406 621q1 -70 3.5 -119t10 -96t19.5 -77t32 -57t46.5 -42t65 -26.5t85.5 -15.5t110 -4q75 0 129.5 7.5t91.5 25.5t60 39.5t35 57 t16 70.5t4 87q0 100 -27 154.5t-96.5 80t-199.5 25.5q-110 0 -194.5 -23.5t-190.5 -86.5z" />
<glyph unicode="7" horiz-adv-x="1343" d="M86 1413h1047q83 0 117.5 -41t9.5 -106l-568 -1266h-260l506 1077q21 62 59 121h-899z" />
<glyph unicode="8" horiz-adv-x="1574" d="M158 352q0 170 69 267t234 110v8q-134 11 -198 98.5t-64 225.5q0 81 16 139t55 105t106.5 74.5t168.5 42t243 14.5q177 0 292 -21t181 -69.5t91.5 -115.5t25.5 -169q0 -137 -64.5 -225t-197.5 -99v-8q165 -13 234 -110t69 -267q0 -81 -17 -138.5t-58.5 -104t-113.5 -74.5 t-180.5 -43.5t-261.5 -16.5q-150 -1 -258.5 14t-180.5 43t-114 75.5t-59.5 105.5t-17.5 139zM403 408q0 -88 32.5 -134t115 -67t240.5 -21q156 0 236.5 21t111 66.5t30.5 134.5q0 71 -15 113t-58.5 69.5t-113.5 37t-189 9.5q-161 -1 -243 -22t-114.5 -68t-32.5 -139z M438 1034q0 -84 30 -126.5t104 -60.5t221 -18q112 0 178 9t104.5 34t51 61.5t12.5 100.5q0 83 -27 125t-101 62t-220 20t-221 -19.5t-103.5 -62.5t-28.5 -125z" />
<glyph unicode="9" horiz-adv-x="1488" d="M125 940q-1 175 53.5 281.5t186 161.5t354.5 55q102 0 180 -7.5t141 -27t107.5 -46t78 -71t53 -95t32 -125t16.5 -154t4 -189.5q-1 -158 -17.5 -274t-55.5 -199.5t-92.5 -136.5t-137.5 -84t-180.5 -42.5t-231.5 -11.5q-239 0 -407 35l22 180q129 -6 383 -6 q128 0 209.5 19.5t138 71t82 136t31.5 218.5q-95 -82 -197.5 -114t-256.5 -32q-496 0 -496 457zM373 942q0 -91 26.5 -146t97.5 -85.5t195 -30.5q108 0 192.5 24.5t192.5 88.5q0 72 -2 119t-8.5 95.5t-17 77t-29.5 56.5t-44.5 42.5t-63.5 26t-85 15.5t-110 4 q-108 0 -176.5 -17t-105 -56t-49.5 -88t-13 -126z" />
<glyph unicode=":" horiz-adv-x="575" d="M137 90v103q0 51 20.5 69.5t73.5 18.5h78q53 0 73.5 -18.5t20.5 -69.5v-103q0 -51 -20.5 -70.5t-73.5 -19.5h-78q-53 0 -73.5 19.5t-20.5 70.5zM137 721v104q0 49 20.5 68.5t73.5 19.5h78q53 0 73.5 -19.5t20.5 -68.5v-104q0 -49 -20.5 -68.5t-73.5 -19.5h-78 q-53 0 -73.5 19.5t-20.5 68.5z" />
<glyph unicode=";" horiz-adv-x="598" d="M152 78l4 115q1 49 22.5 68.5t71.5 19.5h69q52 0 72.5 -19t20.5 -69v-132q-3 -190 -101 -348l-116 31q27 117 30 256q-34 0 -52.5 20.5t-20.5 57.5zM152 721v104q0 49 20.5 68.5t71.5 19.5h80q51 0 71.5 -19.5t20.5 -68.5v-104q0 -49 -20.5 -68.5t-71.5 -19.5h-80 q-51 0 -71.5 19.5t-20.5 68.5z" />
<glyph unicode="&#x3c;" horiz-adv-x="1363" d="M121 516v195l1081 346v-197l-862 -246l862 -245v-195z" />
<glyph unicode="=" horiz-adv-x="1505" d="M170 297v180h1167v-180h-1167zM170 731v180h1167v-180h-1167z" />
<glyph unicode="&#x3e;" horiz-adv-x="1361" d="M162 174v195l862 245l-862 246v197l1079 -346v-195z" />
<glyph unicode="?" horiz-adv-x="1318" d="M90 1411q16 2 83.5 12t84.5 12.5t75 9t97.5 8t106 3.5t143.5 2q273 0 408 -77.5t135 -239.5q0 -61 -25.5 -115t-67 -95.5t-91.5 -81.5t-101 -82t-93.5 -87t-71 -106.5t-32.5 -131.5h-213q-2 75 19.5 141.5t58 116t81.5 93.5t91 81.5t84.5 72t64 72t27.5 75.5 q4 82 -74 119.5t-253 37.5q-210 0 -525 -14zM508 88v105q0 49 20.5 68.5t71.5 19.5h66q53 0 73.5 -19.5t20.5 -68.5v-105q0 -49 -20.5 -68.5t-73.5 -19.5h-66q-51 0 -71.5 19.5t-20.5 68.5z" />
<glyph unicode="@" horiz-adv-x="1878" d="M170 547q0 94 2.5 162t11 133.5t20.5 109t36 85t52 66.5t73.5 47.5t95.5 33.5t123.5 19.5t152 11t185.5 2.5h383q202 0 304.5 -74t102.5 -246v-623h-188l-25 146q-78 -65 -221 -115.5t-295 -50.5q-159 0 -254.5 66t-95.5 190v100q0 103 80 161t231 58h531v62 q0 76 -46.5 102.5t-173.5 26.5h-333q-99 0 -153 -1t-117 -9t-92 -19t-63 -36.5t-45.5 -56.5t-24 -84.5t-15 -114.5t-2.5 -152q0 -95 2 -157.5t18 -117.5t27 -85.5t54 -56.5t72.5 -36t109.5 -17.5t138 -8t183 -0.5h694v-177q-360 -22 -692 -22q-120 -1 -209 1.5t-171.5 10.5 t-139 19t-107.5 34t-82.5 48t-58 67t-40 86.5t-23 111t-12.5 135.5t-3 165zM866 553q0 -61 42.5 -87t129.5 -26q113 0 234.5 28.5t202.5 82.5v139l-443 -8q-91 -3 -128.5 -24t-37.5 -72v-33z" />
<glyph unicode="A" d="M18 0l578 1346q9 32 34.5 49.5t59.5 17.5h271q33 0 59.5 -17.5t36.5 -49.5l575 -1346h-270l-166 399h-743l-166 -399h-269zM543 610h565l-203 488q-37 98 -43 121h-71l-46 -121z" />
<glyph unicode="B" horiz-adv-x="1607" d="M199 0v1413q226 17 610 17q175 0 287 -16.5t187.5 -59t106.5 -113t31 -180.5q0 -154 -73.5 -233t-235.5 -91v-8q197 -13 281 -107t84 -270q0 -110 -31.5 -180.5t-105.5 -112.5t-180.5 -58.5t-270.5 -16.5q-449 0 -690 16zM455 193q159 -3 393 -3q212 0 289 42t77 167 q0 72 -18.5 117t-64.5 72.5t-116 38.5t-181 12h-379v-446zM455 825h376q193 0 265.5 42t72.5 161q0 116 -79 155.5t-293 39.5h-342v-398z" />
<glyph unicode="C" horiz-adv-x="1525" d="M139 707q0 205 37.5 342t125 225t223 126t339.5 38q172 0 280 -10t226 -35l-27 -195q-224 14 -479 14q-175 0 -270.5 -46.5t-137.5 -154t-42 -304.5t42 -305t138 -154.5t270 -46.5q331 0 518 20l27 -192q-119 -29 -242 -41.5t-303 -12.5q-204 0 -339.5 38t-223 126.5 t-125 225.5t-37.5 342z" />
<glyph unicode="D" horiz-adv-x="1722" d="M199 0v1413q370 19 661 19q204 0 338 -35t222 -120.5t125.5 -222.5t37.5 -347t-37.5 -347t-125.5 -222.5t-222 -120.5t-338 -35q-310 0 -661 18zM461 201q230 -4 399 -4q171 0 266.5 47t138 156.5t42.5 306.5t-42.5 307t-138 157.5t-266.5 47.5q-101 0 -399 -5v-1013z " />
<glyph unicode="E" horiz-adv-x="1488" d="M184 264v885q1 124 99 196t262 72q548 0 794 -16l-12 -197h-725q-81 0 -117 -27t-36 -92v-247h778v-197h-778v-315q0 -65 36 -92t117 -27h725l12 -195q-246 -16 -794 -16q-165 0 -262.5 72t-98.5 196z" />
<glyph unicode="F" horiz-adv-x="1435" d="M193 0v1139q0 132 97.5 205t262.5 73q532 0 770 -18l-14 -195h-682q-91 0 -130.5 -27t-39.5 -92v-272h751v-199h-751v-614h-264z" />
<glyph unicode="G" d="M141 713q0 143 17 250t56.5 189t98 136.5t146.5 88.5t197 48.5t255 14.5q304 0 519 -47l-25 -191q-252 12 -481 12q-103 0 -169.5 -6t-129 -25.5t-98 -53.5t-63 -92.5t-38 -140.5t-10.5 -198q0 -192 37 -300t118.5 -155.5t225.5 -47.5q121 0 221 26.5t207 75.5v518h254 v-815h-191l-26 145q-99 -70 -237 -121t-306 -51q-305 0 -441.5 177.5t-136.5 562.5z" />
<glyph unicode="H" horiz-adv-x="1728" d="M199 0v1413h262v-555h809v555h260v-1413h-260v647h-809v-647h-262z" />
<glyph unicode="I" horiz-adv-x="657" d="M199 0v1413h262v-1413h-262z" />
<glyph unicode="J" horiz-adv-x="882" d="M68 12l26 178h133q203 0 203 127v1096h262v-1102q0 -161 -94.5 -247.5t-269.5 -86.5q-58 0 -137 10.5t-123 24.5z" />
<glyph unicode="K" horiz-adv-x="1554" d="M199 0v1413h262v-416q0 -83 -15 -163h181l532 579h320l-516 -569q-65 -73 -107 -107v-6q61 -48 119 -121l541 -610h-326l-559 637h-185q15 -88 15 -139v-498h-262z" />
<glyph unicode="L" horiz-adv-x="1339" d="M193 289v1124h262v-1083q0 -64 40 -90.5t130 -26.5h655l12 -199q-266 -18 -723 -18q-193 0 -284.5 79t-91.5 214z" />
<glyph unicode="M" horiz-adv-x="2295" d="M168 0l72 1313q3 100 106 100h285q84 0 108 -86l322 -766q19 -45 63 -192h47q41 136 66 194l322 764q21 86 110 86h283q101 0 104 -100l76 -1313h-258l-66 1206h-53l-385 -940q-21 -44 -45 -65t-65 -21h-220q-43 0 -69 21.5t-45 64.5l-389 940h-50l-61 -1206h-258z" />
<glyph unicode="N" horiz-adv-x="1824" d="M199 0v1319q0 46 26 70t76 24h223q42 0 67.5 -18.5t47.5 -59.5l575 -854q23 -34 125 -219h41q-8 152 -8 225l-2 926h258v-1319q0 -94 -100 -94h-232q-41 0 -66 18.5t-48 59.5l-590 878q-65 97 -109 207h-39q13 -91 13 -209v-954h-258z" />
<glyph unicode="O" horiz-adv-x="1740" d="M139 707q0 213 37.5 351.5t126.5 225t224.5 121.5t342.5 35q208 0 343.5 -35t224.5 -121.5t126.5 -225t37.5 -351.5q0 -142 -16.5 -249.5t-53.5 -190t-93 -138t-139 -91t-187.5 -50.5t-242.5 -15q-207 0 -342.5 35.5t-224.5 121.5t-126.5 225t-37.5 352zM414 707 q0 -199 43 -309t140 -157.5t273 -47.5q133 0 218 24.5t140 85.5t77 157.5t22 246.5t-22 246.5t-77 157.5t-140 85.5t-218 24.5q-176 0 -273 -47.5t-140 -157.5t-43 -309z" />
<glyph unicode="P" horiz-adv-x="1540" d="M199 0v1413q241 19 639 19q174 0 285 -20.5t184 -73.5t103 -139t30 -222q0 -109 -19.5 -185t-60 -129.5t-110 -84t-160 -43.5t-220.5 -13q-189 0 -409 23v-545h-262zM461 731h373q195 0 267.5 51t72.5 195t-72.5 194t-267.5 50q-271 0 -373 -2v-488z" />
<glyph unicode="Q" horiz-adv-x="1744" d="M141 707q0 213 37.5 351.5t126 225t224 121.5t343.5 35t343.5 -35t224.5 -121.5t126.5 -225t37.5 -351.5q0 -142 -16.5 -249.5t-53.5 -190t-93 -138t-139 -91t-187.5 -50.5t-242.5 -15q-166 0 -284.5 23t-206 73.5t-139.5 137t-76.5 208t-24.5 292.5zM416 707 q0 -150 22 -246.5t76.5 -157.5t139.5 -85.5t218 -24.5q132 0 217 24.5t140 85.5t77.5 157.5t22.5 246.5t-22.5 246.5t-77.5 157.5t-140 85.5t-217 24.5q-133 0 -218 -24.5t-139.5 -85.5t-76.5 -157.5t-22 -246.5zM690 -227l70 149q306 -91 717 -135l-80 -246 q-341 66 -707 232z" />
<glyph unicode="R" horiz-adv-x="1611" d="M199 0v1413q241 19 641 19q167 0 277.5 -19.5t186 -67t108 -127t32.5 -200.5q0 -163 -78.5 -250.5t-257.5 -105.5v-11q77 -14 140 -64.5t91 -144.5l172 -442h-278l-158 438q-33 68 -88 97.5t-145 29.5l-383 2v-567h-260zM459 776h377q196 2 270 49t74 176t-74 174.5 t-270 45.5l-377 -2v-443z" />
<glyph unicode="S" horiz-adv-x="1466" d="M125 1059q0 81 15 140.5t49.5 101.5t81 69t118.5 42t151.5 20.5t190.5 5.5q329 0 551 -47l-16 -183q-347 9 -527 9q-86 0 -134.5 -2.5t-96.5 -11t-70 -26t-35.5 -47t-13.5 -75.5q0 -89 48 -125t177 -64l365 -84q205 -52 289 -150.5t84 -260.5q0 -97 -23.5 -165 t-69 -113.5t-123 -71t-173.5 -36t-234 -10.5q-298 0 -577 45l16 189q415 -8 565 -8q208 0 280 33t72 139q0 91 -46 125t-173 61l-377 90q-195 50 -279.5 149t-84.5 261z" />
<glyph unicode="T" horiz-adv-x="1531" d="M55 1194v219h1424v-219h-582v-1194h-264v1194h-578z" />
<glyph unicode="U" horiz-adv-x="1726" d="M186 553v860h263v-860q0 -203 91 -281.5t322 -78.5q230 0 322 78.5t92 281.5v860h262v-860q0 -317 -150.5 -448.5t-513.5 -131.5q-255 0 -404 58t-216.5 183t-67.5 339z" />
<glyph unicode="V" horiz-adv-x="1615" d="M31 1413h284l412 -1061q19 -48 53 -157h56q8 31 53 157l407 1061h287l-549 -1341q-11 -32 -36.5 -52t-59.5 -20h-260q-34 0 -59.5 20t-38.5 52z" />
<glyph unicode="W" horiz-adv-x="2502" d="M72 1413h274l268 -1030q20 -96 33 -193h62q20 112 41 193l268 948q6 37 32.5 59.5t67.5 22.5h266q39 0 66 -22.5t35 -59.5l268 -950q21 -78 39 -191h61q4 19 15.5 87t19.5 102l271 1034h272l-356 -1341q-7 -32 -35.5 -52t-65.5 -20h-286q-37 0 -64.5 20t-34.5 54 l-270 985q-19 66 -41 166h-53q-7 -26 -19.5 -82t-19.5 -84l-268 -985q-7 -33 -36.5 -53.5t-68.5 -20.5h-285q-37 0 -64.5 20t-33.5 52z" />
<glyph unicode="X" horiz-adv-x="1617" d="M53 0l508 727l-473 686h303l397 -590h41l396 590h305l-473 -686l508 -727h-308l-434 639h-28l-437 -639h-305z" />
<glyph unicode="Y" horiz-adv-x="1517" d="M23 1413h290l357 -573q47 -75 80 -170h20q29 87 80 170l350 573h295l-604 -944v-469h-262v469z" />
<glyph unicode="Z" horiz-adv-x="1478" d="M111 0v209l929 995h-913v209h1225v-209l-928 -995h948v-209h-1261z" />
<glyph unicode="[" horiz-adv-x="841" d="M211 -201v1637q0 60 42.5 98.5t108.5 38.5h386v-158h-259q-18 0 -29 -10t-11 -27v-1521q0 -17 11 -27t29 -10h259v-158h-386q-151 0 -151 137z" />
<glyph unicode="\" horiz-adv-x="1370" d="M63 1413h207l1041 -1554h-209z" />
<glyph unicode="]" horiz-adv-x="841" d="M94 -180h256q19 0 31 10t12 27v1521q0 17 -12 27t-31 10h-256v158h383q67 0 110.5 -38.5t43.5 -98.5v-1637q0 -60 -43.5 -98.5t-110.5 -38.5h-383v158z" />
<glyph unicode="^" horiz-adv-x="1126" d="M72 813l401 449h184l398 -449l-101 -57l-379 348h-20l-381 -348z" />
<glyph unicode="_" horiz-adv-x="1159" d="M0 0h1159v-176h-1159v176z" />
<glyph unicode="`" horiz-adv-x="823" d="M68 1315l137 182l469 -301l-84 -111z" />
<glyph unicode="a" horiz-adv-x="1398" d="M104 268v103q0 120 96.5 186t268.5 66h524v61q-1 86 -52.5 114.5t-201.5 28.5q-221 0 -553 -20l-24 176q330 49 633 49q232 0 342 -78t110 -272v-682h-198l-31 168q-94 -77 -228.5 -134t-293.5 -57q-178 0 -285 76.5t-107 214.5zM358 301q0 -64 47.5 -93.5t147.5 -29.5 q102 0 221 33t219 100v142h-473q-86 -3 -124 -31.5t-38 -81.5v-39z" />
<glyph unicode="b" horiz-adv-x="1484" d="M172 51v1383h254l2 -338q0 -149 -31 -246q229 182 494 182q245 0 357 -122.5t112 -401.5q0 -127 -27.5 -220t-92 -166t-180 -110t-282.5 -37q-147 0 -316 20t-290 56zM426 203q171 -29 319 -29h27q180 2 253 74t73 260q0 182 -60.5 248.5t-236.5 66.5q-88 0 -169 -28 t-206 -90v-502z" />
<glyph unicode="c" horiz-adv-x="1275" d="M123 504q0 290 139.5 409t478.5 119q257 0 428 -57l-32 -156q-119 4 -351 4q-226 0 -311.5 -67t-85.5 -252q0 -187 86 -255.5t311 -68.5q204 0 381 21l25 -164q-186 -62 -451 -62q-340 0 -479 118.5t-139 410.5z" />
<glyph unicode="d" horiz-adv-x="1490" d="M127 508q0 149 29.5 250t92 161.5t151 86.5t216.5 26q257 0 453 -96q-12 102 -12 209v289h256v-1434h-201l-22 145q-253 -170 -506 -170q-240 0 -348.5 134.5t-108.5 398.5zM389 510q0 -131 30 -202t88 -96.5t163 -25.5q97 0 175 23.5t212 85.5v491l-57 9.5t-58 9.5 t-49.5 7.5t-54.5 7t-47.5 4.5t-54.5 4t-52 1q-56 0 -96 -5t-75 -18t-57 -35.5t-38 -58t-22.5 -85t-6.5 -117.5z" />
<glyph unicode="e" horiz-adv-x="1380" d="M111 504q0 149 34 250t109 163t186 88.5t275 26.5q293 0 428 -87t137 -261v-7q0 -134 -78 -206q-80 -74 -246 -74h-575q22 -131 109 -175t280 -44q205 0 453 25l24 -160q-84 -35 -228 -51.5t-282 -16.5q-339 0 -482.5 121.5t-143.5 407.5zM375 571h514q135 0 135 117 q-2 80 -69 114t-230 34q-191 0 -266 -54.5t-84 -210.5z" />
<glyph unicode="f" horiz-adv-x="1032" d="M63 823v170l232 11v165q0 147 90 225.5t295 78.5q229 0 373 -19l-23 -176h-262q-121 0 -170 -32t-49 -109v-133h401v-181h-401v-823h-254v823h-232z" />
<glyph unicode="g" horiz-adv-x="1470" d="M92 -94q0 81 42.5 130.5t146.5 94.5q-54 40 -67 103q-3 19 -3 37q0 42 19 82q29 57 87 85q-90 36 -130 102t-40 167q0 120 53.5 190t175.5 102.5t335 32.5q205 0 317 -28h395l-16 -121l-168 -17q33 -62 33 -157q0 -116 -52.5 -185.5t-176 -104t-334.5 -34.5 q-154 0 -265 18q-27 -25 -29.5 -54.5t28 -54t92.5 -30.5l481 -51q182 -20 259 -89.5t77 -203.5q0 -76 -21 -129t-65 -91t-119.5 -59.5t-176.5 -31.5t-245 -10q-243 0 -379 29.5t-195 95t-59 182.5zM336 -68q0 -87 75 -111t310 -24q96 0 157 3t108.5 11t72 23.5t36 38 t11.5 57.5q0 62 -39.5 79t-181.5 30l-445 41q-55 -37 -79.5 -70t-24.5 -78zM379 709q0 -83 73.5 -116.5t256.5 -33.5q184 0 255.5 33t71.5 117t-70 115.5t-257 31.5q-186 0 -258 -31.5t-72 -115.5z" />
<glyph unicode="h" horiz-adv-x="1505" d="M178 0v1434h254l2 -369q0 -115 -16 -209q298 176 565 176q170 0 261 -71.5t91 -206.5v-754h-254v678q0 83 -39 113t-137 30q-102 0 -205.5 -29t-267.5 -96v-696h-254z" />
<glyph unicode="i" horiz-adv-x="591" d="M162 1255v113q0 72 76 72h116q76 0 76 -72v-113q0 -71 -76 -71h-116q-76 0 -76 71zM170 0v1004h252v-1004h-252z" />
<glyph unicode="j" horiz-adv-x="645" d="M55 -301q80 76 116 150.5t36 168.5v986h254v-986q0 -132 -71 -247t-193 -181zM199 1260v110q0 72 75 72h117q76 0 76 -72v-110q0 -72 -76 -72h-117q-75 0 -75 72z" />
<glyph unicode="k" horiz-adv-x="1347" d="M178 0v1434h254l2 -611q0 -91 -12 -176h139l385 357h322l-387 -357q-67 -67 -97 -84v-4q11 -6 27 -22t37.5 -39.5t32.5 -34.5l430 -463h-322l-424 479h-145q12 -80 12 -153v-326h-254z" />
<glyph unicode="l" horiz-adv-x="811" d="M180 252v1182h254l-2 -1121q0 -116 170 -116h123l29 -185q-35 -16 -112.5 -25.5t-133.5 -9.5q-152 0 -240 72t-88 203z" />
<glyph unicode="m" horiz-adv-x="2277" d="M178 0v1004h207l14 -152q263 180 523 180q265 0 327 -174q254 174 510 174q169 0 258.5 -71.5t89.5 -206.5v-754h-249v678q-2 77 -46 110t-145 33q-92 0 -173.5 -26.5t-227.5 -98.5v-696h-246v678q1 79 -44 111t-147 32q-88 0 -171.5 -26.5t-227.5 -96.5v-698h-252z" />
<glyph unicode="n" horiz-adv-x="1470" d="M160 0v1004h213l16 -152q307 180 576 180q172 0 262 -71.5t90 -206.5v-754h-254v678q0 83 -39 113t-137 30q-99 0 -197 -28.5t-276 -98.5l2 -694h-256z" />
<glyph unicode="o" horiz-adv-x="1452" d="M113 502q0 289 139.5 409.5t474.5 120.5q336 0 475 -120.5t139 -409.5t-139 -409t-475 -120q-335 0 -474.5 120t-139.5 409zM375 502q0 -99 17 -161t59 -100.5t107.5 -53.5t168.5 -15q203 0 278.5 69t75.5 261q0 193 -75.5 262.5t-278.5 69.5t-277.5 -69t-74.5 -263z" />
<glyph unicode="p" horiz-adv-x="1507" d="M178 -399v1403h207l21 -152q105 79 249 128.5t281 49.5q231 0 337.5 -136.5t106.5 -399.5q0 -147 -29.5 -247t-92 -160t-150.5 -86t-215 -26q-264 0 -469 103q7 -78 7 -159q0 -27 -1 -54v-264h-252zM430 221q40 -5 104 -14.5t101 -14.5t89 -9.5t99 -4.5q86 0 138 12 t90 47t53.5 97t15.5 162q0 187 -61 258t-209 71q-97 0 -190.5 -29.5t-229.5 -95.5v-479z" />
<glyph unicode="q" horiz-adv-x="1470" d="M113 498q0 86 11.5 155t38.5 130.5t72 106t110 77.5t155 49t205 16q136 0 304.5 -20t288.5 -56v-1355h-251l-3 309v25q0 107 23 200q-268 -162 -508 -162q-228 0 -337 128t-109 397zM375 485q0 -160 58 -229.5t214 -69.5q99 0 183 25t217 82v510q-164 31 -318 31h-27 q-127 -3 -195 -33t-100 -104t-32 -212z" />
<glyph unicode="r" horiz-adv-x="1062" d="M178 0v1004h197l24 -152q288 180 549 180h60l-29 -233h-80q-97 0 -197 -21t-270 -71v-707h-254z" />
<glyph unicode="s" horiz-adv-x="1304" d="M102 748q0 162 116.5 223t395.5 61q287 -3 553 -37l-20 -172q-324 8 -492 8q-191 0 -249 -13.5t-58 -72.5q0 -15 3.5 -26.5t7.5 -20t15.5 -16t19.5 -11.5t27.5 -9t31 -7.5t39 -8.5t43.5 -9l368 -74q162 -37 232.5 -99.5t70.5 -189.5q0 -74 -22 -125.5t-63.5 -85 t-112 -52.5t-154.5 -26.5t-205 -7.5q-283 0 -520 33l16 174q161 -8 447 -8q218 0 293.5 18.5t75.5 77.5q0 20 -7.5 34.5t-19 24t-35 17.5t-43.5 12.5t-57 12.5q-8 2 -13 3l-12.5 2.5t-13.5 2.5l-361 72q-162 38 -229.5 106t-67.5 189z" />
<glyph unicode="t" horiz-adv-x="1040" d="M66 823v170l233 11v288h254v-288h401v-181h-401v-510q0 -65 38 -90.5t130 -25.5h192l27 -185q-58 -16 -150 -25.5t-153 -9.5q-165 0 -251.5 76t-86.5 217v553h-233z" />
<glyph unicode="u" horiz-adv-x="1476" d="M170 252v752h254v-678q-1 -79 42.5 -110.5t149.5 -31.5q92 0 189.5 27t241.5 88v705h251v-1004h-200l-21 139q-281 -166 -553 -166q-174 0 -264 70.5t-90 208.5z" />
<glyph unicode="v" horiz-adv-x="1400" d="M35 1004h268l305 -662l74 -174h35q3 6 31.5 73t44.5 101l303 662h268l-463 -945q-26 -59 -88 -59h-227q-31 0 -55 16t-31 43z" />
<glyph unicode="w" horiz-adv-x="2177" d="M55 1004h260l254 -691q29 -97 41 -159h33q4 12 20 70.5t27 88.5l199 617q8 34 33 54t61 20h215q36 0 61 -20.5t31 -55.5l199 -615q24 -77 45 -159h35q26 119 41 159l254 691h260l-367 -936q-9 -32 -34.5 -50t-59.5 -18h-223q-36 0 -63 21.5t-34 56.5l-198 616 q-10 29 -22 85t-19 79h-31q-14 -65 -43 -164l-196 -616q-7 -35 -34.5 -56.5t-64.5 -21.5h-215q-36 0 -62.5 18t-33.5 50z" />
<glyph unicode="x" horiz-adv-x="1404" d="M49 0l426 516l-393 488h293l307 -394h41l305 394h295l-395 -488l426 -516h-295l-342 430h-29l-344 -430h-295z" />
<glyph unicode="y" horiz-adv-x="1404" d="M41 1004h274l314 -691q6 -15 18 -42t21 -49t14 -42h37l59 133l316 691h272l-500 -1035q-182 -386 -562 -386q-18 0 -36 1l-22 158q156 34 244.5 89t132.5 146l10 23h-47q-62 0 -88 61z" />
<glyph unicode="z" horiz-adv-x="1329" d="M113 0v190l770 623h-760v191h1087v-191l-768 -623h777v-190h-1106z" />
<glyph unicode="{" horiz-adv-x="831" d="M102 588v168q7 2 20 5q81 18 101 33q28 22 31 90v21v389q0 322 475 279v-154q-135 0 -183 -31t-48 -116v-334q2 -130 -49 -187.5t-193 -78.5q145 -34 197.5 -90.5t54.5 -167.5v-453q0 -85 49 -115t184 -30v-154q-475 -43 -475 279v505q0 29 -6.5 49t-14.5 32t-31.5 23.5 t-40 16.5t-57.5 17q-9 3 -14 4z" />
<glyph unicode="|" horiz-adv-x="608" d="M213 -346v1945h182v-1945h-182z" />
<glyph unicode="}" horiz-adv-x="833" d="M92 -184q135 0 183.5 30t48.5 115v453q2 110 55 167t199 91q-143 21 -194.5 79t-49.5 187v334q0 85 -48.5 116t-183.5 31v154q476 43 476 -279v-389q0 -81 22.5 -102.5t107.5 -41.5l7.5 -1.5t6.5 -1.5t7 -2v-168q-96 -27 -120 -42q-40 -34 -42 -100v-505 q0 -322 -475 -279v154z" />
<glyph unicode="~" horiz-adv-x="1343" d="M176 453q-21 139 39.5 210t167.5 68q97 -3 285 -53t258 -55q67 -7 91.5 15t24.5 83h125q21 -136 -37 -207t-167 -68q-111 3 -297 53.5t-248 55.5q-68 6 -91.5 -17t-23.5 -85h-127z" />
<glyph unicode="&#xa1;" horiz-adv-x="645" d="M197 186l26 398h201l25 -398v-575h-252v575zM199 831v107q0 49 20.5 68.5t73.5 19.5h63q51 0 72 -19.5t21 -68.5v-107q0 -49 -20.5 -67.5t-72.5 -18.5h-63q-53 0 -73.5 18.5t-20.5 67.5z" />
<glyph unicode="&#xa2;" horiz-adv-x="1318" d="M121 715q0 289 140 408.5t480 119.5h25l20 170h123l-20 -176q165 -14 280 -51l-32 -160q-128 9 -273 12l-76 -649q221 0 377 19l25 -160q-176 -59 -428 -62l-23 -186h-121l23 188q-283 15 -401.5 136t-118.5 391zM373 715q0 -164 66 -236t229 -86l71 645 q-205 -6 -285.5 -75.5t-80.5 -247.5z" />
<glyph unicode="&#xa3;" horiz-adv-x="1484" d="M131 813h199l-19 248q-6 94 14 161t59.5 108.5t107.5 66t145 33t184 8.5q198 0 488 -21l-17 -200q-203 6 -467 6q-155 0 -211 -35t-47 -135l21 -240h547l-9 -137h-526l10 -113q6 -94 -12.5 -159t-60 -110t-117.5 -91q59 12 180 12h768v-215h-1225v215q67 23 111.5 58.5 t66 82t28 96t1.5 111.5l-8 113h-209z" />
<glyph unicode="&#xa4;" horiz-adv-x="1531" d="M150 350l180 142q-88 106 -88 227q0 130 94 235l-178 142l108 106l191 -151q135 77 307 77q176 0 309 -79l195 153l110 -106l-186 -144q92 -107 92 -233q0 -125 -92 -232l186 -145l-112 -106l-195 153q-137 -78 -307 -78q-168 0 -305 78l-193 -151zM393 721 q0 -110 109.5 -187t261.5 -77q150 0 258 77t108 187t-108 187t-258 77q-153 0 -262 -77t-109 -187z" />
<glyph unicode="&#xa5;" horiz-adv-x="1634" d="M80 1413h272l371 -563q14 -21 41.5 -73.5t42.5 -67.5h22q14 15 41 67.5t41 73.5l369 563h272l-489 -731h348v-139h-440l-23 -35v-64h463v-137h-463v-307h-262v307h-453l-2 137h455v64l-22 35h-431l-4 139h340z" />
<glyph unicode="&#xa6;" horiz-adv-x="612" d="M215 -346v819h182v-819h-182zM215 780v819h182v-819h-182z" />
<glyph unicode="&#xa7;" horiz-adv-x="1411" d="M141 1155q0 70 23.5 120.5t65.5 82t110.5 50t147.5 25.5t188 7q266 0 577 -25l-16 -188q-195 10 -494 10q-181 0 -254.5 -15t-76.5 -75q-3 -56 39 -89.5t131 -68.5l415 -164q128 -54 191 -126t68 -162.5t-29 -206.5h-183q14 126 -24.5 192t-161.5 121l-448 191 q-67 26 -111.5 51t-83 62t-56.5 88t-18 120zM158 -328l20 189q279 -13 496 -13q172 0 247.5 17.5t79.5 79.5q3 56 -39.5 90t-125.5 65l-418 166q-128 53 -191 125t-68.5 163t25.5 208h183q-12 -130 25.5 -194t162.5 -119l449 -189q65 -26 109 -51.5t82 -63t56.5 -90 t18.5 -121.5q0 -61 -16.5 -106.5t-50.5 -77t-77 -52t-106.5 -31.5t-128.5 -15t-152 -4q-289 0 -581 24z" />
<glyph unicode="&#xa8;" horiz-adv-x="1050" d="M184 1264v112q0 64 66 64h84q32 0 48.5 -17t16.5 -47v-112q0 -62 -65 -62h-84q-66 0 -66 62zM653 1264v112q0 30 17.5 47t50.5 17h84q32 0 48.5 -17t16.5 -47v-112q0 -62 -65 -62h-84q-68 0 -68 62z" />
<glyph unicode="&#xa9;" horiz-adv-x="2168" d="M133 707q0 209 127 377.5t344 262t479 93.5q263 0 480.5 -93.5t345 -262t127.5 -377.5q0 -157 -75 -294t-202.5 -233t-303.5 -151.5t-372 -55.5t-371 55.5t-302.5 151.5t-202 233t-74.5 294zM270 707q0 -172 110.5 -313t296.5 -219.5t406 -78.5q222 0 408.5 78.5 t295.5 219.5t109 313t-109 312.5t-295 219t-409 78.5q-220 0 -406 -78t-296.5 -219t-110.5 -313zM580 711q0 239 117 337.5t401 98.5q203 0 354 -29l-18 -139q-170 6 -338 6q-182 0 -250 -58t-68 -216q0 -159 68 -217t250 -58q221 0 366 8l17 -137q-152 -33 -381 -33 q-285 0 -401.5 98t-116.5 339z" />
<glyph unicode="&#xaa;" horiz-adv-x="1128" d="M145 729v76q0 78 66.5 123t185.5 45h377v41q0 45 -36.5 67.5t-125.5 22.5q-125 0 -407 -12l-19 129q254 32 467 32q156 0 234 -55t78 -186v-451h-152l-25 131q-68 -59 -165 -103t-213 -44q-120 0 -192.5 47.5t-72.5 136.5zM330 768q0 -41 34.5 -57.5t106.5 -16.5 q68 0 151 26.5t152 65.5v93l-317 -21q-127 -6 -127 -70v-20z" />
<glyph unicode="&#xab;" horiz-adv-x="1263" d="M90 487v54l424 405l133 -84l-325 -348l329 -356l-135 -84zM584 487v54l422 405l133 -84l-326 -348l330 -356l-135 -84z" />
<glyph unicode="&#xac;" horiz-adv-x="1515" d="M168 522v183h1169v-431h-192v248h-977z" />
<glyph unicode="&#xad;" horiz-adv-x="1130" d="M164 432v176h801v-176h-801z" />
<glyph unicode="&#xae;" horiz-adv-x="1421" d="M123 983q0 124 78.5 228.5t214.5 165.5t297 61q119 0 227.5 -36t187 -97t124.5 -145t46 -177q0 -125 -78 -230t-213 -166t-294 -61q-161 0 -297 61t-214.5 166t-78.5 230zM211 983q0 -103 67.5 -190t183 -138t251.5 -51q204 0 350.5 111.5t146.5 267.5q0 104 -67 191 t-181.5 137.5t-248.5 50.5q-136 0 -251.5 -50.5t-183 -137.5t-67.5 -191zM446 737v500q92 6 289 6q149 0 211 -31t62 -114q0 -54 -36.5 -85t-117.5 -38v-4q79 -7 102 -78l78 -156h-125l-69 152q-24 47 -105 47h-172v-199h-117zM563 1012h168q91 2 125.5 17.5t34.5 57.5 q0 45 -34 59.5t-126 14.5h-168v-149z" />
<glyph unicode="&#xaf;" horiz-adv-x="1026" d="M139 1231v172h748v-172h-748z" />
<glyph unicode="&#xb0;" horiz-adv-x="925" d="M117 1176q0 109 101 186.5t243 77.5t245 -77t103 -187t-103 -190.5t-245 -80.5q-141 0 -242.5 80.5t-101.5 190.5zM270 1176q0 -58 55 -95t136 -37q80 0 137 37.5t57 94.5q0 56 -56.5 91.5t-137.5 35.5t-136 -35.5t-55 -91.5z" />
<glyph unicode="&#xb1;" horiz-adv-x="1509" d="M172 113v184h1165v-184h-1165zM172 657v185h485v258h195v-258h485v-185h-487v-256h-193v256h-485z" />
<glyph unicode="&#xb2;" horiz-adv-x="1116" d="M139 737v103q0 60 33 80l328 225q120 85 166 129.5t47 95.5q1 42 -47 55t-156 13q-140 2 -350 -11l-10 144q190 28 376 28q107 0 176.5 -8t124.5 -29.5t80 -62.5t25 -104q0 -66 -55 -142.5t-158 -146.5l-309 -207q57 8 168 8l397 -2l-2 -168h-834z" />
<glyph unicode="&#xb3;" horiz-adv-x="1069" d="M135 743l10 142q172 -8 340 -8q141 0 195.5 26t54.5 96q0 34 -16 56t-66 37.5t-137 15.5h-227v137h227q65 0 107.5 9t61 26.5t24.5 34.5t6 41q0 54 -47.5 72t-182.5 18q-147 0 -319 -4l-10 137q205 23 358 23q221 0 307 -42.5t86 -154.5q0 -95 -43.5 -148.5t-156.5 -66.5 v-4q124 -13 175 -64t54 -149q3 -135 -88.5 -193.5t-315.5 -58.5q-164 0 -397 22z" />
<glyph unicode="&#xb4;" horiz-adv-x="823" d="M127 1196l469 301l137 -182l-522 -230z" />
<glyph unicode="&#xb6;" horiz-adv-x="1538" d="M92 922q0 283 186 399.5t627 116.5q248 0 410 -35v-1403h-187v1276q-172 8 -245 8v-1714h-185v842q-324 23 -465 141.5t-141 368.5z" />
<glyph unicode="&#xb7;" horiz-adv-x="593" d="M147 477v103q0 51 21 70.5t74 19.5h77q53 0 74 -19.5t21 -70.5v-103q0 -51 -21 -70.5t-74 -19.5h-77q-53 0 -74 19.5t-21 70.5z" />
<glyph unicode="&#xb8;" horiz-adv-x="606" d="M78 -481l37 121q107 -2 173.5 31.5t69.5 92.5q2 28 -29 37t-128 9l24 108q174 16 244 -9.5t66 -123.5q-3 -95 -63 -160.5t-162.5 -92t-231.5 -13.5z" />
<glyph unicode="&#xb9;" horiz-adv-x="755" d="M76 1499l307 86h199v-848h-199v590q0 61 10 92l-293 -49z" />
<glyph unicode="&#xba;" horiz-adv-x="1140" d="M133 897q0 196 97.5 276t338.5 80q242 0 340.5 -80t98.5 -276q0 -194 -98 -273t-341 -79q-241 0 -338.5 79t-97.5 273zM330 897q0 -122 51 -165.5t188 -43.5q136 0 187 43.5t51 165.5q0 124 -50.5 167.5t-187.5 43.5t-188 -43.5t-51 -167.5z" />
<glyph unicode="&#xbb;" horiz-adv-x="1284" d="M129 158l330 356l-326 348l133 84l424 -405v-54l-426 -413zM623 158l327 356l-325 348l133 84l424 -405v-54l-426 -413z" />
<glyph unicode="&#xbc;" horiz-adv-x="2279" d="M86 1327l305 86h199v-848h-199v590q0 53 10 92l-290 -49zM360 0l1170 1413h174l-1169 -1413h-175zM1255 326l330 522h189l-314 -486q-10 -15 2.5 -25.5t40.5 -10.5h369v223l33 135h151v-358h127v-127l-127 -15v-184h-184v182h-510q-71 0 -106.5 40t-0.5 104z" />
<glyph unicode="&#xbd;" horiz-adv-x="2334" d="M86 1327l305 86h199v-848h-199v590q0 53 10 92l-290 -49zM342 0l1169 1413h179l-1170 -1413h-178zM1386 0v104q0 50 33 80l326 217q211 144 217 232q1 41 -47.5 54t-155.5 13q-157 0 -350 -10l-10 144q190 28 375 28q214 0 308.5 -42.5t94.5 -166.5q0 -119 -211 -270 l-328 -221q63 8 179 8l403 -2v-168h-834z" />
<glyph unicode="&#xbe;" horiz-adv-x="2510" d="M129 567l10 142q194 -9 340 -9q139 0 193.5 26t54.5 95q0 54 -45.5 82.5t-173.5 28.5l-225 4v127l225 6q66 0 108.5 8.5t61 26t24 33.5t5.5 41q0 55 -47 73.5t-181 18.5q-190 0 -319 -6l-10 139q179 20 358 20q221 0 307 -42t86 -152q0 -96 -44 -149t-159 -66v-4 q128 -13 180 -64t54 -149q2 -135 -90.5 -193.5t-315.5 -58.5q-164 0 -397 22zM616 0l1170 1413h178l-1169 -1413h-179zM1491 220q-33 38 0 106l328 522h190l-315 -486q-10 -15 3 -25.5t42 -10.5h360v223l35 135h150v-358h133v-127l-133 -15v-184h-185v182h-504 q-71 0 -104 38z" />
<glyph unicode="&#xbf;" horiz-adv-x="1310" d="M92 -106q0 61 25.5 115t67 95.5t91.5 81.5t101 81.5t93.5 86.5t71.5 106.5t33 131.5h213q2 -75 -20 -142t-59 -116t-82 -93.5t-91 -81.5t-84.5 -71.5t-63 -72.5t-26.5 -76q-5 -80 73.5 -118t252.5 -38q214 0 522 14l15 -174q-207 -33 -308 -39q-114 -8 -284 -8 q-271 0 -406 78t-135 240zM561 840v106q0 50 19.5 69t70.5 19h64q53 0 73.5 -19.5t20.5 -68.5v-106q0 -49 -20.5 -68.5t-73.5 -19.5h-64q-51 0 -70.5 19t-19.5 69z" />
<glyph unicode="&#xc0;" d="M18 0l578 1346q9 32 34.5 49.5t59.5 17.5h271q33 0 59.5 -17.5t36.5 -49.5l575 -1346h-270l-166 399h-743l-166 -399h-269zM362 1712l138 182l469 -301l-84 -110zM543 610h565l-203 488q-37 98 -43 121h-71l-46 -121z" />
<glyph unicode="&#xc1;" d="M18 0l578 1346q9 32 34.5 49.5t59.5 17.5h271q33 0 59.5 -17.5t36.5 -49.5l575 -1346h-270l-166 399h-743l-166 -399h-269zM543 610h565l-203 488q-37 98 -43 121h-71l-46 -121zM647 1593l469 301l137 -182l-522 -229z" />
<glyph unicode="&#xc2;" d="M18 0l578 1346q9 32 34.5 49.5t59.5 17.5h271q33 0 59.5 -17.5t36.5 -49.5l575 -1346h-270l-166 399h-743l-166 -399h-269zM387 1583l348 270h185l350 -272l-84 -100l-346 196h-23l-350 -196zM543 610h565l-203 488q-37 98 -43 121h-71l-46 -121z" />
<glyph unicode="&#xc3;" d="M18 0l578 1346q9 32 34.5 49.5t59.5 17.5h271q33 0 59.5 -17.5t36.5 -49.5l575 -1346h-270l-166 399h-743l-166 -399h-269zM401 1556q-19 133 42.5 203t166.5 64q87 -5 208 -50.5t190 -52.5q71 -7 98 14.5t27 77.5h116q18 -128 -41.5 -199t-167.5 -65q-97 5 -221 53.5 t-180 53.5q-69 7 -96 -17t-27 -82h-115zM543 610h565l-203 488q-37 98 -43 121h-71l-46 -121z" />
<glyph unicode="&#xc4;" d="M18 0l578 1346q9 32 34.5 49.5t59.5 17.5h271q33 0 59.5 -17.5t36.5 -49.5l575 -1346h-270l-166 399h-743l-166 -399h-269zM483 1624v113q0 63 66 63h84q65 0 65 -63v-113q0 -61 -65 -61h-84q-66 0 -66 61zM543 610h565l-203 488q-37 98 -43 121h-71l-46 -121zM952 1624 v113q0 63 68 63h84q65 0 65 -63v-113q0 -61 -65 -61h-84q-68 0 -68 61z" />
<glyph unicode="&#xc5;" d="M18 0l578 1346q9 32 34.5 49.5t59.5 17.5h271q33 0 59.5 -17.5t36.5 -49.5l575 -1346h-270l-166 399h-743l-166 -399h-269zM541 1688q0 95 83.5 161t202.5 66t204 -66t85 -161q0 -97 -84 -162.5t-205 -65.5t-203.5 65t-82.5 163zM543 610h565l-203 488q-37 98 -43 121 h-71l-46 -121zM674 1688q0 -51 43.5 -81t109.5 -30q67 0 110.5 30t43.5 81q0 50 -44 80t-110 30q-67 0 -110 -30t-43 -80z" />
<glyph unicode="&#xc6;" horiz-adv-x="2412" d="M-8 0l885 1163q66 98 144.5 152t190.5 77t289 23q513 0 793 -14l-10 -199h-670q-77 0 -124.5 -33.5t-47.5 -91.5v-237h739v-199h-739v-313q0 -64 41 -91.5t131 -27.5h670l10 -197q-252 -16 -787 -16q-139 0 -225 74.5t-86 193.5v150h-623l-307 -414h-274zM725 616h471 v490q0 40 23.5 80t56.5 61h-23q-63 -28 -145 -117z" />
<glyph unicode="&#xc7;" horiz-adv-x="1525" d="M139 707q0 205 37.5 342t125 225t223 126t339.5 38q172 0 280 -10t226 -35l-27 -195q-224 14 -479 14q-175 0 -270.5 -46.5t-137.5 -154t-42 -304.5t42 -305t138 -154.5t270 -46.5q331 0 518 20l27 -192q-119 -29 -242 -41.5t-303 -12.5q-204 0 -339.5 38t-223 126.5 t-125 225.5t-37.5 342zM573 -512l37 121q107 -2 174 32t70 93q1 28 -30 36.5t-128 8.5l25 108q174 16 243.5 -9.5t65.5 -123.5q-3 -95 -63 -160.5t-162.5 -92t-231.5 -13.5z" />
<glyph unicode="&#xc8;" horiz-adv-x="1488" d="M184 264v885q1 124 99 196t262 72q548 0 794 -16l-12 -197h-725q-81 0 -117 -27t-36 -92v-247h778v-197h-778v-315q0 -65 36 -92t117 -27h725l12 -195q-246 -16 -794 -16q-165 0 -262.5 72t-98.5 196zM336 1747l137 182l469 -301l-84 -110z" />
<glyph unicode="&#xc9;" horiz-adv-x="1488" d="M184 264v885q1 124 99 196t262 72q548 0 794 -16l-12 -197h-725q-81 0 -117 -27t-36 -92v-247h778v-197h-778v-315q0 -65 36 -92t117 -27h725l12 -195q-246 -16 -794 -16q-165 0 -262.5 72t-98.5 196zM618 1628l469 301l138 -182l-523 -229z" />
<glyph unicode="&#xca;" horiz-adv-x="1488" d="M184 264v885q1 124 99 196t262 72q548 0 794 -16l-12 -197h-725q-81 0 -117 -27t-36 -92v-247h778v-197h-778v-315q0 -65 36 -92t117 -27h725l12 -195q-246 -16 -794 -16q-165 0 -262.5 72t-98.5 196zM358 1616l349 270h184l350 -272l-84 -101l-346 197h-23l-350 -197z " />
<glyph unicode="&#xcb;" horiz-adv-x="1488" d="M184 264v885q1 124 99 196t262 72q548 0 794 -16l-12 -197h-725q-81 0 -117 -27t-36 -92v-247h778v-197h-778v-315q0 -65 36 -92t117 -27h725l12 -195q-246 -16 -794 -16q-165 0 -262.5 72t-98.5 196zM457 1659v113q0 63 65 63h84q32 0 49 -16.5t17 -46.5v-113 q0 -62 -66 -62h-84q-65 0 -65 62zM926 1659v113q0 63 67 63h84q32 0 49 -16.5t17 -46.5v-113q0 -62 -66 -62h-84q-67 0 -67 62z" />
<glyph unicode="&#xcc;" horiz-adv-x="657" d="M-133 1712l137 182l469 -301l-84 -110zM199 0v1413h262v-1413h-262z" />
<glyph unicode="&#xcd;" horiz-adv-x="657" d="M150 1593l468 301l138 -182l-523 -229zM199 0v1413h262v-1413h-262z" />
<glyph unicode="&#xce;" horiz-adv-x="657" d="M-111 1583l349 270h184l350 -272l-84 -100l-346 196h-23l-350 -196zM199 0v1413h262v-1413h-262z" />
<glyph unicode="&#xcf;" horiz-adv-x="657" d="M-12 1624v113q0 63 65 63h84q32 0 49 -16.5t17 -46.5v-113q0 -61 -66 -61h-84q-34 0 -49.5 14.5t-15.5 46.5zM199 0v1413h262v-1413h-262zM457 1624v113q0 63 67 63h84q32 0 49 -16.5t17 -46.5v-113q0 -61 -66 -61h-84q-67 0 -67 61z" />
<glyph unicode="&#xd0;" horiz-adv-x="1748" d="M49 678v135h156v600q371 19 659 19q206 0 340 -35t222.5 -120.5t125.5 -222.5t37 -347t-37 -347t-125.5 -222.5t-222.5 -120.5t-340 -35q-312 0 -659 18v678h-156zM465 201q230 -4 399 -4q172 0 268 47t138.5 156.5t42.5 306.5t-42.5 307t-138.5 157.5t-268 47.5 q-101 0 -399 -5v-401h414v-135h-414v-477z" />
<glyph unicode="&#xd1;" horiz-adv-x="1824" d="M199 0v1319q0 46 26 70t76 24h223q42 0 67.5 -18.5t47.5 -59.5l575 -854q23 -34 125 -219h41q-8 152 -8 225l-2 926h258v-1319q0 -94 -100 -94h-232q-41 0 -66 18.5t-48 59.5l-590 878q-65 97 -109 207h-39q13 -91 13 -209v-954h-258zM500 1556q-19 133 42.5 203 t166.5 64q70 -4 138 -27t133.5 -46.5t125.5 -29.5q71 -7 98 14.5t27 77.5h117q18 -128 -41.5 -199t-167.5 -65q-97 5 -221.5 53.5t-180.5 53.5q-69 7 -96 -17t-27 -82h-114z" />
<glyph unicode="&#xd2;" horiz-adv-x="1740" d="M139 707q0 213 37.5 351.5t126.5 225t224.5 121.5t342.5 35q208 0 343.5 -35t224.5 -121.5t126.5 -225t37.5 -351.5q0 -142 -16.5 -249.5t-53.5 -190t-93 -138t-139 -91t-187.5 -50.5t-242.5 -15q-207 0 -342.5 35.5t-224.5 121.5t-126.5 225t-37.5 352zM406 1712 l137 182l469 -301l-84 -110zM414 707q0 -199 43 -309t140 -157.5t273 -47.5q133 0 218 24.5t140 85.5t77 157.5t22 246.5t-22 246.5t-77 157.5t-140 85.5t-218 24.5q-176 0 -273 -47.5t-140 -157.5t-43 -309z" />
<glyph unicode="&#xd3;" horiz-adv-x="1740" d="M139 707q0 213 37.5 351.5t126.5 225t224.5 121.5t342.5 35q208 0 343.5 -35t224.5 -121.5t126.5 -225t37.5 -351.5q0 -142 -16.5 -249.5t-53.5 -190t-93 -138t-139 -91t-187.5 -50.5t-242.5 -15q-207 0 -342.5 35.5t-224.5 121.5t-126.5 225t-37.5 352zM414 707 q0 -199 43 -309t140 -157.5t273 -47.5q133 0 218 24.5t140 85.5t77 157.5t22 246.5t-22 246.5t-77 157.5t-140 85.5t-218 24.5q-176 0 -273 -47.5t-140 -157.5t-43 -309zM688 1593l469 301l137 -182l-522 -229z" />
<glyph unicode="&#xd4;" horiz-adv-x="1740" d="M139 707q0 213 37.5 351.5t126.5 225t224.5 121.5t342.5 35q208 0 343.5 -35t224.5 -121.5t126.5 -225t37.5 -351.5q0 -142 -16.5 -249.5t-53.5 -190t-93 -138t-139 -91t-187.5 -50.5t-242.5 -15q-207 0 -342.5 35.5t-224.5 121.5t-126.5 225t-37.5 352zM414 707 q0 -199 43 -309t140 -157.5t273 -47.5q133 0 218 24.5t140 85.5t77 157.5t22 246.5t-22 246.5t-77 157.5t-140 85.5t-218 24.5q-176 0 -273 -47.5t-140 -157.5t-43 -309zM428 1583l348 270h185l350 -272l-84 -100l-346 196h-23l-350 -196z" />
<glyph unicode="&#xd5;" horiz-adv-x="1740" d="M139 707q0 213 37.5 351.5t126.5 225t224.5 121.5t342.5 35q208 0 343.5 -35t224.5 -121.5t126.5 -225t37.5 -351.5q0 -142 -16.5 -249.5t-53.5 -190t-93 -138t-139 -91t-187.5 -50.5t-242.5 -15q-207 0 -342.5 35.5t-224.5 121.5t-126.5 225t-37.5 352zM414 707 q0 -199 43 -309t140 -157.5t273 -47.5q133 0 218 24.5t140 85.5t77 157.5t22 246.5t-22 246.5t-77 157.5t-140 85.5t-218 24.5q-176 0 -273 -47.5t-140 -157.5t-43 -309zM444 1556q-19 133 42.5 203t166.5 64q87 -5 208 -50.5t190 -52.5q71 -7 98 14.5t27 77.5h116 q18 -128 -41.5 -199t-167.5 -65q-97 5 -221 53.5t-180 53.5q-69 7 -96 -17t-27 -82h-115z" />
<glyph unicode="&#xd6;" horiz-adv-x="1740" d="M139 707q0 213 37.5 351.5t126.5 225t224.5 121.5t342.5 35q208 0 343.5 -35t224.5 -121.5t126.5 -225t37.5 -351.5q0 -142 -16.5 -249.5t-53.5 -190t-93 -138t-139 -91t-187.5 -50.5t-242.5 -15q-207 0 -342.5 35.5t-224.5 121.5t-126.5 225t-37.5 352zM414 707 q0 -199 43 -309t140 -157.5t273 -47.5q133 0 218 24.5t140 85.5t77 157.5t22 246.5t-22 246.5t-77 157.5t-140 85.5t-218 24.5q-176 0 -273 -47.5t-140 -157.5t-43 -309zM526 1624v113q0 63 66 63h84q65 0 65 -63v-113q0 -61 -65 -61h-84q-66 0 -66 61zM995 1624v113 q0 63 68 63h84q65 0 65 -63v-113q0 -61 -65 -61h-84q-68 0 -68 61z" />
<glyph unicode="&#xd7;" horiz-adv-x="1263" d="M102 336l371 260l-371 258l125 143l410 -286l410 286l124 -143l-370 -258l370 -260l-124 -143l-410 286l-410 -286z" />
<glyph unicode="&#xd8;" horiz-adv-x="1742" d="M125 707q0 213 37.5 351.5t126.5 225t224.5 121.5t342.5 35q213 0 352 -39l95 155l114 -61l-86 -143q135 -74 195.5 -228.5t60.5 -416.5q0 -171 -24.5 -292.5t-76.5 -208t-139.5 -137t-206 -73.5t-284.5 -23q-207 0 -336 35l-90 -149l-117 63l80 133q-143 73 -205.5 228 t-62.5 424zM399 707q0 -169 29.5 -273t97.5 -160l557 918q-88 29 -227 29q-132 0 -217 -24.5t-140 -85.5t-77.5 -157.5t-22.5 -246.5zM645 215q78 -22 211 -22t218 24.5t140 85.5t77 157.5t22 246.5q0 162 -27.5 263.5t-89.5 157.5z" />
<glyph unicode="&#xd9;" horiz-adv-x="1726" d="M186 553v860h263v-860q0 -203 91 -281.5t322 -78.5q230 0 322 78.5t92 281.5v860h262v-860q0 -317 -150.5 -448.5t-513.5 -131.5q-255 0 -404 58t-216.5 183t-67.5 339zM401 1712l138 182l469 -301l-84 -110z" />
<glyph unicode="&#xda;" horiz-adv-x="1726" d="M186 553v860h263v-860q0 -203 91 -281.5t322 -78.5q230 0 322 78.5t92 281.5v860h262v-860q0 -317 -150.5 -448.5t-513.5 -131.5q-255 0 -404 58t-216.5 183t-67.5 339zM684 1593l469 301l137 -182l-522 -229z" />
<glyph unicode="&#xdb;" horiz-adv-x="1726" d="M186 553v860h263v-860q0 -203 91 -281.5t322 -78.5q230 0 322 78.5t92 281.5v860h262v-860q0 -317 -150.5 -448.5t-513.5 -131.5q-255 0 -404 58t-216.5 183t-67.5 339zM424 1583l348 270h184l351 -272l-84 -100l-346 196h-23l-350 -196z" />
<glyph unicode="&#xdc;" horiz-adv-x="1726" d="M186 553v860h263v-860q0 -203 91 -281.5t322 -78.5q230 0 322 78.5t92 281.5v860h262v-860q0 -317 -150.5 -448.5t-513.5 -131.5q-255 0 -404 58t-216.5 183t-67.5 339zM522 1624v113q0 63 66 63h84q65 0 65 -63v-113q0 -61 -65 -61h-84q-66 0 -66 61zM991 1624v113 q0 63 68 63h84q65 0 65 -63v-113q0 -61 -65 -61h-84q-68 0 -68 61z" />
<glyph unicode="&#xdd;" horiz-adv-x="1517" d="M23 1413h290l357 -573q47 -75 80 -170h20q29 87 80 170l350 573h295l-604 -944v-469h-262v469zM567 1593l469 301l138 -182l-523 -229z" />
<glyph unicode="&#xde;" horiz-adv-x="1542" d="M199 0v1413h262v-244q127 5 377 5q138 0 234 -13.5t168.5 -45t114 -85.5t61.5 -131.5t20 -187.5q0 -137 -29.5 -224.5t-99.5 -140.5t-173.5 -73.5t-265.5 -20.5q-226 0 -407 22v-274h-262zM461 463h370q196 0 268 50.5t72 197.5q0 150 -72 201t-268 51q-270 0 -370 -2 v-498z" />
<glyph unicode="&#xdf;" horiz-adv-x="1783" d="M61 821v183h232v122q0 90 27 154t74 104.5t125.5 64t168 32t213.5 8.5q330 0 467 -65.5t137 -229.5q0 -73 -48 -137.5t-173 -130.5q-35 -20 -78.5 -43.5t-64.5 -35t-42.5 -26.5t-29.5 -30t-8 -35q0 -38 32 -60.5t115 -56.5l262 -102q125 -49 177.5 -108t52.5 -163 q0 -163 -113 -226t-360 -63q-184 0 -428 23l16 178q193 -6 359 -6q57 0 88.5 1t68 4t53.5 9.5t33.5 18t22.5 29t6 42.5q0 46 -36.5 70.5t-135.5 61.5l-264 102q-94 37 -146.5 99.5t-52.5 140.5q0 23 4.5 43.5t16 39t22 33.5t32 32t35 27.5t43 27t43.5 24.5t49 26t48 25 q90 44 127 81t37 83q0 35 -29 56.5t-109 33.5t-219 12q-216 0 -290 -38.5t-74 -157.5v-1098h-254v821h-232z" />
<glyph unicode="&#xe0;" horiz-adv-x="1398" d="M104 268v103q0 120 96.5 186t268.5 66h524v61q-1 86 -52.5 114.5t-201.5 28.5q-221 0 -553 -20l-24 176q330 49 633 49q232 0 342 -78t110 -272v-682h-198l-31 168q-94 -77 -228.5 -134t-293.5 -57q-178 0 -285 76.5t-107 214.5zM229 1343l138 183l469 -301l-84 -111z M358 301q0 -64 47.5 -93.5t147.5 -29.5q102 0 221 33t219 100v142h-473q-86 -3 -124 -31.5t-38 -81.5v-39z" />
<glyph unicode="&#xe1;" horiz-adv-x="1398" d="M104 268v103q0 120 96.5 186t268.5 66h524v61q-1 86 -52.5 114.5t-201.5 28.5q-221 0 -553 -20l-24 176q330 49 633 49q232 0 342 -78t110 -272v-682h-198l-31 168q-94 -77 -228.5 -134t-293.5 -57q-178 0 -285 76.5t-107 214.5zM358 301q0 -64 47.5 -93.5t147.5 -29.5 q102 0 221 33t219 100v142h-473q-86 -3 -124 -31.5t-38 -81.5v-39zM514 1225l469 301l137 -183l-522 -229z" />
<glyph unicode="&#xe2;" horiz-adv-x="1398" d="M104 268v103q0 120 96.5 186t268.5 66h524v61q-1 86 -52.5 114.5t-201.5 28.5q-221 0 -553 -20l-24 176q330 49 633 49q232 0 342 -78t110 -272v-682h-198l-31 168q-94 -77 -228.5 -134t-293.5 -57q-178 0 -285 76.5t-107 214.5zM254 1214l348 271h184l351 -273l-84 -100 l-346 197h-23l-350 -197zM358 301q0 -64 47.5 -93.5t147.5 -29.5q102 0 221 33t219 100v142h-473q-86 -3 -124 -31.5t-38 -81.5v-39z" />
<glyph unicode="&#xe3;" horiz-adv-x="1398" d="M104 268v103q0 120 96.5 186t268.5 66h524v61q-1 86 -52.5 114.5t-201.5 28.5q-221 0 -553 -20l-24 176q330 49 633 49q232 0 342 -78t110 -272v-682h-198l-31 168q-94 -77 -228.5 -134t-293.5 -57q-178 0 -285 76.5t-107 214.5zM268 1188q-19 133 42.5 202.5t166.5 63.5 q87 -5 207.5 -50t189.5 -52q71 -7 98 14.5t27 77.5h117q18 -128 -41.5 -199t-167.5 -65q-97 5 -221 53t-180 53q-69 7 -96 -16.5t-27 -81.5h-115zM358 301q0 -64 47.5 -93.5t147.5 -29.5q102 0 221 33t219 100v142h-473q-86 -3 -124 -31.5t-38 -81.5v-39z" />
<glyph unicode="&#xe4;" horiz-adv-x="1398" d="M104 268v103q0 120 96.5 186t268.5 66h524v61q-1 86 -52.5 114.5t-201.5 28.5q-221 0 -553 -20l-24 176q330 49 633 49q232 0 342 -78t110 -272v-682h-198l-31 168q-94 -77 -228.5 -134t-293.5 -57q-178 0 -285 76.5t-107 214.5zM350 1255v113q0 64 66 64h84 q32 0 48.5 -17t16.5 -47v-113q0 -61 -65 -61h-84q-66 0 -66 61zM358 301q0 -64 47.5 -93.5t147.5 -29.5q102 0 221 33t219 100v142h-473q-86 -3 -124 -31.5t-38 -81.5v-39zM819 1255v113q0 30 17.5 47t50.5 17h84q32 0 48.5 -17t16.5 -47v-113q0 -61 -65 -61h-84 q-68 0 -68 61z" />
<glyph unicode="&#xe5;" horiz-adv-x="1398" d="M104 268v103q0 120 96.5 186t268.5 66h524v61q-1 86 -52.5 114.5t-201.5 28.5q-221 0 -553 -20l-24 176q330 49 633 49q232 0 342 -78t110 -272v-682h-198l-31 168q-94 -77 -228.5 -134t-293.5 -57q-178 0 -285 76.5t-107 214.5zM358 301q0 -64 47.5 -93.5t147.5 -29.5 q102 0 221 33t219 100v142h-473q-86 -3 -124 -31.5t-38 -81.5v-39zM408 1319q0 95 83.5 161t202.5 66t204 -66t85 -161q0 -97 -84 -162t-205 -65t-203.5 64.5t-82.5 162.5zM541 1319q0 -51 43.5 -81t109.5 -30q67 0 110.5 30t43.5 81q0 50 -44 80.5t-110 30.5 q-67 0 -110 -30.5t-43 -80.5z" />
<glyph unicode="&#xe6;" horiz-adv-x="2277" d="M113 268v103q0 119 96 185.5t268 66.5h522v61q0 86 -51 114.5t-200 28.5q-221 0 -553 -20l-25 176q330 49 633 49q258 0 362 -96q134 96 437 96q292 0 427.5 -87t137.5 -261q2 -139 -83.5 -213t-264.5 -74h-551q22 -131 108.5 -175t278.5 -44q204 0 456 25l23 -160 q-86 -35 -229.5 -51.5t-280.5 -16.5q-224 0 -359.5 51t-199.5 162q-40 -35 -92 -68t-123 -67.5t-162 -55t-184 -20.5q-177 0 -284 76.5t-107 214.5zM369 301q0 -64 46 -93.5t146 -29.5q105 0 228.5 34t226.5 103q-14 74 -17 136l-471 2q-86 -3 -122.5 -31t-36.5 -82v-39z M1262 571h489q90 0 126 34t36 83q-2 80 -70 114t-231 34q-191 0 -266 -54.5t-84 -210.5z" />
<glyph unicode="&#xe7;" horiz-adv-x="1275" d="M123 504q0 290 139.5 409t478.5 119q257 0 428 -57l-32 -156q-119 4 -351 4q-226 0 -311.5 -67t-85.5 -252q0 -187 86 -255.5t311 -68.5q204 0 381 21l25 -164q-186 -62 -451 -62q-340 0 -479 118.5t-139 410.5zM453 -508l36 121q107 -2 174 32t70 93q1 28 -30 36.5 t-128 8.5l25 108q174 16 243.5 -9.5t65.5 -123.5q-3 -95 -63 -160.5t-162 -92t-231 -13.5z" />
<glyph unicode="&#xe8;" horiz-adv-x="1380" d="M111 504q0 149 34 250t109 163t186 88.5t275 26.5q293 0 428 -87t137 -261q2 -139 -78 -213t-246 -74h-575q22 -131 109 -175t280 -44q205 0 453 25l24 -160q-84 -35 -228 -51.5t-282 -16.5q-339 0 -482.5 121.5t-143.5 407.5zM254 1343l137 183l469 -301l-84 -111z M375 571h514q135 0 135 117q-2 80 -69 114t-230 34q-191 0 -266 -54.5t-84 -210.5z" />
<glyph unicode="&#xe9;" horiz-adv-x="1380" d="M111 504q0 149 34 250t109 163t186 88.5t275 26.5q293 0 428 -87t137 -261q2 -139 -78 -213t-246 -74h-575q22 -131 109 -175t280 -44q205 0 453 25l24 -160q-84 -35 -228 -51.5t-282 -16.5q-339 0 -482.5 121.5t-143.5 407.5zM375 571h514q135 0 135 117q-2 80 -69 114 t-230 34q-191 0 -266 -54.5t-84 -210.5zM537 1225l469 301l137 -183l-522 -229z" />
<glyph unicode="&#xea;" horiz-adv-x="1380" d="M111 504q0 149 34 250t109 163t186 88.5t275 26.5q293 0 428 -87t137 -261q2 -139 -78 -213t-246 -74h-575q22 -131 109 -175t280 -44q205 0 453 25l24 -160q-84 -35 -228 -51.5t-282 -16.5q-339 0 -482.5 121.5t-143.5 407.5zM276 1214l349 271h184l350 -273l-84 -100 l-346 197h-22l-351 -197zM375 571h514q135 0 135 117q-2 80 -69 114t-230 34q-191 0 -266 -54.5t-84 -210.5z" />
<glyph unicode="&#xeb;" horiz-adv-x="1380" d="M111 504q0 149 34 250t109 163t186 88.5t275 26.5q293 0 428 -87t137 -261q2 -139 -78 -213t-246 -74h-575q22 -131 109 -175t280 -44q205 0 453 25l24 -160q-84 -35 -228 -51.5t-282 -16.5q-339 0 -482.5 121.5t-143.5 407.5zM375 571h514q135 0 135 117q-2 80 -69 114 t-230 34q-191 0 -266 -54.5t-84 -210.5zM375 1255v113q0 64 65 64h84q32 0 49 -17t17 -47v-113q0 -61 -66 -61h-84q-34 0 -49.5 14.5t-15.5 46.5zM844 1255v113q0 64 67 64h84q32 0 49 -17t17 -47v-113q0 -61 -66 -61h-84q-67 0 -67 61z" />
<glyph unicode="&#xec;" horiz-adv-x="628" d="M-150 1343l138 183l469 -301l-84 -111zM186 0v1004h254v-1004h-254z" />
<glyph unicode="&#xed;" horiz-adv-x="628" d="M133 1225l469 301l137 -183l-522 -229zM186 0v1004h254v-1004h-254z" />
<glyph unicode="&#xee;" horiz-adv-x="628" d="M-127 1214l348 271h185l350 -273l-84 -100l-346 197h-23l-350 -197zM186 0v1004h254v-1004h-254z" />
<glyph unicode="&#xef;" horiz-adv-x="628" d="M-29 1255v113q0 64 66 64h84q32 0 48.5 -17t16.5 -47v-113q0 -61 -65 -61h-84q-66 0 -66 61zM186 0v1004h254v-1004h-254zM440 1255v113q0 30 17.5 47t50.5 17h84q32 0 48.5 -17t16.5 -47v-113q0 -61 -65 -61h-84q-68 0 -68 61z" />
<glyph unicode="&#xf0;" horiz-adv-x="1458" d="M127 444q0 119 29 205.5t92.5 148.5t168.5 93t253 31q198 0 346 -66q-58 188 -205 289l-190 -123l-89 98l142 90q-150 52 -371 45l27 175q299 15 538 -95l213 138l86 -101l-170 -108q318 -229 318 -680q0 -123 -15.5 -214t-55.5 -169t-106.5 -126t-171 -75t-247.5 -27 q-304 0 -448 113t-144 358zM393 449q0 -153 76.5 -215t251.5 -62q86 0 145 17t95.5 46.5t56.5 84t26.5 115.5t6.5 155q0 36 -4 98q-153 35 -334 35q-178 0 -249 -64.5t-71 -209.5z" />
<glyph unicode="&#xf1;" horiz-adv-x="1470" d="M160 0v1004h213l16 -152q307 180 576 180q172 0 262 -71.5t90 -206.5v-754h-254v678q0 83 -39 113t-137 30q-99 0 -197 -28.5t-276 -98.5l2 -694h-256zM350 1188q-19 133 42.5 202.5t166.5 63.5q87 -5 207.5 -50t189.5 -52q71 -7 98 14.5t27 77.5h117q18 -128 -41.5 -199 t-167.5 -65q-97 5 -221 53t-180 53q-69 7 -96 -16.5t-27 -81.5h-115z" />
<glyph unicode="&#xf2;" horiz-adv-x="1452" d="M113 502q0 289 139.5 409.5t474.5 120.5q336 0 475 -120.5t139 -409.5t-139 -409t-475 -120q-335 0 -474.5 120t-139.5 409zM260 1343l137 183l469 -301l-84 -111zM375 502q0 -99 17 -161t59 -100.5t107.5 -53.5t168.5 -15q203 0 278.5 69t75.5 261q0 193 -75.5 262.5 t-278.5 69.5t-277.5 -69t-74.5 -263z" />
<glyph unicode="&#xf3;" horiz-adv-x="1452" d="M113 502q0 289 139.5 409.5t474.5 120.5q336 0 475 -120.5t139 -409.5t-139 -409t-475 -120q-335 0 -474.5 120t-139.5 409zM375 502q0 -99 17 -161t59 -100.5t107.5 -53.5t168.5 -15q203 0 278.5 69t75.5 261q0 193 -75.5 262.5t-278.5 69.5t-277.5 -69t-74.5 -263z M545 1225l469 301l137 -183l-522 -229z" />
<glyph unicode="&#xf4;" horiz-adv-x="1452" d="M113 502q0 289 139.5 409.5t474.5 120.5q336 0 475 -120.5t139 -409.5t-139 -409t-475 -120q-335 0 -474.5 120t-139.5 409zM285 1214l348 271h184l350 -273l-84 -100l-346 197h-22l-350 -197zM375 502q0 -99 17 -161t59 -100.5t107.5 -53.5t168.5 -15q203 0 278.5 69 t75.5 261q0 193 -75.5 262.5t-278.5 69.5t-277.5 -69t-74.5 -263z" />
<glyph unicode="&#xf5;" horiz-adv-x="1452" d="M113 502q0 289 139.5 409.5t474.5 120.5q336 0 475 -120.5t139 -409.5t-139 -409t-475 -120q-335 0 -474.5 120t-139.5 409zM299 1188q-19 133 42.5 202.5t166.5 63.5q87 -5 207.5 -50t189.5 -52q71 -7 98 14.5t27 77.5h117q18 -128 -41.5 -199t-167.5 -65q-97 5 -221 53 t-180 53q-69 7 -96 -16.5t-27 -81.5h-115zM375 502q0 -99 17 -161t59 -100.5t107.5 -53.5t168.5 -15q203 0 278.5 69t75.5 261q0 193 -75.5 262.5t-278.5 69.5t-277.5 -69t-74.5 -263z" />
<glyph unicode="&#xf6;" horiz-adv-x="1452" d="M113 502q0 289 139.5 409.5t474.5 120.5q336 0 475 -120.5t139 -409.5t-139 -409t-475 -120q-335 0 -474.5 120t-139.5 409zM375 502q0 -99 17 -161t59 -100.5t107.5 -53.5t168.5 -15q203 0 278.5 69t75.5 261q0 193 -75.5 262.5t-278.5 69.5t-277.5 -69t-74.5 -263z M381 1255v113q0 64 65 64h84q32 0 49 -17t17 -47v-113q0 -61 -66 -61h-84q-34 0 -49.5 14.5t-15.5 46.5zM850 1255v113q0 30 17.5 47t50.5 17h83q32 0 49 -17t17 -47v-113q0 -61 -66 -61h-83q-68 0 -68 61z" />
<glyph unicode="&#xf7;" horiz-adv-x="1468" d="M150 512v180h1167v-180h-1167zM604 188v82q0 51 20 70.5t72 19.5h66q53 0 73.5 -19.5t20.5 -70.5v-82q0 -51 -20.5 -70.5t-73.5 -19.5h-66q-52 0 -72 19.5t-20 70.5zM604 930v84q0 51 20 70.5t72 19.5h66q53 0 73.5 -19.5t20.5 -70.5v-84q0 -51 -20.5 -69.5t-73.5 -18.5 h-66q-53 0 -72.5 18.5t-19.5 69.5z" />
<glyph unicode="&#xf8;" horiz-adv-x="1482" d="M100 502q0 289 140 409.5t475 120.5q151 0 254 -20l100 170l102 -58l-88 -147q129 -55 187.5 -169.5t58.5 -305.5q0 -289 -139 -409t-475 -120q-121 0 -215 15l-92 -156l-103 57l76 127q-148 51 -214.5 167t-66.5 319zM362 502q0 -126 30 -195.5t100 -101.5l366 618 q-56 11 -143 11q-203 0 -278 -69.5t-75 -262.5zM610 176q62 -4 105 -4q203 0 278.5 69t75.5 261q0 112 -23.5 178.5t-76.5 101.5z" />
<glyph unicode="&#xf9;" horiz-adv-x="1476" d="M170 252v752h254v-678q-1 -79 42.5 -110.5t149.5 -31.5q92 0 189.5 27t241.5 88v705h251v-1004h-200l-21 139q-281 -166 -553 -166q-174 0 -264 70.5t-90 208.5zM281 1356l137 182l469 -301l-84 -111z" />
<glyph unicode="&#xfa;" horiz-adv-x="1476" d="M170 252v752h254v-678q-1 -79 42.5 -110.5t149.5 -31.5q92 0 189.5 27t241.5 88v705h251v-1004h-200l-21 139q-281 -166 -553 -166q-174 0 -264 70.5t-90 208.5zM563 1237l469 301l137 -182l-522 -230z" />
<glyph unicode="&#xfb;" horiz-adv-x="1476" d="M170 252v752h254v-678q-1 -79 42.5 -110.5t149.5 -31.5q92 0 189.5 27t241.5 88v705h251v-1004h-200l-21 139q-281 -166 -553 -166q-174 0 -264 70.5t-90 208.5zM303 1225l348 270h185l350 -272l-84 -101l-346 197h-23l-350 -197z" />
<glyph unicode="&#xfc;" horiz-adv-x="1476" d="M170 252v752h254v-678q-1 -79 42.5 -110.5t149.5 -31.5q92 0 189.5 27t241.5 88v705h251v-1004h-200l-21 139q-281 -166 -553 -166q-174 0 -264 70.5t-90 208.5zM401 1268v112q0 64 66 64h84q32 0 48.5 -17t16.5 -47v-112q0 -62 -65 -62h-84q-66 0 -66 62zM870 1268v112 q0 30 17.5 47t50.5 17h84q32 0 48.5 -17t16.5 -47v-112q0 -62 -65 -62h-84q-68 0 -68 62z" />
<glyph unicode="&#xfd;" horiz-adv-x="1404" d="M41 1004h274l314 -691q6 -15 18 -42t21 -49t14 -42h37l59 133l316 691h272l-500 -1035q-191 -404 -598 -385l-22 158q156 34 244.5 89t132.5 146l10 23h-47q-62 0 -88 61zM530 1225l469 301l138 -183l-523 -229z" />
<glyph unicode="&#xfe;" horiz-adv-x="1474" d="M178 -399v1833h254v-306q0 -143 -12 -237q226 137 479 137q250 0 357.5 -128t107.5 -406q0 -149 -27 -249t-87 -160.5t-147 -86t-214 -25.5q-251 0 -465 93q8 -88 8 -201v-264h-254zM432 229q243 -63 373 -63q84 0 138 15t91 52.5t52.5 100.5t15.5 160q0 131 -30.5 203.5 t-90.5 100t-166 27.5q-88 0 -178 -27.5t-205 -82.5v-486z" />
<glyph unicode="&#xff;" horiz-adv-x="1404" d="M41 1004h274l314 -691q6 -15 18 -42t21 -49t14 -42h37l59 133l316 691h272l-500 -1035q-191 -404 -598 -385l-22 158q156 34 244.5 89t132.5 146l10 23h-47q-62 0 -88 61zM369 1255v113q0 64 65 64h84q32 0 49 -17t17 -47v-113q0 -61 -66 -61h-84q-34 0 -49.5 14.5 t-15.5 46.5zM838 1255v113q0 64 67 64h84q32 0 49 -17t17 -47v-113q0 -61 -66 -61h-84q-67 0 -67 61z" />
<glyph unicode="&#x152;" horiz-adv-x="2400" d="M139 707q0 171 24.5 292t76 207.5t139.5 137t205.5 73.5t283.5 23q141 0 238.5 -14.5t214.5 -49.5q80 41 184 41q539 0 779 -16l-11 -197h-676q-91 0 -130.5 -27t-39.5 -92v-245h744v-199h-744v-315q0 -65 39.5 -92t130.5 -27h676l11 -195q-246 -16 -795 -16 q-105 0 -184 45q-107 -37 -203 -52.5t-234 -15.5t-241.5 15t-186.5 50.5t-139 91t-92.5 138t-53 190t-16.5 249.5zM416 707q0 -150 22 -246.5t75.5 -157.5t138 -85.5t216.5 -24.5q177 0 303 24q-8 31 -8 72v835q0 24 8 74q-161 23 -303 23q-132 0 -216 -24t-138.5 -84.5 t-76 -157t-21.5 -248.5z" />
<glyph unicode="&#x153;" horiz-adv-x="2373" d="M125 502q0 289 139 409.5t477 120.5q343 0 482 -125q134 123 458 123q297 0 437.5 -84.5t142.5 -238.5q1 -170 -92 -234.5t-320 -64.5h-487q11 -72 37 -117t75.5 -70t113 -34t163.5 -9q205 0 453 25l24 -160q-86 -35 -230 -51.5t-282 -16.5q-346 0 -487 127 q-140 -129 -488 -129q-338 0 -477 120t-139 409zM391 502q0 -192 74 -261t276 -69q192 0 270 60.5t85 224.5l-2 51v45q-7 162 -84.5 221.5t-266.5 59.5q-204 0 -278 -69t-74 -263zM1358 573h469q105 0 145.5 30.5t34.5 107.5q-6 64 -81 93.5t-236 29.5q-180 0 -251.5 -54.5 t-80.5 -206.5z" />
<glyph unicode="&#x178;" horiz-adv-x="1517" d="M23 1413h290l357 -573q47 -75 80 -170h20q29 87 80 170l350 573h295l-604 -944v-469h-262v469zM403 1624v113q0 63 66 63h84q65 0 65 -63v-113q0 -61 -65 -61h-84q-66 0 -66 61zM872 1624v113q0 63 68 63h84q32 0 49 -16.5t17 -46.5v-113q0 -61 -66 -61h-84q-68 0 -68 61 z" />
<glyph unicode="&#x2c6;" horiz-adv-x="1097" d="M111 1202l348 271h184l350 -273l-84 -100l-346 196h-22l-351 -196z" />
<glyph unicode="&#x2dc;" horiz-adv-x="1091" d="M121 1182q-19 133 42.5 202.5t166.5 63.5q87 -5 207.5 -50t189.5 -52q71 -7 98 14.5t27 77.5h117q18 -128 -41.5 -199t-167.5 -65q-97 5 -221.5 53t-180.5 53q-69 7 -95.5 -16.5t-26.5 -81.5h-115z" />
<glyph unicode="&#x2000;" horiz-adv-x="964" />
<glyph unicode="&#x2001;" horiz-adv-x="1929" />
<glyph unicode="&#x2002;" horiz-adv-x="964" />
<glyph unicode="&#x2003;" horiz-adv-x="1929" />
<glyph unicode="&#x2004;" horiz-adv-x="643" />
<glyph unicode="&#x2005;" horiz-adv-x="482" />
<glyph unicode="&#x2006;" horiz-adv-x="321" />
<glyph unicode="&#x2007;" horiz-adv-x="321" />
<glyph unicode="&#x2008;" horiz-adv-x="241" />
<glyph unicode="&#x2009;" horiz-adv-x="385" />
<glyph unicode="&#x200a;" horiz-adv-x="107" />
<glyph unicode="&#x2010;" horiz-adv-x="1132" d="M166 432v176h803v-176h-803z" />
<glyph unicode="&#x2011;" horiz-adv-x="1132" d="M166 432v176h803v-176h-803z" />
<glyph unicode="&#x2012;" horiz-adv-x="1132" d="M166 432v176h803v-176h-803z" />
<glyph unicode="&#x2013;" horiz-adv-x="1513" d="M166 432v176h1184v-176h-1184z" />
<glyph unicode="&#x2014;" horiz-adv-x="2312" d="M166 432v176h1982v-176h-1982z" />
<glyph unicode="&#x2018;" horiz-adv-x="540" d="M160 1051v118q3 177 98 318l115 -29q-29 -113 -29 -231q34 0 53 -19t19 -53l-2 -104q-1 -44 -23 -62t-72 -18h-69q-51 0 -70.5 17.5t-19.5 62.5z" />
<glyph unicode="&#x2019;" horiz-adv-x="534" d="M123 1288l2 105q1 44 22.5 62t71.5 18h70q51 0 70.5 -17.5t19.5 -62.5v-119q-3 -177 -98 -318l-115 29q29 113 29 232q-34 0 -53 18.5t-19 52.5z" />
<glyph unicode="&#x201a;" horiz-adv-x="569" d="M152 78l2 115q1 49 22.5 68.5t71.5 19.5h67q51 0 71 -19.5t20 -68.5v-132q-3 -193 -99 -348l-112 31q25 107 28 256q-34 0 -52.5 20.5t-18.5 57.5z" />
<glyph unicode="&#x201c;" horiz-adv-x="956" d="M162 1051v118q3 176 96 318l115 -29q-29 -110 -29 -231q33 0 52.5 -19.5t19.5 -52.5l-2 -104q-3 -44 -24 -62t-71 -18h-69q-49 0 -68.5 18t-19.5 62zM551 1051v118q3 176 96 318l115 -29q-29 -110 -29 -231q33 0 51.5 -19.5t20.5 -52.5l-4 -104q-2 -44 -22.5 -62 t-71.5 -18h-68q-49 0 -68.5 18t-19.5 62z" />
<glyph unicode="&#x201d;" horiz-adv-x="950" d="M123 1288l2 105q1 44 22.5 62t71.5 18h70q51 0 70.5 -17.5t19.5 -62.5v-119q-3 -177 -98 -318l-115 29q29 113 29 232q-34 0 -53 18.5t-19 52.5zM539 1288l2 105q1 44 22.5 62t71.5 18h70q51 0 70.5 -17.5t19.5 -62.5v-119q-3 -176 -99 -318l-114 29q25 97 28 232 q-34 0 -52.5 18.5t-18.5 52.5z" />
<glyph unicode="&#x201e;" horiz-adv-x="983" d="M156 74l2 112q1 49 22.5 68.5t71.5 19.5h70q50 0 69 -19t19 -69v-129q-3 -189 -97 -346l-114 33q28 118 28 252q-34 0 -52.5 20.5t-18.5 57.5zM573 74l2 112q1 49 23 68.5t72 19.5h67q51 0 70.5 -19t19.5 -69v-129q-3 -193 -98 -346l-113 33q27 126 27 252 q-32 0 -51 20.5t-19 57.5z" />
<glyph unicode="&#x2022;" horiz-adv-x="915" d="M207 539v28q0 108 51.5 150.5t185.5 42.5h35q127 0 177.5 -43t50.5 -150v-28q0 -115 -50 -159t-178 -44h-35q-135 0 -186 43.5t-51 159.5z" />
<glyph unicode="&#x2026;" horiz-adv-x="806" d="M154 88v105q0 49 20.5 68.5t73.5 19.5h78h18h18h80h19h18h80q51 0 71.5 -19.5t20.5 -68.5v-105q0 -49 -20.5 -68.5t-71.5 -19.5h-80h-18h-19h-80h-18h-18h-78q-53 0 -73.5 19.5t-20.5 68.5z" />
<glyph unicode="&#x202f;" horiz-adv-x="385" />
<glyph unicode="&#x2039;" horiz-adv-x="743" d="M84 487v54l424 405l131 -84l-324 -348l328 -356l-133 -84z" />
<glyph unicode="&#x203a;" horiz-adv-x="747" d="M100 158l326 356l-324 348l134 84l426 -405v-54l-429 -413z" />
<glyph unicode="&#x205f;" horiz-adv-x="482" />
<glyph unicode="&#x20ac;" horiz-adv-x="1662" d="M119 516v141h211v50q0 48 2 71h-211v144h223q42 265 213 390.5t514 125.5q234 0 442 -45l-28 -195q-237 28 -430 16q-188 -9 -290.5 -79t-137.5 -213h653l-18 -144h-656q-2 -25 -2 -76v-45h578l-21 -141h-540q31 -157 133.5 -232.5t300.5 -82.5q261 -10 463 20l28 -192 q-218 -54 -475 -54q-350 0 -521.5 132t-207.5 409h-223z" />
<glyph unicode="&#x2122;" horiz-adv-x="2519" d="M154 1284v141h864v-141h-340v-637h-182v637h-342zM1145 647l39 713q3 65 67 65h185q55 0 71 -55l187 -393q9 -20 22 -61.5t17 -51.5h26q8 19 20.5 57.5t20.5 57.5l182 391q15 55 72 55h187q66 0 69 -65l39 -713h-166l-41 645h-28l-230 -485q-15 -55 -74 -55h-129 q-59 0 -75 55l-228 485h-28l-39 -645h-166z" />
<glyph unicode="&#x25fc;" horiz-adv-x="1003" d="M0 0v1004h1004v-1004h-1004z" />
<glyph unicode="&#xfb03;" horiz-adv-x="2435" d="M63 823v170l230 11v145q0 144 95 223.5t288 79.5q216 0 334 -18l-23 -177h-223q-125 0 -172 -28.5t-47 -112.5v-112h633v165q0 147 90 225.5t295 78.5q176 0 290 -19l-16 -176h-186q-122 0 -171.5 -32t-49.5 -109v-133h833v-1004h-250v823h-583v-823h-252v823h-633v-823 h-252v823h-230zM2003 1260v110q0 34 20 53t56 19h119q75 0 75 -72v-110q0 -72 -75 -72h-119q-76 0 -76 72z" />
<glyph unicode="&#xfb04;" horiz-adv-x="2670" d="M63 823v170l232 11v145q0 144 95 223.5t288 79.5q213 0 334 -18l-23 -177h-223q-125 0 -172 -28.5t-47 -112.5v-112h633v139q0 161 89.5 245.5t293.5 84.5q573 0 768 -33v-1153q0 -115 168 -115h120l29 -160q-35 -16 -112.5 -25.5t-133.5 -9.5q-151 0 -238 66.5 t-87 183.5v1053h-426q-121 1 -170 -36.5t-49 -131.5v-108h383v-181h-383v-823h-252v823h-633v-823h-252v823h-232z" />
</font>
</defs>
</svg>
