<?xml version="1.0" standalone="no"?>
<!DOCTYPE svg PUBLIC "-//W3C//DTD SVG 1.1//EN" "http://www.w3.org/Graphics/SVG/1.1/DTD/svg11.dtd" >
<svg xmlns="http://www.w3.org/2000/svg">
<metadata></metadata>
<defs>
<font id="exo_2regular_expanded" horiz-adv-x="1617" >
<font-face units-per-em="2048" ascent="1638" descent="-410" />
<missing-glyph horiz-adv-x="595" />
<glyph unicode="&#xfb01;" horiz-adv-x="1480" d="M72 860v127l231 10v179q0 145 85 218.5t278 73.5q168 0 274 -14l-14 -129h-199q-136 0 -192 -38.5t-56 -129.5v-160h813v-997h-174v860h-639v-860h-176v860h-231zM1108 1251v117q0 53 57 53h82q56 0 56 -53v-117q0 -53 -56 -53h-82q-57 0 -57 53z" />
<glyph unicode="&#xfb02;" horiz-adv-x="1716" d="M72 860v127l231 10v158q0 157 84 235t279 78q529 0 688 -24v-1190q0 -135 184 -135h135l21 -111q-31 -12 -97 -19t-118 -7q-139 0 -220 62t-81 171v1112h-453q-135 1 -190.5 -41.5t-55.5 -148.5v-140h406v-137h-406v-860h-176v860h-231z" />
<glyph horiz-adv-x="0" />
<glyph horiz-adv-x="682" />
<glyph unicode=" "  horiz-adv-x="595" />
<glyph unicode="&#x09;" horiz-adv-x="595" />
<glyph unicode="&#xa0;" horiz-adv-x="595" />
<glyph unicode="!" horiz-adv-x="655" d="M238 66v110q0 37 15 51.5t52 14.5h47q37 0 53.5 -15t16.5 -51v-110q0 -36 -16.5 -51t-53.5 -15h-47q-37 0 -52 14.5t-15 51.5zM240 797v626h176v-626l-19 -365h-139z" />
<glyph unicode="&#x22;" horiz-adv-x="874" d="M180 1413h148l-13 -440h-125zM547 1413h147l-12 -440h-123z" />
<glyph unicode="#" horiz-adv-x="1773" d="M117 436l22 113h307l84 369h-303l25 112h303l86 383h145l-86 -383h519l86 383h145l-86 -383h291l-23 -112h-293l-84 -369h287l-20 -113h-291l-98 -436h-144l98 436h-522l-98 -436h-143l98 436h-305zM592 549h520l82 369h-518z" />
<glyph unicode="$" horiz-adv-x="1458" d="M145 1065q0 82 15 142t49 101.5t78 67t114.5 39t144.5 18.5t181 5h31l18 198h101l-19 -202q223 -7 395 -37l-12 -131q-225 7 -395 10l-43 -490l155 -28q202 -39 285.5 -134t83.5 -264q0 -81 -15 -141.5t-49 -103t-80 -70t-116.5 -43t-148 -21.5t-185.5 -6h-14l-21 -235 h-100l20 237q-225 4 -446 37l14 138q83 -2 178 -4t157 -3.5t114 -1.5l43 496l-172 33q-192 37 -276.5 132.5t-84.5 260.5zM328 1061q0 -112 55.5 -160t194.5 -72l127 -24l40 471h-12q-51 0 -81.5 -0.5t-70.5 -2t-62.5 -4.5t-51.5 -8.5t-44.5 -13.5t-34 -20t-27.5 -27.5 t-18 -36t-12 -46t-3 -56.5zM735 143h2q96 0 159 5t114 18.5t78 39t41 64t14 95.5q0 61 -13.5 101t-47 65.5t-76.5 39.5t-115 27l-113 23z" />
<glyph unicode="%" horiz-adv-x="2330" d="M123 1020q0 228 93 324t323 96q231 0 324 -96t93 -324q0 -227 -93 -323.5t-324 -96.5q-229 0 -322.5 96.5t-93.5 323.5zM262 1020q0 -173 60 -241t217 -68t217.5 68t60.5 241q0 172 -60.5 240.5t-217.5 68.5t-217 -68.5t-60 -240.5zM492 0l1210 1413h131l-1212 -1413 h-129zM1374 401q0 226 93.5 322t324.5 96q229 0 321.5 -96t92.5 -322q0 -228 -92.5 -323.5t-321.5 -95.5q-231 0 -324.5 95.5t-93.5 323.5zM1513 401q0 -174 60 -242.5t217 -68.5t217.5 68.5t60.5 242.5q0 173 -60.5 240.5t-217.5 67.5t-217 -67.5t-60 -240.5z" />
<glyph unicode="&#x26;" horiz-adv-x="2019" d="M168 358q0 170 83 264t277 107v8q-166 12 -236.5 92.5t-70.5 237.5q0 70 13.5 123.5t38 92.5t68.5 66t94 44t127 26t155 12t190 3q235 0 422 -21l-22 -133q-95 6 -404 6q-100 0 -167.5 -3.5t-127.5 -13t-95 -26t-61 -44.5t-36 -66t-10 -91q0 -142 83 -191.5t306 -49.5 h532l19 262h143v-262h346l-4 -137h-342v-396q0 -71 43.5 -102t138.5 -31h209l18 -127q-113 -26 -262 -26q-134 0 -212 46.5t-95 133.5q-121 -100 -267 -141t-364 -41q-288 0 -409 83.5t-121 294.5zM358 387q0 -144 81 -198t296 -54q197 0 337 40.5t251 125.5v363h-537 q-240 0 -334 -59t-94 -218z" />
<glyph unicode="'" horiz-adv-x="505" d="M180 1413h148l-13 -440h-125z" />
<glyph unicode="(" horiz-adv-x="921" d="M139 639q0 398 164 635.5t512 343.5l23 -84q-271 -99 -398 -319.5t-127 -573.5q0 -347 127.5 -569t397.5 -326l-23 -84q-348 107 -512 344.5t-164 632.5z" />
<glyph unicode=")" horiz-adv-x="921" d="M86 -254q270 104 396 325.5t126 569.5q0 354 -126 574.5t-396 318.5l23 84q348 -106 511.5 -343.5t163.5 -635.5q0 -395 -163.5 -632.5t-511.5 -344.5z" />
<glyph unicode="*" horiz-adv-x="1161" d="M141 1130l37 101l318 -94l-2 -45l-23 -29zM279 823l262 262l-19 330h117l-21 -330l261 -264l-88 -61l-211 252l-207 -250zM666 1092v45l319 94l37 -103l-332 -65z" />
<glyph unicode="+" horiz-adv-x="1429" d="M143 547v131h500v360h139v-360h502v-131h-502v-363h-137v363h-502z" />
<glyph unicode="," horiz-adv-x="546" d="M178 57l2 119q0 36 16.5 51t53.5 15h51q37 0 52.5 -15t15.5 -51v-131q-3 -170 -80 -315l-82 24q20 120 20 246q-23 0 -36.5 15.5t-12.5 41.5z" />
<glyph unicode="-" horiz-adv-x="1175" d="M182 451v133h811v-133h-811z" />
<glyph unicode="." horiz-adv-x="546" d="M176 66v110q0 36 15.5 51t52.5 15h59q37 0 52.5 -15t15.5 -51v-110q0 -36 -15.5 -51t-52.5 -15h-59q-37 0 -52.5 15t-15.5 51z" />
<glyph unicode="/" horiz-adv-x="1333" d="M74 -135l1040 1548h148l-1041 -1548h-147z" />
<glyph unicode="0" horiz-adv-x="1544" d="M162 707q0 198 31 333t103 226.5t188 132.5t288 41t288 -41t188 -132.5t103 -226.5t31 -333t-31 -333t-103 -226.5t-188 -133t-288 -41.5t-288 41.5t-188 133t-103 226.5t-31 333zM340 707q0 -317 95 -446.5t337 -129.5q124 0 206 30.5t133 101.5t72 177t21 267t-21 267 t-72 176.5t-133 101t-206 30.5q-242 0 -337 -129t-95 -446z" />
<glyph unicode="1" horiz-adv-x="999" d="M63 1268l478 145h180v-1413h-180v1120q0 74 12 123l-463 -108z" />
<glyph unicode="2" horiz-adv-x="1454" d="M137 0v113q0 44 29 77l563 463q180 151 260 261t76 210q-2 40 -20.5 68.5t-48 45t-79.5 25.5t-101 12t-126 3q-264 0 -520 -33l-16 139q300 54 544 54q110 0 190 -7t152 -26.5t116 -53.5t69.5 -88t25.5 -130q0 -137 -75 -261.5t-256 -275.5l-521 -430q117 8 263 8h659 v-174h-1184z" />
<glyph unicode="3" horiz-adv-x="1449" d="M145 10l17 146q298 -21 510 -21q233 0 331.5 62t98.5 215q0 50 -9 87t-34.5 71t-68.5 55.5t-113 34t-166 12.5h-338v141h338q92 1 157.5 16t102 37.5t56.5 58.5t25.5 68.5t4.5 77.5q-1 54 -15 90t-41 60t-77 36.5t-112 17.5t-159 5q-214 0 -460 -16l-19 139 q260 37 500 37q306 0 431.5 -71.5t125.5 -256.5q0 -149 -62 -241t-213 -115v-8q90 -11 153.5 -40.5t100 -76.5t53.5 -104t19 -134q5 -220 -125 -320t-444 -100q-239 0 -568 37z" />
<glyph unicode="4" horiz-adv-x="1583" d="M123 565l541 848h182l-537 -835q-22 -41 -2 -62.5t72 -21.5h694v415l35 234h137v-649h230v-129l-230 -17v-348h-172v346h-792q-102 0 -152 70.5t-6 148.5z" />
<glyph unicode="5" horiz-adv-x="1406" d="M158 27l24 145q261 -37 463 -37q110 0 188 12.5t126 35t76 60t38.5 79.5t11.5 102q1 40 -3.5 71.5t-19 58t-28 46t-45.5 35.5t-56 27t-75.5 20t-88 14t-108.5 10.5t-122 8t-144 6.5l-94 6q-34 3 -54.5 25.5t-19.5 54.5l41 606h942l-10 -153h-782l-27 -386l178 -12 q190 -10 317.5 -36.5t214 -78t125 -130t38.5 -193.5q0 -53 -5.5 -97t-22 -91t-43 -84t-71.5 -71.5t-104.5 -56.5t-144 -35.5t-189.5 -13.5q-239 0 -526 52z" />
<glyph unicode="6" horiz-adv-x="1474" d="M168 672q0 125 9.5 224t31.5 176t51.5 134t75 98t96 67t121 41t143.5 20.5t170 5.5q212 0 353 -31l-23 -131q-113 8 -330 8q-98 0 -166 -7.5t-128.5 -28.5t-97.5 -57.5t-65.5 -96t-41.5 -142.5t-17 -198q102 95 210.5 131.5t273.5 36.5q145 0 240 -24t154 -81t83 -142.5 t24 -217.5q0 -95 -12 -163t-48 -131.5t-98 -102.5t-164 -62t-245 -23q-129 0 -220.5 14t-160 49t-109.5 84.5t-66.5 132t-34.5 179.5t-9 238zM348 631q0 -77 3 -131.5t11 -108t21.5 -88t36 -66.5t53 -50.5t74 -32.5t98 -19.5t125.5 -5.5q102 0 172.5 14.5t113 39.5 t65.5 68.5t30.5 89.5t7.5 116q0 90 -16 148t-58 97.5t-112.5 56.5t-181.5 17q-128 0 -226 -31t-217 -114z" />
<glyph unicode="7" horiz-adv-x="1323" d="M94 1413h1028q75 0 101.5 -32t3.5 -91l-580 -1290h-182l532 1155q19 51 52 105h-947z" />
<glyph unicode="8" horiz-adv-x="1570" d="M176 352q0 175 69 269.5t232 107.5v8q-262 23 -262 324q0 81 16 138.5t54 104t103.5 74t163.5 42t234 14.5q137 0 235 -14.5t163 -42t103 -74t53.5 -104t15.5 -138.5q0 -301 -260 -324v-8q163 -13 231 -107.5t68 -269.5q0 -102 -25.5 -167.5t-93.5 -113t-186.5 -69 t-303.5 -22.5q-181 -1 -299.5 20t-187.5 69t-96 115t-27 168zM348 389q0 -99 36.5 -151.5t131 -77.5t272.5 -25t271 25t127.5 77.5t34.5 151.5q0 58 -7.5 98t-27 71.5t-49.5 50.5t-80 31.5t-113 17t-153 4.5q-111 -1 -184 -8.5t-126 -25t-80.5 -50t-40 -77t-12.5 -112.5z M383 1044q0 -50 7 -85.5t26 -63t47.5 -44t76 -27.5t107 -15t144.5 -4q104 0 171 7t113.5 22t70 44.5t33 67.5t9.5 98q0 72 -16 116t-60.5 74.5t-121.5 42t-202 11.5q-166 0 -252.5 -23.5t-119.5 -74t-33 -146.5z" />
<glyph unicode="9" horiz-adv-x="1474" d="M139 952q0 125 28 213t94 151t176.5 92.5t271.5 29.5q100 0 176.5 -8t137.5 -28t103.5 -46t74 -71.5t50 -95t29.5 -125.5t14.5 -153.5t3.5 -187.5q-1 -159 -17.5 -275.5t-54.5 -200t-90 -136t-134.5 -83t-175.5 -42t-224 -11.5q-219 0 -375 31l21 133q121 -8 354 -8 q146 0 237 21.5t155.5 81.5t92.5 162.5t33 267.5q-106 -97 -215 -134.5t-274 -37.5q-492 0 -492 460zM313 952q0 -80 17 -136.5t57.5 -98.5t112 -62t176.5 -20q127 0 225 32t219 115q-1 109 -5 173t-18 128t-40 96t-73 59.5t-113.5 36.5t-163.5 9q-120 0 -198.5 -21 t-121 -66t-58.5 -102.5t-16 -142.5z" />
<glyph unicode=":" horiz-adv-x="540" d="M158 66v110q0 37 15 51.5t52 14.5h60q37 0 52 -14.5t15 -51.5v-110q0 -37 -15 -51.5t-52 -14.5h-60q-37 0 -52 14.5t-15 51.5zM158 725v113q0 35 15 49t52 14h60q37 0 52 -14t15 -49v-113q0 -37 -15 -51.5t-52 -14.5h-60q-37 0 -52 14.5t-15 51.5z" />
<glyph unicode=";" horiz-adv-x="563" d="M166 725v113q0 35 15 49t52 14h60q37 0 53 -14t16 -49v-113q0 -36 -16 -51t-53 -15h-60q-37 0 -52 14.5t-15 51.5zM168 57l4 119q0 36 16 51t52 15h53q37 0 51 -14.5t16 -51.5l-2 -131q-3 -176 -77 -315l-84 24q22 115 22 246q-23 0 -37 15.5t-14 41.5z" />
<glyph unicode="&#x3c;" horiz-adv-x="1378" d="M135 541v139l1065 356v-139l-909 -287l909 -280v-140z" />
<glyph unicode="=" horiz-adv-x="1511" d="M186 317v132h1143v-132h-1143zM186 752v129h1143v-129h-1143z" />
<glyph unicode="&#x3e;" horiz-adv-x="1378" d="M178 190v140l909 280l-909 287v139l1065 -356v-139z" />
<glyph unicode="?" horiz-adv-x="1314" d="M102 1415q19 3 70 10t68.5 9.5t61.5 7.5t73.5 7t77 4.5t100 3.5t117.5 1q532 0 532 -317q0 -62 -26.5 -116.5t-69 -96.5t-94 -82.5t-103 -83t-95 -88.5t-71.5 -108t-30 -134h-154q-1 77 23 144.5t64 117t88.5 93.5t97.5 82t89.5 74t67 79t27.5 88q3 103 -88.5 152 t-288.5 49q-64 0 -119.5 -1t-92 -2t-84.5 -3.5t-70 -4t-77.5 -5t-80.5 -5.5zM543 66v110q0 37 15 51.5t52 14.5h49q37 0 52.5 -15t15.5 -51v-110q0 -36 -15.5 -51t-52.5 -15h-49q-37 0 -52 14.5t-15 51.5z" />
<glyph unicode="@" horiz-adv-x="1839" d="M193 545q0 116 3.5 193t18 149.5t34 115.5t59.5 81.5t87.5 57t125 33t164 18.5t212.5 5h379q187 0 284 -69t97 -222v-637h-131l-19 154q-83 -65 -239 -117.5t-314 -52.5t-249 62.5t-91 181.5v104q0 100 78.5 155.5t225.5 55.5h575v88q0 83 -54 117.5t-194 34.5h-346 q-136 0 -206.5 -3t-142.5 -21.5t-100.5 -47t-54 -90t-30.5 -139.5t-5 -207q0 -101 2.5 -167t17.5 -125t28.5 -92.5t54.5 -61.5t75 -39.5t111.5 -20t142.5 -9.5t187 -1h670v-131q-376 -17 -668 -17q-112 -1 -194.5 1t-159.5 10t-129.5 18.5t-100 32.5t-76.5 46.5t-54.5 66 t-38 85t-21.5 109t-11.5 133t-2.5 162.5zM778 528q0 -72 51 -103.5t154 -31.5q128 0 271.5 36.5t238.5 98.5v179l-522 -9q-101 -3 -147 -30t-46 -86v-54z" />
<glyph unicode="A" d="M29 0l608 1364q16 49 70 49h204q25 0 45 -13t27 -36l608 -1364h-188l-195 442h-798l-195 -442h-186zM477 598h664l-246 561l-49 115h-74q-28 -64 -47 -115z" />
<glyph unicode="B" horiz-adv-x="1593" d="M219 0v1413q214 17 569 17q172 0 281.5 -16.5t183.5 -59t105 -113t31 -180.5q0 -154 -73.5 -233t-234.5 -91v-8q195 -13 279 -107t84 -270q0 -110 -30.5 -180.5t-102.5 -112.5t-176.5 -58.5t-266.5 -16.5q-419 0 -649 16zM397 139q111 -2 447 -2q240 0 329 49.5t89 196.5 q0 161 -95 219.5t-344 61.5h-426v-525zM397 801h426q112 1 182.5 11.5t119 37.5t68 72.5t19.5 117.5q0 59 -14.5 99t-44 67.5t-83 42.5t-121.5 21t-169 6h-383v-475z" />
<glyph unicode="C" horiz-adv-x="1519" d="M156 707q0 205 36.5 342t121.5 225t217 126t329 38q162 0 268 -9t220 -32l-25 -137q-231 18 -463 18q-147 0 -243 -28.5t-158 -96.5t-87.5 -175t-25.5 -271q0 -218 49 -341t159 -177t306 -54q296 0 502 23l22 -135q-218 -48 -524 -48q-197 0 -329 38t-217 126.5 t-121.5 225.5t-36.5 342z" />
<glyph unicode="D" horiz-adv-x="1712" d="M219 0v1413q353 19 637 19q197 0 326.5 -36t214.5 -122t121 -222.5t36 -344.5t-36 -344.5t-121 -222.5t-214.5 -122t-326.5 -36q-302 0 -637 18zM399 145q197 -6 457 -6q145 0 239.5 28t155 96t86 174.5t25.5 269.5t-25.5 270t-86 175t-155 96t-239.5 28q-187 0 -457 -4 v-1127z" />
<glyph unicode="E" horiz-adv-x="1480" d="M205 244v925q1 114 90 180t237 66q533 0 781 -12l-8 -141h-742q-176 0 -176 -136v-307h813v-145h-813v-387q0 -137 176 -137h742l8 -140q-248 -12 -781 -12q-148 0 -237 66t-90 180z" />
<glyph unicode="F" horiz-adv-x="1425" d="M213 0v1161q0 120 89 187t239 67q515 0 757 -14l-10 -139h-704q-189 0 -189 -136v-327h791v-146h-791v-653h-182z" />
<glyph unicode="G" horiz-adv-x="1642" d="M158 711q0 213 37.5 351t127.5 223.5t226 120t346 34.5q293 0 512 -43l-21 -135q-221 16 -481 16q-110 0 -186 -8.5t-142 -32t-106.5 -64t-69.5 -106t-41 -155t-12 -214.5q0 -312 98.5 -439.5t341.5 -127.5q141 0 249.5 36.5t234.5 104.5v545h178v-817h-133l-21 156 q-259 -183 -553 -183q-311 0 -448 176.5t-137 561.5z" />
<glyph unicode="H" horiz-adv-x="1710" d="M219 0v1413h180v-579h912v579h180v-1413h-180v678h-912v-678h-180z" />
<glyph unicode="I" horiz-adv-x="618" d="M219 0v1413h180v-1413h-180z" />
<glyph unicode="J" horiz-adv-x="856" d="M78 8l20 127h140q225 0 225 156v1122h182v-1116q0 -155 -88 -235t-258 -80q-132 0 -221 26z" />
<glyph unicode="K" horiz-adv-x="1511" d="M219 0v1413h180v-442q0 -82 -12 -162h221l580 604h227l-557 -586q-36 -41 -88 -90v-4q48 -43 96 -98l590 -635h-231l-615 664h-223q12 -76 12 -150v-514h-180z" />
<glyph unicode="L" horiz-adv-x="1325" d="M213 264v1149h180v-1126q0 -135 191 -135h678l8 -140q-236 -14 -719 -14q-168 0 -253 72.5t-85 193.5z" />
<glyph unicode="M" horiz-adv-x="2260" d="M186 0l74 1337q1 37 22 56.5t58 19.5h217q59 0 80 -61l391 -863q17 -37 43 -104.5t33 -85.5h55q63 167 76 195l391 858q18 61 80 61h215q77 0 80 -76l76 -1337h-181l-71 1264h-56l-466 -1043q-28 -61 -80 -61h-181q-59 0 -81 61l-469 1043h-56l-67 -1264h-183z" />
<glyph unicode="N" horiz-adv-x="1804" d="M219 0v1341q0 72 76 72h184q59 0 88 -57l666 -977q47 -69 123 -205h55q-1 26 -2.5 69t-2.5 78.5t-1 67.5v1024h180v-1341q0 -72 -76 -72h-190q-60 0 -86 57l-684 1002q-65 95 -105 186h-51q6 -61 6 -186v-1059h-180z" />
<glyph unicode="O" horiz-adv-x="1726" d="M156 707q0 210 36.5 348t122 225t217 123.5t330.5 36.5q160 0 275 -23.5t200 -75t135.5 -138t74.5 -207.5t24 -289q0 -210 -36.5 -348.5t-122.5 -225.5t-217.5 -123.5t-332.5 -36.5q-199 0 -330.5 36.5t-217 123.5t-122 225.5t-36.5 348.5zM346 707q0 -165 25.5 -272 t87.5 -175.5t158.5 -96.5t244.5 -28q149 0 245.5 28t159 96.5t88 175.5t25.5 272t-25.5 272t-88 175t-159 96t-245.5 28q-148 0 -244.5 -28t-158.5 -96t-87.5 -175t-25.5 -272z" />
<glyph unicode="P" horiz-adv-x="1519" d="M219 0v1413q232 19 615 19q163 0 267.5 -20.5t174.5 -71.5t98.5 -135.5t28.5 -215.5q0 -132 -28.5 -216t-96.5 -135t-169 -71t-257 -20q-242 0 -453 22v-569h-180zM399 702h432q219 0 303.5 60t84.5 227t-84.5 227t-303.5 60q-326 0 -432 -2v-572z" />
<glyph unicode="Q" horiz-adv-x="1730" d="M158 707q0 210 36 348t121.5 225t217 123.5t331.5 36.5q160 0 275 -23.5t200 -75t135.5 -138t74.5 -207.5t24 -289q0 -210 -36.5 -348.5t-122.5 -225.5t-217.5 -123.5t-332.5 -36.5q-200 0 -331.5 36.5t-217 123.5t-121.5 225.5t-36 348.5zM348 707q0 -165 25.5 -272 t87.5 -175.5t158.5 -96.5t244.5 -28q149 0 245.5 28t159 96.5t88 175.5t25.5 272t-25.5 272t-88 175t-159 96t-245.5 28q-148 0 -244.5 -28t-158.5 -96t-87.5 -175t-25.5 -272zM709 -197l55 109q274 -98 668 -143l-56 -181q-347 57 -667 215z" />
<glyph unicode="R" horiz-adv-x="1589" d="M219 0v1413q232 19 617 19q159 0 263.5 -19t175 -66t100.5 -125t30 -198q0 -173 -78.5 -259.5t-255.5 -105.5v-10q71 -14 129.5 -65.5t87.5 -137.5l185 -446h-195l-172 442q-39 79 -101.5 113.5t-158.5 34.5q-235 0 -447 4v-594h-180zM399 745h435q220 2 304.5 58 t84.5 211q0 153 -84 207.5t-305 54.5q-97 0 -244 -1t-191 -1v-529z" />
<glyph unicode="S" horiz-adv-x="1449" d="M139 1065q0 71 12 125t33.5 93.5t59 67t80.5 44.5t107.5 26.5t130 13t157.5 3.5q316 -4 528 -41l-14 -131q-257 10 -506 10q-103 0 -155 -2.5t-110.5 -13t-82.5 -33.5t-40.5 -63t-16.5 -103q0 -113 55 -160.5t194 -71.5l381 -71q202 -39 285.5 -134t83.5 -264 q0 -70 -12 -124t-34.5 -95t-60 -69.5t-83 -47.5t-110.5 -30t-134.5 -15t-161.5 -4q-287 0 -557 39l12 133q347 -10 504 -10h47q97 0 159.5 5t113.5 19t78 40t41 65.5t14 98.5q0 61 -13.5 101t-47 65.5t-76.5 39.5t-115 27l-385 74q-194 37 -277.5 132.5t-83.5 260.5z" />
<glyph unicode="T" horiz-adv-x="1511" d="M59 1253v160h1393v-160h-606v-1253h-182v1253h-605z" />
<glyph unicode="U" horiz-adv-x="1718" d="M207 541v872h180v-872q0 -226 105.5 -316t367.5 -90q258 0 363.5 90t105.5 316v872h182v-872q0 -208 -63.5 -330.5t-203.5 -180t-378 -57.5q-361 0 -510 129.5t-149 438.5z" />
<glyph unicode="V" horiz-adv-x="1587" d="M43 1413h201l463 -1120q10 -25 29.5 -76.5t29.5 -77.5h57q5 15 60 156l460 1118h201l-579 -1362q-21 -51 -72 -51h-199q-50 0 -71 51z" />
<glyph unicode="W" horiz-adv-x="2478" d="M76 1413h192l328 -1102q2 -8 39 -174h67q18 96 41 174l320 1043q5 26 25 42.5t49 16.5h204q59 0 76 -59l318 -1043q20 -72 41 -174h65q6 24 19.5 83t21.5 89l332 1104h190l-407 -1360q-6 -24 -26.5 -38.5t-47.5 -14.5h-219q-28 0 -48 15t-26 40l-317 1063q-22 72 -45 160 h-58q-7 -24 -22 -78.5t-23 -81.5l-315 -1063q-6 -24 -27.5 -39.5t-48.5 -15.5h-219q-27 0 -47.5 14.5t-26.5 38.5z" />
<glyph unicode="X" horiz-adv-x="1587" d="M70 0l534 731l-500 682h218l444 -610h55l445 610h219l-500 -682l535 -731h-222l-479 664h-51l-479 -664h-219z" />
<glyph unicode="Y" horiz-adv-x="1476" d="M35 1413h205l401 -612q42 -62 88 -160h19q36 78 86 160l399 612h207l-613 -926v-487h-180v489z" />
<glyph unicode="Z" horiz-adv-x="1466" d="M117 0v154l999 1106h-985v153h1202v-153l-997 -1106h1014v-154h-1233z" />
<glyph unicode="[" horiz-adv-x="819" d="M227 -227v1689q0 49 35.5 80t89.5 31h363v-115h-285q-14 0 -25.5 -10t-11.5 -23v-1615q0 -13 11.5 -23t25.5 -10h285v-115h-363q-57 0 -91 27.5t-34 83.5z" />
<glyph unicode="\" horiz-adv-x="1335" d="M74 1413h149l1041 -1548h-150z" />
<glyph unicode="]" horiz-adv-x="819" d="M104 -223h281q17 0 28 9.5t11 23.5v1615q0 14 -11 23.5t-28 9.5h-281v115h363q54 0 89.5 -31t35.5 -80v-1689q0 -49 -35.5 -80t-89.5 -31h-363v115z" />
<glyph unicode="^" horiz-adv-x="1085" d="M72 799l407 432h129l406 -432l-74 -45l-385 356h-20l-390 -356z" />
<glyph unicode="_" horiz-adv-x="1153" d="M0 0h1153v-133h-1153v133z" />
<glyph unicode="`" horiz-adv-x="774" d="M84 1348l102 133l439 -299l-66 -80z" />
<glyph unicode="a" horiz-adv-x="1376" d="M121 260v109q0 117 89 181t251 64h569v88q-1 64 -24.5 100t-82.5 54t-165 18q-203 0 -565 -26l-19 129q344 45 619 45q209 0 311 -72.5t102 -247.5v-702h-137l-22 176q-95 -75 -245 -134.5t-313 -59.5q-171 0 -269.5 72.5t-98.5 205.5zM299 281q0 -77 54 -113.5 t165 -36.5h11q116 1 251 41q142 42 250 121v190l-543 -2q-99 -3 -143.5 -37.5t-44.5 -99.5v-63z" />
<glyph unicode="b" horiz-adv-x="1464" d="M193 47v1387h176v-373q0 -139 -21 -225l2 -2q247 188 506 188q245 0 355 -120.5t110 -399.5q0 -133 -27.5 -227.5t-91 -163.5t-171 -102.5t-263.5 -33.5q-305 0 -575 72zM367 717l2 -557q180 -37 367 -37h28q205 2 290 85.5t85 293.5q0 207 -72 287.5t-264 80.5 q-100 0 -195 -36t-241 -117z" />
<glyph unicode="c" horiz-adv-x="1271" d="M139 500q0 287 136.5 404.5t465.5 117.5q244 0 400 -47l-27 -113q-163 12 -342 12q-128 0 -210.5 -17.5t-137.5 -61t-77.5 -114t-22.5 -181.5t22.5 -182.5t77.5 -115.5t137.5 -61.5t210.5 -17.5q216 0 375 20l18 -116q-186 -52 -422 -52q-331 0 -467.5 118.5 t-136.5 406.5z" />
<glyph unicode="d" horiz-adv-x="1468" d="M145 502q0 194 52 308.5t155 163t273 48.5q243 0 481 -96q-10 85 -10 200v308h174v-1434h-135l-19 150q-277 -175 -514 -175q-242 0 -349.5 130t-107.5 397zM326 504q0 -147 34 -229.5t102.5 -115t188.5 -32.5q109 0 204 31.5t241 109.5v545q-146 30 -240.5 43.5 t-193.5 13.5q-95 0 -155.5 -15.5t-102.5 -57t-60 -112t-18 -181.5z" />
<glyph unicode="e" horiz-adv-x="1357" d="M127 502q0 147 32.5 246t104.5 160.5t178 87.5t263 26q275 0 404.5 -81t131.5 -245v-11q0 -129 -69 -199q-72 -72 -226 -72h-633q8 -71 29.5 -121.5t54.5 -83.5t86 -52t115.5 -26.5t151.5 -7.5q235 0 442 24l18 -116q-75 -27 -216.5 -41.5t-266.5 -14.5 q-324 0 -462 120.5t-138 406.5zM309 549h596q89 -1 125 41q35 39 35 99v7q-3 95 -85 136.5t-267 41.5q-222 0 -310 -69t-94 -256z" />
<glyph unicode="f" horiz-adv-x="997" d="M72 860v127l231 10v179q0 145 85 218.5t278 73.5q211 0 348 -14l-13 -129h-274q-136 0 -192 -38.5t-56 -129.5v-160h430v-137h-430v-860h-176v860h-231z" />
<glyph unicode="g" horiz-adv-x="1447" d="M111 -111q0 92 42.5 145.5t153.5 100.5q-63 37 -81 98q-6 24 -6 47q0 36 16 72q28 57 88 90q-84 38 -122 101.5t-38 158.5q0 171 122.5 245.5t418.5 74.5q166 0 282 -25h406l-13 -96l-192 -12q53 -67 53 -184q0 -167 -123 -242.5t-416 -75.5q-174 0 -288 27 q-38 -34 -46 -72q-1 -6 -1 -12q0 -30 30 -56q36 -30 115 -38l492 -60q174 -21 242.5 -86.5t68.5 -193.5q0 -118 -58 -184.5t-186 -96t-354 -29.5q-230 0 -360 29t-188 94t-58 180zM281 -96q0 -104 89.5 -137t344.5 -33q170 0 259 14t129 50.5t40 105.5q0 74 -41.5 99.5 t-183.5 43.5l-484 49l-14 2q-76 -43 -107.5 -86.5t-31.5 -107.5zM326 705q0 -99 85.5 -142t290.5 -43t289 43t84 142q0 101 -82 142.5t-291 41.5q-208 0 -292 -42t-84 -142z" />
<glyph unicode="h" horiz-adv-x="1486" d="M199 0v1434h176l2 -396q0 -104 -17 -198q330 182 590 182q169 0 257.5 -69.5t88.5 -204.5v-748h-176v698q0 98 -50.5 137t-166.5 39q-117 0 -233.5 -36.5t-294.5 -120.5v-717h-176z" />
<glyph unicode="i" horiz-adv-x="550" d="M178 1251v117q0 53 55 53h84q56 0 56 -53v-117q0 -53 -56 -53h-84q-55 0 -55 53zM188 0v997h174v-997h-174z" />
<glyph unicode="j" horiz-adv-x="606" d="M78 -340q75 75 110 148t35 167v1022h176v-1022q0 -118 -60.5 -221t-164.5 -170zM215 1251v117q0 53 57 53h82q56 0 56 -53v-117q0 -53 -56 -53h-82q-57 0 -57 53z" />
<glyph unicode="k" horiz-adv-x="1292" d="M199 0v1434h176l2 -637q0 -87 -12 -170h167l433 370h231l-426 -366q-61 -56 -84 -68v-4q10 -6 23.5 -18.5t34.5 -34.5t26 -27l469 -479h-229l-473 500h-172q10 -92 10 -160v-340h-176z" />
<glyph unicode="l" horiz-adv-x="786" d="M201 236v1198h176l-2 -1160q0 -133 186 -133h133l21 -133q-31 -12 -96.5 -19t-116.5 -7q-140 0 -220.5 66.5t-80.5 187.5z" />
<glyph unicode="m" horiz-adv-x="2279" d="M199 0v997h143l10 -161q278 186 539 186q270 0 326 -182q272 182 532 182q165 0 252.5 -70t87.5 -204v-748h-174v698q-2 92 -55 134t-170 42q-105 0 -201.5 -34.5t-259.5 -122.5v-717h-170v698q0 95 -54 135.5t-171 40.5q-104 0 -201.5 -34.5t-259.5 -122.5v-717h-174z " />
<glyph unicode="n" horiz-adv-x="1447" d="M178 0v997h148l12 -159q319 184 592 184q169 0 257.5 -69.5t88.5 -204.5v-748h-176v698q0 98 -50.5 137t-166.5 39q-115 0 -229 -36.5t-300 -120.5v-717h-176z" />
<glyph unicode="o" horiz-adv-x="1433" d="M129 498q0 286 133 405t455 119t456 -119t134 -405q0 -287 -133.5 -406t-456.5 -119q-322 0 -455 119t-133 406zM309 498q0 -217 88 -297t320 -80q231 0 320 80.5t89 296.5q0 111 -20.5 182t-70 115t-125 61.5t-193.5 17.5q-232 0 -320 -79.5t-88 -296.5z" />
<glyph unicode="p" horiz-adv-x="1480" d="M199 -412v1409h143l14 -161q118 87 258.5 136.5t274.5 49.5q236 0 342 -131t106 -397q0 -284 -112.5 -401.5t-364.5 -117.5q-259 0 -495 105q9 -63 9 -152q0 -25 -1 -51v-289h-174zM373 186q13 -3 55.5 -11t56 -10t49 -8.5t50.5 -9t45.5 -7t49 -6t44.5 -3.5t49 -3t47 -1 q95 0 156 16t103.5 57.5t60.5 112.5t18 181q0 210 -72 293t-245 83q-109 0 -214.5 -36t-252.5 -117v-531z" />
<glyph unicode="q" horiz-adv-x="1449" d="M129 496q0 134 28 229t92 163t173.5 101t269.5 33q127 0 280 -18.5t283 -51.5v-1364h-174l-2 342q0 128 17 211q-275 -168 -527 -168q-228 0 -334 126t-106 397zM309 483q0 -188 71 -272t245 -84q112 0 207.5 31.5t248.5 105.5v574q-175 36 -352 36h-35q-110 -2 -180 -20 t-118 -63t-67.5 -119t-19.5 -189z" />
<glyph unicode="r" horiz-adv-x="1040" d="M199 0v997h135l18 -161q310 186 566 186h55l-23 -164h-65q-109 0 -220 -30t-290 -99v-729h-176z" />
<glyph unicode="s" horiz-adv-x="1284" d="M117 748q0 69 19 117.5t55 80t98 48.5q63 17 137 23q64 5 152 5h30q285 -3 527 -31l-15 -127q-400 10 -489 10h-113t-88 -4t-65.5 -11.5t-44.5 -22t-25 -36t-8 -52.5q0 -38 11 -62.5t40 -40t58.5 -23.5t86.5 -18l391 -65q156 -31 226.5 -91.5t70.5 -183.5 q0 -52 -11.5 -93t-32 -71.5t-55 -52t-75.5 -35t-99.5 -21.5t-119.5 -11t-143 -3q-266 0 -490 29l13 127q202 -8 378 -8h70q231 0 312 26.5t81 112.5q0 29 -10.5 50t-25.5 34.5t-46 24t-55.5 16.5t-70.5 14l-388 66q-152 30 -219 93.5t-67 185.5z" />
<glyph unicode="t" horiz-adv-x="1011" d="M72 860v127l233 10v295h174v-295h430v-137h-430v-586q0 -71 44.5 -102t142.5 -31h208l19 -133q-113 -26 -270 -26q-156 0 -237 69.5t-81 200.5v608h-233z" />
<glyph unicode="u" horiz-adv-x="1458" d="M190 248v749h177v-700q-1 -94 52.5 -133t176.5 -39q107 0 215 34.5t274 112.5v725h175v-997h-140l-14 150q-298 -177 -567 -177q-172 0 -260.5 70t-88.5 205z" />
<glyph unicode="v" horiz-adv-x="1361" d="M47 997h186l345 -698q16 -32 45 -93.5t39 -80.5h34q26 47 88 174l344 698h187l-488 -954q-19 -43 -65 -43h-164q-50 0 -63 43z" />
<glyph unicode="w" horiz-adv-x="2156" d="M66 997h182l299 -735q32 -86 47 -149h35q9 24 25.5 74t25.5 75l252 680q6 25 23.5 40t43.5 15h160q26 0 45 -15.5t23 -41.5l252 -678l49 -149h37q27 97 47 149l297 735h182l-395 -948q-16 -49 -70 -49h-164q-26 0 -45.5 15t-25.5 40l-248 678q-12 28 -27.5 84.5 t-21.5 73.5h-29q-9 -31 -27.5 -86t-23.5 -72l-246 -678q-17 -55 -74 -55h-159q-27 0 -46.5 13t-25.5 36z" />
<glyph unicode="x" horiz-adv-x="1366" d="M66 0l446 514l-414 483h211l346 -411h58l346 411h211l-416 -483l446 -514h-210l-383 451h-45l-386 -451h-210z" />
<glyph unicode="y" horiz-adv-x="1370" d="M53 997h191l364 -743q8 -17 28.5 -57.5t29.5 -63.5h39q7 14 19 39.5t22 45.5l18 36l364 743h191l-533 -1052q-29 -58 -60 -105t-77.5 -96t-99.5 -83t-126.5 -57t-158.5 -26l-20 115q152 38 237.5 101t134.5 163l23 43h-39q-42 0 -65 45z" />
<glyph unicode="z" horiz-adv-x="1314" d="M121 0v141l840 713h-832v143h1059v-143l-838 -713h846v-141h-1075z" />
<glyph unicode="{" horiz-adv-x="804" d="M117 608v127q96 23 116 34q35 20 41 75q2 20 2 49v407q0 149 98.5 217.5t317.5 55.5v-111q-142 0 -194 -39t-52 -135v-366q0 -126 -46 -177t-179 -73q138 -35 186 -85t50 -157v-485q0 -94 53 -133t195 -39v-111q-219 -13 -318.5 55t-99.5 217v525q0 37 -6.5 59.5t-32 39 t-44.5 23.5t-74 23q-8 3 -13 4z" />
<glyph unicode="|" horiz-adv-x="591" d="M229 -346v1945h131v-1945h-131z" />
<glyph unicode="}" horiz-adv-x="804" d="M100 -227q142 0 196 39t54 133v485q0 107 48.5 157t187.5 85q-134 22 -180.5 73t-45.5 177v366q0 96 -53.5 135t-195.5 39v111q220 13 318.5 -55.5t98.5 -217.5v-407q0 -85 24.5 -108t117.5 -45q13 -3 20 -5v-127q-101 -29 -126 -45q-43 -27 -46 -92v-12v-525 q0 -149 -99 -217t-319 -55v111z" />
<glyph unicode="~" horiz-adv-x="1353" d="M190 467q-13 123 44 186t159 60q85 -3 182.5 -31t193 -56.5t171.5 -33.5q74 -6 103.5 19.5t29.5 90.5h92q13 -120 -42 -182t-158 -59q-77 3 -158.5 21.5t-138.5 38.5t-126.5 38.5t-125.5 22.5q-73 6 -102 -21.5t-29 -93.5h-95z" />
<glyph unicode="&#xa1;" horiz-adv-x="612" d="M215 831v113q0 36 15.5 51t52.5 15h49q37 0 52 -14.5t15 -51.5v-113q0 -35 -15 -49t-52 -14h-49q-37 0 -52.5 14t-15.5 49zM219 213l17 365h141l16 -365v-614h-174v614z" />
<glyph unicode="&#xa2;" horiz-adv-x="1308" d="M139 715q0 287 136.5 405.5t465.5 118.5h9l18 174h100l-18 -178q183 -12 289 -45l-27 -117q-110 13 -278 17l-78 -752h14q200 0 375 22l18 -116q-179 -51 -422 -51h-2l-22 -193h-99l21 195q-272 17 -386 136t-114 384zM313 715q0 -191 78 -274.5t266 -98.5l76 748 q-118 -2 -195.5 -21.5t-129 -63.5t-73.5 -114t-22 -176z" />
<glyph unicode="&#xa3;" horiz-adv-x="1470" d="M141 795h207l-18 272q-4 68 5 122t29 92.5t54.5 66.5t74 45.5t94.5 27.5t110.5 13.5t127.5 3.5q185 0 455 -21l-12 -143q-196 8 -465 8q-175 0 -240.5 -47t-56.5 -170l20 -270h594l-8 -103h-580l13 -153q9 -149 -31.5 -237t-159.5 -155q66 7 170 7h817v-154h-1183v154 q129 51 174 147t35 238l-11 153h-213z" />
<glyph unicode="&#xa4;" horiz-adv-x="1540" d="M170 334l186 145q-102 105 -102 240q0 140 106 246l-184 145l78 78l197 -152q140 86 319 86q181 0 322 -88l194 154l80 -78l-188 -145q104 -107 104 -246q0 -137 -104 -244l190 -147l-82 -76l-196 154q-142 -89 -320 -89t-321 86l-195 -151zM365 721q0 -123 118.5 -209 t286.5 -86q163 0 280 86t117 209t-117 210t-280 87q-167 0 -286 -87t-119 -210z" />
<glyph unicode="&#xa5;" horiz-adv-x="1601" d="M96 1413h191l409 -588q12 -17 31.5 -48t34.5 -52.5t29 -34.5h18q17 17 49 68.5t43 66.5l410 588h190l-524 -751h401v-107h-475l-12 -18v-107h487v-104h-487v-326h-182v326h-476l-2 104h478v107l-13 18h-463l-2 107h390z" />
<glyph unicode="&#xa6;" horiz-adv-x="595" d="M231 -346v819h131v-819h-131zM231 780v819h131v-819h-131z" />
<glyph unicode="&#xa7;" horiz-adv-x="1404" d="M156 1178q0 65 23 111.5t63 75.5t106 46t140 23t176 6q313 -4 573 -25l-12 -135q-205 10 -523 10q-53 1 -100 0t-87 -3.5t-71.5 -10.5t-53.5 -20.5t-34 -33t-12 -48.5q-3 -68 43.5 -110t140.5 -81l453 -186q121 -52 181 -122t66.5 -158.5t-18.5 -201.5h-133 q19 133 -20 211.5t-158 132.5l-471 203q-96 39 -152.5 78.5t-88 98t-31.5 139.5zM168 -307l14 137q326 -14 525 -14q49 0 76.5 0.5t67.5 2t62 5t50 9t43 15t29.5 22t21 30.5t6.5 41q3 67 -44.5 109.5t-137.5 80.5l-453 184q-120 52 -180.5 121t-68.5 157t16 202h131 q-16 -137 22 -211.5t160 -128.5l471 -201q141 -59 204.5 -129.5t63.5 -190.5q0 -51 -13 -90.5t-34.5 -67.5t-58 -47.5t-75 -31.5t-94 -18.5t-107.5 -8.5t-122 -2q-261 3 -575 25z" />
<glyph unicode="&#xa8;" horiz-adv-x="1034" d="M203 1257v113q0 49 51 49h59q52 0 52 -49v-113q0 -49 -52 -49h-59q-51 0 -51 49zM670 1257v113q0 49 53 49h59q52 0 52 -49v-113q0 -49 -52 -49h-59q-53 0 -53 49z" />
<glyph unicode="&#xa9;" horiz-adv-x="2199" d="M150 707q0 209 127 377.5t343.5 262t477.5 93.5q196 0 371.5 -55t302.5 -151t201.5 -233t74.5 -294t-74.5 -294t-201.5 -233t-302.5 -151.5t-371.5 -55.5q-195 0 -369.5 55.5t-302 151.5t-202 233t-74.5 294zM254 707q0 -181 114 -328t307 -229t423 -82q231 0 425 82 t307.5 229t113.5 328t-113.5 328t-307.5 229t-425 82q-230 0 -423 -82t-307 -229t-114 -328zM596 711q0 249 115.5 350.5t400.5 101.5q208 0 354 -28l-16 -99q-172 6 -340 6q-212 0 -293.5 -71.5t-81.5 -259.5q0 -187 82 -259.5t293 -72.5q240 0 371 12l12 -100 q-164 -31 -381 -31q-286 0 -401 101t-115 350z" />
<glyph unicode="&#xaa;" horiz-adv-x="1130" d="M164 723v78q0 77 62.5 121.5t176.5 44.5h408v57q0 53 -41 81t-139 28q-123 0 -414 -17l-14 98q302 29 454 29q142 0 215.5 -51t73.5 -170v-465h-106l-21 133q-71 -57 -177 -101t-224 -44q-119 0 -186.5 46t-67.5 132zM297 752q0 -51 39.5 -73t120.5 -22q82 0 181 32.5 t173 78.5v123l-371 -17q-143 -6 -143 -86v-36z" />
<glyph unicode="&#xab;" horiz-adv-x="1222" d="M102 494v41l428 405l91 -61l-353 -365l357 -373l-93 -61zM565 494v41l426 405l90 -61l-350 -365l354 -373l-92 -61z" />
<glyph unicode="&#xac;" horiz-adv-x="1521" d="M186 543v133h1143v-406h-139v273h-1004z" />
<glyph unicode="&#xad;" horiz-adv-x="1173" d="M176 451v133h813v-133h-813z" />
<glyph unicode="&#xae;" horiz-adv-x="1458" d="M139 983q0 124 78.5 228.5t215 165.5t298.5 61q159 0 294 -60.5t213.5 -165.5t78.5 -229q0 -125 -78.5 -230t-213 -166t-294.5 -61q-162 0 -298.5 61t-215 166t-78.5 230zM211 983q0 -108 69.5 -199t189.5 -143.5t261 -52.5q139 0 257.5 52.5t187.5 143.5t69 199 q0 107 -69 198t-187.5 144t-257.5 53q-141 0 -261 -53t-189.5 -144t-69.5 -198zM463 719v530q94 6 293 6q149 0 209.5 -32.5t60.5 -120.5q0 -61 -37.5 -93.5t-122.5 -39.5v-4q76 -7 105 -78l84 -168h-94l-80 164q-31 55 -121 55h-209v-219h-88zM551 997h203q102 2 143 23 t41 74q0 58 -39.5 77t-144.5 19h-203v-193z" />
<glyph unicode="&#xaf;" horiz-adv-x="1026" d="M152 1247v129h722v-129h-722z" />
<glyph unicode="&#xb0;" horiz-adv-x="948" d="M135 1180q0 106 99.5 183t238.5 77t239.5 -76.5t100.5 -183.5t-100.5 -184.5t-239.5 -77.5q-138 0 -238 77.5t-100 184.5zM250 1180q0 -66 65 -111t158 -45t158 45t65 111q0 67 -64.5 110t-158.5 43t-158.5 -43t-64.5 -110z" />
<glyph unicode="&#xb1;" horiz-adv-x="1523" d="M190 143v131h1143v-131h-1143zM190 670v131h502v272h139v-272h502v-131h-504v-275h-137v275h-502z" />
<glyph unicode="&#xb2;" horiz-adv-x="1122" d="M154 737v78q0 40 24 57l365 263q123 91 172 145t49 113q0 30 -16 48.5t-51 27.5t-73 11.5t-100 2.5q-163 0 -350 -17l-10 103q189 30 366 30q101 0 167 -7.5t118 -28t76 -59.5t24 -99q0 -148 -225 -307l-342 -242q61 4 176 4l441 -2l-2 -121h-809z" />
<glyph unicode="&#xb3;" horiz-adv-x="1075" d="M152 743l10 103q149 -10 342 -10q153 0 215.5 33.5t62.5 119.5q0 66 -53 102.5t-199 36.5h-225v103h225q61 1 105 9.5t67.5 21.5t37 33t17 37t3.5 40q0 67 -56.5 91t-209.5 24q-203 0 -312 -8l-10 100q192 23 338 23q217 0 302 -42.5t85 -154.5q0 -91 -45 -146.5 t-156 -68.5v-4q122 -13 174.5 -66t55.5 -147q3 -133 -86 -192.5t-305 -59.5q-157 0 -383 22z" />
<glyph unicode="&#xb4;" horiz-adv-x="776" d="M135 1182l436 299l105 -133l-475 -246z" />
<glyph unicode="&#xb6;" horiz-adv-x="1536" d="M106 922q0 283 183.5 399.5t619.5 116.5q233 0 387 -35v-1403h-139v1311q-156 12 -305 12v-1753h-137v842q-326 23 -467.5 141.5t-141.5 368.5z" />
<glyph unicode="&#xb7;" horiz-adv-x="561" d="M166 471v113q0 35 15 50t52 15h60q37 0 52 -15t15 -50v-113q0 -35 -15 -49t-52 -14h-60q-37 0 -52 14t-15 49z" />
<glyph unicode="&#xb8;" horiz-adv-x="587" d="M88 -469l27 92q117 -3 188.5 37t73.5 104q2 37 -31 51t-125 15l19 82q145 11 208 -16.5t60 -116.5q-5 -131 -121 -199.5t-299 -48.5z" />
<glyph unicode="&#xb9;" horiz-adv-x="741" d="M92 1497l318 88h139v-848h-139v645q0 53 8 80l-307 -59z" />
<glyph unicode="&#xba;" horiz-adv-x="1144" d="M152 891q0 195 93.5 273.5t325.5 78.5q233 0 326.5 -78.5t93.5 -273.5q0 -193 -93.5 -271.5t-326.5 -78.5q-231 0 -325 79t-94 271zM293 891q0 -138 60 -189t218 -51q157 0 217 51t60 189q0 140 -60 192t-217 52q-158 0 -218 -52t-60 -192z" />
<glyph unicode="&#xbb;" horiz-adv-x="1239" d="M143 141l357 373l-353 365l93 61l426 -405v-41l-430 -414zM606 141l355 373l-353 365l92 61l426 -405v-41l-428 -414z" />
<glyph unicode="&#xbc;" horiz-adv-x="2242" d="M102 1325l318 88h139v-848h-139v645q0 53 8 80l-307 -59zM342 0l1212 1413h129l-1210 -1413h-131zM1236.5 236q-31.5 37 0.5 96l354 516h138l-347 -496q-12 -19 2.5 -32t45.5 -13h448v240l27 139h106v-379h125v-96l-125 -10v-201h-133v199h-543q-67 0 -98.5 37z" />
<glyph unicode="&#xbd;" horiz-adv-x="2310" d="M102 1325l318 88h139v-848h-139v645q0 53 8 80l-307 -59zM330 0l1210 1413h133l-1212 -1413h-131zM1374 0v78q0 35 25 57l364 256q114 84 168 147t54 117q0 30 -16 48.5t-51 27.5t-73 11.5t-100 2.5q-174 0 -350 -16l-11 102q195 31 367 31q101 0 167 -7.5t118 -28 t76 -59.5t24 -99q0 -68 -54 -137.5t-171 -157.5l-359 -254q68 4 193 4l440 -2l-2 -121h-809z" />
<glyph unicode="&#xbe;" horiz-adv-x="2478" d="M143 567l11 103q164 -11 344 -11q152 0 214 34t62 120q0 31 -10 54t-36 43.5t-77 31t-127 10.5l-227 4v93l227 6q60 1 103.5 10t67 21.5t37 32.5t17 36.5t3.5 38.5q0 68 -56.5 92.5t-210.5 24.5q-199 0 -311 -8l-10 100q170 20 340 20q216 0 300.5 -42t84.5 -152 q0 -93 -45 -147.5t-156 -67.5v-4q124 -13 176 -66t54 -147q3 -133 -86 -192.5t-304 -59.5q-160 0 -385 22zM608 0l1211 1413h131l-1211 -1413h-131zM1473 236q-32 37 0 96l352 516h139l-346 -496q-12 -19 2 -32t45 -13h436v240l27 139h104v-379h140v-96l-140 -10v-201h-131 v199h-530q-66 0 -98 37z" />
<glyph unicode="&#xbf;" horiz-adv-x="1306" d="M109 -119q0 63 26.5 118t68.5 97t93.5 82.5t103.5 82.5t95.5 88t72 108t31.5 133h152q1 -77 -23 -144.5t-64 -116.5t-88.5 -93t-97.5 -82t-89.5 -74.5t-67 -80t-27.5 -89.5q-2 -100 89 -148.5t288 -48.5q243 0 522 19l14 -125q-18 -3 -69.5 -10.5t-69 -9.5t-61.5 -7 t-73.5 -7t-77 -4.5t-100 -3.5t-116.5 -1q-266 0 -399 78t-133 239zM586 844v114q0 35 15 49.5t52 14.5h47q37 0 52.5 -14.5t15.5 -49.5v-114q0 -35 -15.5 -49.5t-52.5 -14.5h-47q-37 0 -52 14.5t-15 49.5z" />
<glyph unicode="&#xc0;" d="M29 0l608 1364q16 49 70 49h204q25 0 45 -13t27 -36l608 -1364h-188l-195 442h-798l-195 -442h-186zM393 1737l103 133l438 -299l-66 -80zM477 598h664l-246 561l-49 115h-74q-28 -64 -47 -115z" />
<glyph unicode="&#xc1;" d="M29 0l608 1364q16 49 70 49h204q25 0 45 -13t27 -36l608 -1364h-188l-195 442h-798l-195 -442h-186zM477 598h664l-246 561l-49 115h-74q-28 -64 -47 -115zM653 1571l437 299l104 -133l-475 -246z" />
<glyph unicode="&#xc2;" d="M29 0l608 1364q16 49 70 49h204q25 0 45 -13t27 -36l608 -1364h-188l-195 442h-798l-195 -442h-186zM393 1575l352 260h127l355 -260l-66 -76l-340 199h-22l-342 -199zM477 598h664l-246 561l-49 115h-74q-28 -64 -47 -115z" />
<glyph unicode="&#xc3;" d="M29 0l608 1364q16 49 70 49h204q25 0 45 -13t27 -36l608 -1364h-188l-195 442h-798l-195 -442h-186zM403 1567q-12 118 46.5 178.5t158.5 54.5q68 -4 133 -29.5t128 -51.5t126 -31q75 -7 106.5 17.5t31.5 84.5h86q12 -113 -45.5 -174t-159.5 -55q-76 4 -145 31t-130 54 t-114 31q-73 7 -104.5 -20t-31.5 -90h-86zM477 598h664l-246 561l-49 115h-74q-28 -64 -47 -115z" />
<glyph unicode="&#xc4;" d="M29 0l608 1364q16 49 70 49h204q25 0 45 -13t27 -36l608 -1364h-188l-195 442h-798l-195 -442h-186zM477 598h664l-246 561l-49 115h-74q-28 -64 -47 -115zM496 1620v113q0 49 51 49h59q51 0 51 -49v-113q0 -49 -51 -49h-59q-51 0 -51 49zM963 1620v113q0 49 53 49h59 q51 0 51 -49v-113q0 -49 -51 -49h-59q-53 0 -53 49z" />
<glyph unicode="&#xc5;" d="M29 0l608 1364q16 49 70 49h204q25 0 45 -13t27 -36l608 -1364h-188l-195 442h-798l-195 -442h-186zM477 598h664l-246 561l-49 115h-74q-28 -64 -47 -115zM537 1679q0 90 80.5 152.5t193.5 62.5t193.5 -62.5t80.5 -152.5q0 -92 -79.5 -153.5t-194.5 -61.5t-194.5 61.5 t-79.5 153.5zM641 1679q0 -57 48.5 -91t121.5 -34q74 0 123 34t49 91q0 56 -49 90.5t-123 34.5q-73 0 -121.5 -34.5t-48.5 -90.5z" />
<glyph unicode="&#xc6;" horiz-adv-x="2398" d="M4 0l954 1192q96 129 216 176t331 47q499 0 764 -12l-8 -143h-686q-87 0 -139 -38t-52 -104v-297l770 -2v-145l-770 -2v-383q0 -137 191 -137h686l8 -142q-250 -12 -762 -12q-130 0 -211.5 69t-81.5 177v217h-651l-364 -461h-195zM680 610h534v533q0 42 27 85t64 62h-21 q-81 -33 -168 -129z" />
<glyph unicode="&#xc7;" horiz-adv-x="1519" d="M156 707q0 205 36.5 342t121.5 225t217 126t329 38q162 0 268 -9t220 -32l-25 -137q-231 18 -463 18q-147 0 -243 -28.5t-158 -96.5t-87.5 -175t-25.5 -271q0 -218 49 -341t159 -177t306 -54q296 0 502 23l22 -135q-218 -48 -524 -48q-197 0 -329 38t-217 126.5 t-121.5 225.5t-36.5 342zM592 -494l26 93q117 -3 189 37t74 104q1 37 -31 50t-125 15l18 82q145 11 208.5 -16.5t60.5 -116.5q-5 -131 -121 -199.5t-299 -48.5z" />
<glyph unicode="&#xc8;" horiz-adv-x="1480" d="M205 244v925q1 114 90 180t237 66q533 0 781 -12l-8 -141h-742q-176 0 -176 -136v-307h813v-145h-813v-387q0 -137 176 -137h742l8 -140q-248 -12 -781 -12q-148 0 -237 66t-90 180zM375 1780l102 133l438 -299l-65 -80z" />
<glyph unicode="&#xc9;" horiz-adv-x="1480" d="M205 244v925q1 114 90 180t237 66q533 0 781 -12l-8 -141h-742q-176 0 -176 -136v-307h813v-145h-813v-387q0 -137 176 -137h742l8 -140q-248 -12 -781 -12q-148 0 -237 66t-90 180zM635 1614l436 299l105 -133l-476 -246z" />
<glyph unicode="&#xca;" horiz-adv-x="1480" d="M205 244v925q1 114 90 180t237 66q533 0 781 -12l-8 -141h-742q-176 0 -176 -136v-307h813v-145h-813v-387q0 -137 176 -137h742l8 -140q-248 -12 -781 -12q-148 0 -237 66t-90 180zM375 1618l352 260h127l354 -260l-65 -76l-340 199h-23l-342 -199z" />
<glyph unicode="&#xcb;" horiz-adv-x="1480" d="M205 244v925q1 114 90 180t237 66q533 0 781 -12l-8 -141h-742q-176 0 -176 -136v-307h813v-145h-813v-387q0 -137 176 -137h742l8 -140q-248 -12 -781 -12q-148 0 -237 66t-90 180zM477 1663v113q0 49 51 49h60q51 0 51 -49v-113q0 -49 -51 -49h-60q-51 0 -51 49z M944 1663v113q0 49 53 49h60q51 0 51 -49v-113q0 -49 -51 -49h-60q-53 0 -53 49z" />
<glyph unicode="&#xcc;" horiz-adv-x="618" d="M-109 1737l103 133l438 -299l-65 -80zM219 0v1413h180v-1413h-180z" />
<glyph unicode="&#xcd;" horiz-adv-x="618" d="M152 1571l436 299l104 -133l-475 -246zM219 0v1413h180v-1413h-180z" />
<glyph unicode="&#xce;" horiz-adv-x="618" d="M-109 1575l353 260h127l354 -260l-66 -76l-340 199h-22l-342 -199zM219 0v1413h180v-1413h-180z" />
<glyph unicode="&#xcf;" horiz-adv-x="618" d="M-6 1620v113q0 49 51 49h59q52 0 52 -49v-113q0 -49 -52 -49h-59q-51 0 -51 49zM219 0v1413h180v-1413h-180zM461 1620v113q0 49 53 49h59q52 0 52 -49v-113q0 -49 -52 -49h-59q-53 0 -53 49z" />
<glyph unicode="&#xd0;" horiz-adv-x="1738" d="M57 700v101h166v612q353 19 637 19q198 0 328 -36t214.5 -122t120.5 -222.5t36 -344.5t-36 -344.5t-120.5 -222.5t-214.5 -122t-328 -36q-299 0 -637 18v700h-166zM406 145q196 -6 454 -6q145 0 239.5 28t156 96t87 174.5t25.5 269.5t-25.5 270t-86.5 174.5t-156 96 t-240 28.5q-184 0 -454 -4v-471h450v-101h-450v-555z" />
<glyph unicode="&#xd1;" horiz-adv-x="1804" d="M219 0v1341q0 72 76 72h184q59 0 88 -57l666 -977q47 -69 123 -205h55q-1 26 -2.5 69t-2.5 78.5t-1 67.5v1024h180v-1341q0 -72 -76 -72h-190q-60 0 -86 57l-684 1002q-65 95 -105 186h-51q6 -61 6 -186v-1059h-180zM508 1567q-12 118 46.5 178.5t158.5 54.5 q68 -4 133 -29.5t128 -51.5t126 -31q75 -7 106 17.5t31 84.5h86q12 -113 -45.5 -174t-159.5 -55q-76 4 -145 31t-130 54t-114 31q-73 7 -104 -20t-31 -90h-86z" />
<glyph unicode="&#xd2;" horiz-adv-x="1726" d="M156 707q0 210 36.5 348t122 225t217 123.5t330.5 36.5q160 0 275 -23.5t200 -75t135.5 -138t74.5 -207.5t24 -289q0 -210 -36.5 -348.5t-122.5 -225.5t-217.5 -123.5t-332.5 -36.5q-199 0 -330.5 36.5t-217 123.5t-122 225.5t-36.5 348.5zM346 707q0 -165 25.5 -272 t87.5 -175.5t158.5 -96.5t244.5 -28q149 0 245.5 28t159 96.5t88 175.5t25.5 272t-25.5 272t-88 175t-159 96t-245.5 28q-148 0 -244.5 -28t-158.5 -96t-87.5 -175t-25.5 -272zM446 1737l103 133l438 -299l-65 -80z" />
<glyph unicode="&#xd3;" horiz-adv-x="1726" d="M156 707q0 210 36.5 348t122 225t217 123.5t330.5 36.5q160 0 275 -23.5t200 -75t135.5 -138t74.5 -207.5t24 -289q0 -210 -36.5 -348.5t-122.5 -225.5t-217.5 -123.5t-332.5 -36.5q-199 0 -330.5 36.5t-217 123.5t-122 225.5t-36.5 348.5zM346 707q0 -165 25.5 -272 t87.5 -175.5t158.5 -96.5t244.5 -28q149 0 245.5 28t159 96.5t88 175.5t25.5 272t-25.5 272t-88 175t-159 96t-245.5 28q-148 0 -244.5 -28t-158.5 -96t-87.5 -175t-25.5 -272zM705 1571l436 299l104 -133l-475 -246z" />
<glyph unicode="&#xd4;" horiz-adv-x="1726" d="M156 707q0 210 36.5 348t122 225t217 123.5t330.5 36.5q160 0 275 -23.5t200 -75t135.5 -138t74.5 -207.5t24 -289q0 -210 -36.5 -348.5t-122.5 -225.5t-217.5 -123.5t-332.5 -36.5q-199 0 -330.5 36.5t-217 123.5t-122 225.5t-36.5 348.5zM346 707q0 -165 25.5 -272 t87.5 -175.5t158.5 -96.5t244.5 -28q149 0 245.5 28t159 96.5t88 175.5t25.5 272t-25.5 272t-88 175t-159 96t-245.5 28q-148 0 -244.5 -28t-158.5 -96t-87.5 -175t-25.5 -272zM446 1575l353 260h127l354 -260l-66 -76l-340 199h-22l-342 -199z" />
<glyph unicode="&#xd5;" horiz-adv-x="1726" d="M156 707q0 210 36.5 348t122 225t217 123.5t330.5 36.5q160 0 275 -23.5t200 -75t135.5 -138t74.5 -207.5t24 -289q0 -210 -36.5 -348.5t-122.5 -225.5t-217.5 -123.5t-332.5 -36.5q-199 0 -330.5 36.5t-217 123.5t-122 225.5t-36.5 348.5zM346 707q0 -165 25.5 -272 t87.5 -175.5t158.5 -96.5t244.5 -28q149 0 245.5 28t159 96.5t88 175.5t25.5 272t-25.5 272t-88 175t-159 96t-245.5 28q-148 0 -244.5 -28t-158.5 -96t-87.5 -175t-25.5 -272zM455 1567q-12 118 46 178.5t158 54.5q68 -4 133 -29.5t128.5 -51.5t126.5 -31q75 -7 106 17.5 t31 84.5h86q12 -113 -45.5 -174t-159.5 -55q-76 4 -145 31t-130 54t-114 31q-73 7 -104 -20t-31 -90h-86z" />
<glyph unicode="&#xd6;" horiz-adv-x="1726" d="M156 707q0 210 36.5 348t122 225t217 123.5t330.5 36.5q160 0 275 -23.5t200 -75t135.5 -138t74.5 -207.5t24 -289q0 -210 -36.5 -348.5t-122.5 -225.5t-217.5 -123.5t-332.5 -36.5q-199 0 -330.5 36.5t-217 123.5t-122 225.5t-36.5 348.5zM346 707q0 -165 25.5 -272 t87.5 -175.5t158.5 -96.5t244.5 -28q149 0 245.5 28t159 96.5t88 175.5t25.5 272t-25.5 272t-88 175t-159 96t-245.5 28q-148 0 -244.5 -28t-158.5 -96t-87.5 -175t-25.5 -272zM549 1620v113q0 49 51 49h59q52 0 52 -49v-113q0 -49 -52 -49h-59q-51 0 -51 49zM1016 1620v113 q0 49 53 49h59q52 0 52 -49v-113q0 -49 -52 -49h-59q-53 0 -53 49z" />
<glyph unicode="&#xd7;" horiz-adv-x="1259" d="M123 317l395 277l-395 274l90 105l424 -297l424 297l88 -103l-393 -276l393 -277l-88 -104l-426 297l-422 -297z" />
<glyph unicode="&#xd8;" horiz-adv-x="1728" d="M141 707q0 168 24 289t74 207.5t135 138t199.5 75t274.5 23.5q221 0 360 -45l90 149l95 -47l-88 -145q132 -76 190.5 -230t58.5 -415q0 -210 -36 -348.5t-121.5 -225.5t-217 -123.5t-331.5 -36.5q-220 0 -350 43l-88 -145l-95 51l82 135q-135 76 -195.5 231.5 t-60.5 418.5zM332 707q0 -195 38 -312.5t124 -179.5l622 1026q-99 37 -268 37q-148 0 -244.5 -28t-158.5 -96t-87.5 -175t-25.5 -272zM590 168q100 -33 258 -33q148 0 244.5 28t158.5 96.5t87.5 175.5t25.5 272q0 191 -36.5 308t-119.5 177z" />
<glyph unicode="&#xd9;" horiz-adv-x="1718" d="M207 541v872h180v-872q0 -226 105.5 -316t367.5 -90q258 0 363.5 90t105.5 316v872h182v-872q0 -208 -63.5 -330.5t-203.5 -180t-378 -57.5q-361 0 -510 129.5t-149 438.5zM444 1737l103 133l438 -299l-65 -80z" />
<glyph unicode="&#xda;" horiz-adv-x="1718" d="M207 541v872h180v-872q0 -226 105.5 -316t367.5 -90q258 0 363.5 90t105.5 316v872h182v-872q0 -208 -63.5 -330.5t-203.5 -180t-378 -57.5q-361 0 -510 129.5t-149 438.5zM702 1571l437 299l104 -133l-475 -246z" />
<glyph unicode="&#xdb;" horiz-adv-x="1718" d="M207 541v872h180v-872q0 -226 105.5 -316t367.5 -90q258 0 363.5 90t105.5 316v872h182v-872q0 -208 -63.5 -330.5t-203.5 -180t-378 -57.5q-361 0 -510 129.5t-149 438.5zM444 1575l353 260h127l354 -260l-66 -76l-340 199h-22l-342 -199z" />
<glyph unicode="&#xdc;" horiz-adv-x="1718" d="M207 541v872h180v-872q0 -226 105.5 -316t367.5 -90q258 0 363.5 90t105.5 316v872h182v-872q0 -208 -63.5 -330.5t-203.5 -180t-378 -57.5q-361 0 -510 129.5t-149 438.5zM547 1620v113q0 49 51 49h59q52 0 52 -49v-113q0 -49 -52 -49h-59q-51 0 -51 49zM1014 1620v113 q0 49 53 49h59q52 0 52 -49v-113q0 -49 -52 -49h-59q-53 0 -53 49z" />
<glyph unicode="&#xdd;" horiz-adv-x="1476" d="M35 1413h205l401 -612q42 -62 88 -160h19q36 78 86 160l399 612h207l-613 -926v-487h-180v489zM569 1571l437 299l104 -133l-475 -246z" />
<glyph unicode="&#xde;" horiz-adv-x="1523" d="M219 0v1413h180v-258q119 6 437 6q163 0 267 -20t173.5 -72t98 -136.5t28.5 -217.5t-28.5 -218.5t-96.5 -137t-169 -71.5t-257 -20q-233 0 -453 23v-291h-180zM399 424h432q112 0 182.5 12.5t118.5 45.5t67.5 89t19.5 144q0 89 -19.5 145.5t-67.5 89.5t-118.5 45.5 t-182.5 12.5q-326 0 -432 -2v-582z" />
<glyph unicode="&#xdf;" horiz-adv-x="1748" d="M72 858v135l231 4v115q0 67 14 120.5t38.5 91.5t65 65.5t85.5 44.5t108.5 26.5t126 13t144.5 3.5q307 0 444 -60t137 -211q0 -86 -53 -148t-190 -122q-33 -15 -80.5 -34t-70 -28.5t-50.5 -24.5t-40 -27t-21 -30t-9 -40q0 -50 36.5 -76.5t121.5 -54.5l299 -97 q128 -42 184 -100t56 -166q0 -69 -20 -118.5t-56 -81t-94.5 -49.5t-124.5 -25t-158 -7q-208 0 -428 23l10 131q176 -10 387 -10q61 1 98.5 2.5t77 6.5t61 14t40 25t26 39t7.5 56q0 60 -40 89t-141 63l-305 100q-211 70 -211 232q0 51 19 89.5t69 71t85.5 49t119.5 49.5 q31 13 47 19q105 41 145 80t40 100q0 67 -95 97t-317 30q-241 0 -326.5 -47.5t-85.5 -191.5v-1094h-176v858h-231z" />
<glyph unicode="&#xe0;" horiz-adv-x="1376" d="M121 260v109q0 117 89 181t251 64h569v88q-1 64 -24.5 100t-82.5 54t-165 18q-203 0 -565 -26l-19 129q344 45 619 45q209 0 311 -72.5t102 -247.5v-702h-137l-22 176q-95 -75 -245 -134.5t-313 -59.5q-171 0 -269.5 72.5t-98.5 205.5zM266 1370l103 133l438 -299 l-66 -80zM299 281q0 -77 54 -113.5t165 -36.5q120 -2 262 40.5t250 121.5v190l-543 -2q-99 -3 -143.5 -37.5t-44.5 -99.5v-63z" />
<glyph unicode="&#xe1;" horiz-adv-x="1376" d="M121 260v109q0 117 89 181t251 64h569v88q-1 64 -24.5 100t-82.5 54t-165 18q-203 0 -565 -26l-19 129q344 45 619 45q209 0 311 -72.5t102 -247.5v-702h-137l-22 176q-95 -75 -245 -134.5t-313 -59.5q-171 0 -269.5 72.5t-98.5 205.5zM299 281q0 -77 54 -113.5 t165 -36.5q120 -2 262 40.5t250 121.5v190l-543 -2q-99 -3 -143.5 -37.5t-44.5 -99.5v-63zM524 1204l437 299l104 -133l-475 -246z" />
<glyph unicode="&#xe2;" horiz-adv-x="1376" d="M121 260v109q0 117 89 181t251 64h569v88q-1 64 -24.5 100t-82.5 54t-165 18q-203 0 -565 -26l-19 129q344 45 619 45q209 0 311 -72.5t102 -247.5v-702h-137l-22 176q-95 -75 -245 -134.5t-313 -59.5q-171 0 -269.5 72.5t-98.5 205.5zM266 1206l352 260h127l355 -260 l-66 -76l-340 199h-22l-342 -199zM299 281q0 -77 54 -113.5t165 -36.5q120 -2 262 40.5t250 121.5v190l-543 -2q-99 -3 -143.5 -37.5t-44.5 -99.5v-63z" />
<glyph unicode="&#xe3;" horiz-adv-x="1376" d="M121 260v109q0 117 89 181t251 64h569v88q-1 64 -24.5 100t-82.5 54t-165 18q-203 0 -565 -26l-19 129q344 45 619 45q209 0 311 -72.5t102 -247.5v-702h-137l-22 176q-95 -75 -245 -134.5t-313 -59.5q-171 0 -269.5 72.5t-98.5 205.5zM274 1200q-12 118 46.5 179 t158.5 55q68 -4 133 -30t128 -52t126 -31q75 -7 106.5 17.5t31.5 84.5h86q12 -113 -45.5 -174t-159.5 -55q-60 3 -117.5 21t-95 37.5t-85.5 37.5t-91 21q-73 7 -104.5 -20.5t-31.5 -90.5h-86zM299 281q0 -77 54 -113.5t165 -36.5q120 -2 262 40.5t250 121.5v190l-543 -2 q-99 -3 -143.5 -37.5t-44.5 -99.5v-63z" />
<glyph unicode="&#xe4;" horiz-adv-x="1376" d="M121 260v109q0 117 89 181t251 64h569v88q-1 64 -24.5 100t-82.5 54t-165 18q-203 0 -565 -26l-19 129q344 45 619 45q209 0 311 -72.5t102 -247.5v-702h-137l-22 176q-95 -75 -245 -134.5t-313 -59.5q-171 0 -269.5 72.5t-98.5 205.5zM299 281q0 -77 54 -113.5 t165 -36.5q120 -2 262 40.5t250 121.5v190l-543 -2q-99 -3 -143.5 -37.5t-44.5 -99.5v-63zM369 1251v113q0 49 51 49h59q51 0 51 -49v-113q0 -49 -51 -49h-59q-51 0 -51 49zM836 1251v113q0 49 53 49h59q51 0 51 -49v-113q0 -49 -51 -49h-59q-53 0 -53 49z" />
<glyph unicode="&#xe5;" horiz-adv-x="1376" d="M121 260v109q0 117 89 181t251 64h569v88q-1 64 -24.5 100t-82.5 54t-165 18q-203 0 -565 -26l-19 129q344 45 619 45q209 0 311 -72.5t102 -247.5v-702h-137l-22 176q-95 -75 -245 -134.5t-313 -59.5q-171 0 -269.5 72.5t-98.5 205.5zM299 281q0 -77 54 -113.5 t165 -36.5q120 -2 262 40.5t250 121.5v190l-543 -2q-99 -3 -143.5 -37.5t-44.5 -99.5v-63zM408 1311q0 90 80.5 152.5t193.5 62.5t193.5 -62.5t80.5 -152.5q0 -92 -79.5 -153.5t-194.5 -61.5t-194.5 61.5t-79.5 153.5zM512 1311q0 -57 48.5 -91t121.5 -34q74 0 123 34t49 91 q0 56 -49 90.5t-123 34.5q-73 0 -121.5 -34.5t-48.5 -90.5z" />
<glyph unicode="&#xe6;" horiz-adv-x="2283" d="M131 260v109q0 117 89.5 181t252.5 64h569v88q0 94 -58.5 133t-213.5 39q-205 0 -567 -26l-17 129q344 45 619 45q270 0 360 -123q131 123 453 123q275 0 406 -81.5t133 -244.5q3 -140 -82 -211t-267 -71h-581q10 -89 39 -146t84.5 -89t128.5 -44t184 -12q233 0 444 24 l19 -116q-75 -27 -217.5 -41.5t-266.5 -14.5q-218 0 -348.5 52t-191.5 168q-99 -80 -261.5 -146.5t-338.5 -66.5q-172 0 -271.5 72.5t-99.5 205.5zM309 281q0 -78 54 -114t167 -36q125 -2 272.5 41t260.5 123q-20 75 -23 188l-540 -2q-191 -6 -191 -137v-63zM1223 549h544 q116 0 164.5 40t46.5 107q-2 94 -84.5 136t-267.5 42q-222 0 -309.5 -69t-93.5 -256z" />
<glyph unicode="&#xe7;" horiz-adv-x="1271" d="M139 500q0 287 136.5 404.5t465.5 117.5q244 0 400 -47l-27 -113q-163 12 -342 12q-128 0 -210.5 -17.5t-137.5 -61t-77.5 -114t-22.5 -181.5t22.5 -182.5t77.5 -115.5t137.5 -61.5t210.5 -17.5q216 0 375 20l18 -116q-186 -52 -422 -52q-331 0 -467.5 118.5 t-136.5 406.5zM473 -494l27 93q117 -3 188.5 37t73.5 104q1 37 -31 50t-125 15l19 82q145 11 208 -16.5t60 -116.5q-5 -131 -121 -199.5t-299 -48.5z" />
<glyph unicode="&#xe8;" horiz-adv-x="1357" d="M127 502q0 147 32.5 246t104.5 160.5t178 87.5t263 26q275 0 404.5 -81t131.5 -245q3 -137 -69 -209.5t-226 -72.5h-633q8 -71 29.5 -121.5t54.5 -83.5t86 -52t115.5 -26.5t151.5 -7.5q235 0 442 24l18 -116q-75 -27 -216.5 -41.5t-266.5 -14.5q-324 0 -462 120.5 t-138 406.5zM291 1370l102 133l438 -299l-65 -80zM309 549h596q89 0 125.5 41.5t34.5 105.5q-3 95 -85 136.5t-267 41.5q-222 0 -310 -69t-94 -256z" />
<glyph unicode="&#xe9;" horiz-adv-x="1357" d="M127 502q0 147 32.5 246t104.5 160.5t178 87.5t263 26q275 0 404.5 -81t131.5 -245q3 -137 -69 -209.5t-226 -72.5h-633q8 -71 29.5 -121.5t54.5 -83.5t86 -52t115.5 -26.5t151.5 -7.5q235 0 442 24l18 -116q-75 -27 -216.5 -41.5t-266.5 -14.5q-324 0 -462 120.5 t-138 406.5zM309 549h596q89 0 125.5 41.5t34.5 105.5q-3 95 -85 136.5t-267 41.5q-222 0 -310 -69t-94 -256zM551 1204l436 299l105 -133l-476 -246z" />
<glyph unicode="&#xea;" horiz-adv-x="1357" d="M127 502q0 147 32.5 246t104.5 160.5t178 87.5t263 26q275 0 404.5 -81t131.5 -245q3 -137 -69 -209.5t-226 -72.5h-633q8 -71 29.5 -121.5t54.5 -83.5t86 -52t115.5 -26.5t151.5 -7.5q235 0 442 24l18 -116q-75 -27 -216.5 -41.5t-266.5 -14.5q-324 0 -462 120.5 t-138 406.5zM291 1206l352 260h127l354 -260l-65 -76l-340 199h-23l-342 -199zM309 549h596q89 0 125.5 41.5t34.5 105.5q-3 95 -85 136.5t-267 41.5q-222 0 -310 -69t-94 -256z" />
<glyph unicode="&#xeb;" horiz-adv-x="1357" d="M127 502q0 147 32.5 246t104.5 160.5t178 87.5t263 26q275 0 404.5 -81t131.5 -245q3 -137 -69 -209.5t-226 -72.5h-633q8 -71 29.5 -121.5t54.5 -83.5t86 -52t115.5 -26.5t151.5 -7.5q235 0 442 24l18 -116q-75 -27 -216.5 -41.5t-266.5 -14.5q-324 0 -462 120.5 t-138 406.5zM309 549h596q89 0 125.5 41.5t34.5 105.5q-3 95 -85 136.5t-267 41.5q-222 0 -310 -69t-94 -256zM393 1251v113q0 49 51 49h60q51 0 51 -49v-113q0 -49 -51 -49h-60q-51 0 -51 49zM860 1251v113q0 49 53 49h60q51 0 51 -49v-113q0 -49 -51 -49h-60q-53 0 -53 49 z" />
<glyph unicode="&#xec;" horiz-adv-x="589" d="M-123 1370l103 133l438 -299l-66 -80zM207 0v997h176v-997h-176z" />
<glyph unicode="&#xed;" horiz-adv-x="589" d="M135 1204l436 299l105 -133l-475 -246zM207 0v997h176v-997h-176z" />
<glyph unicode="&#xee;" horiz-adv-x="589" d="M-123 1206l352 260h127l355 -260l-66 -76l-340 199h-22l-342 -199zM207 0v997h176v-997h-176z" />
<glyph unicode="&#xef;" horiz-adv-x="589" d="M-23 1251v113q0 49 52 49h59q51 0 51 -49v-113q0 -49 -51 -49h-59q-52 0 -52 49zM207 0v997h176v-997h-176zM444 1251v113q0 49 54 49h59q51 0 51 -49v-113q0 -49 -51 -49h-59q-54 0 -54 49z" />
<glyph unicode="&#xf0;" horiz-adv-x="1437" d="M143 449q0 233 125 351t412 118q219 0 383 -84q-59 230 -240 350l-209 -127l-65 78l170 102q-177 73 -422 66l22 127q306 14 543 -105l217 133l64 -80l-185 -112q316 -222 316 -686q0 -82 -6 -147.5t-22 -130t-43 -113t-70 -90.5t-101.5 -69t-139.5 -42t-183 -15 q-291 0 -428.5 114.5t-137.5 361.5zM328 449q0 -178 91 -253t292 -75q71 0 126.5 10.5t95.5 29t68.5 50t46 67t27.5 86.5t13.5 102.5t3.5 121.5q0 57 -7 129q-188 55 -387 55q-205 0 -287.5 -80t-82.5 -243z" />
<glyph unicode="&#xf1;" horiz-adv-x="1447" d="M178 0v997h148l12 -159q319 184 592 184q169 0 257.5 -69.5t88.5 -204.5v-748h-176v698q0 98 -50.5 137t-166.5 39q-115 0 -229 -36.5t-300 -120.5v-717h-176zM354 1200q-12 118 46.5 179t158.5 55q68 -4 133 -30t128 -52t126 -31q75 -7 106 17.5t31 84.5h86 q12 -113 -45 -174t-159 -55q-60 3 -117.5 21t-95 37.5t-86 37.5t-91.5 21q-73 7 -104 -20t-31 -91h-86z" />
<glyph unicode="&#xf2;" horiz-adv-x="1433" d="M129 498q0 286 133 405t455 119t456 -119t134 -405q0 -287 -133.5 -406t-456.5 -119q-322 0 -455 119t-133 406zM297 1370l102 133l439 -299l-66 -80zM309 498q0 -217 88 -297t320 -80q231 0 320 80.5t89 296.5q0 111 -20.5 182t-70 115t-125 61.5t-193.5 17.5 q-232 0 -320 -79.5t-88 -296.5z" />
<glyph unicode="&#xf3;" horiz-adv-x="1433" d="M129 498q0 286 133 405t455 119t456 -119t134 -405q0 -287 -133.5 -406t-456.5 -119q-322 0 -455 119t-133 406zM309 498q0 -217 88 -297t320 -80q231 0 320 80.5t89 296.5q0 111 -20.5 182t-70 115t-125 61.5t-193.5 17.5q-232 0 -320 -79.5t-88 -296.5zM555 1204 l436 299l105 -133l-475 -246z" />
<glyph unicode="&#xf4;" horiz-adv-x="1433" d="M129 498q0 286 133 405t455 119t456 -119t134 -405q0 -287 -133.5 -406t-456.5 -119q-322 0 -455 119t-133 406zM297 1206l352 260h127l354 -260l-65 -76l-340 199h-23l-342 -199zM309 498q0 -217 88 -297t320 -80q231 0 320 80.5t89 296.5q0 111 -20.5 182t-70 115 t-125 61.5t-193.5 17.5q-232 0 -320 -79.5t-88 -296.5z" />
<glyph unicode="&#xf5;" horiz-adv-x="1433" d="M129 498q0 286 133 405t455 119t456 -119t134 -405q0 -287 -133.5 -406t-456.5 -119q-322 0 -455 119t-133 406zM305 1200q-12 118 46.5 179t158.5 55q68 -4 133 -30t128 -52t126 -31q75 -7 106 17.5t31 84.5h86q12 -113 -45.5 -174t-159.5 -55q-60 3 -117.5 21t-95 37.5 t-85.5 37.5t-91 21q-73 7 -104 -20t-31 -91h-86zM309 498q0 -217 88 -297t320 -80q231 0 320 80.5t89 296.5q0 111 -20.5 182t-70 115t-125 61.5t-193.5 17.5q-232 0 -320 -79.5t-88 -296.5z" />
<glyph unicode="&#xf6;" horiz-adv-x="1433" d="M129 498q0 286 133 405t455 119t456 -119t134 -405q0 -287 -133.5 -406t-456.5 -119q-322 0 -455 119t-133 406zM309 498q0 -217 88 -297t320 -80q231 0 320 80.5t89 296.5q0 111 -20.5 182t-70 115t-125 61.5t-193.5 17.5q-232 0 -320 -79.5t-88 -296.5zM399 1251v113 q0 49 52 49h59q51 0 51 -49v-113q0 -49 -51 -49h-59q-52 0 -52 49zM866 1251v113q0 49 54 49h59q51 0 51 -49v-113q0 -49 -51 -49h-59q-54 0 -54 49z" />
<glyph unicode="&#xf7;" horiz-adv-x="1488" d="M172 539v131h1143v-131h-1143zM649 197v98q0 37 14.5 51t51.5 14h49q38 0 54 -14.5t16 -50.5v-98q0 -36 -16.5 -51t-53.5 -15h-49q-37 0 -51.5 14.5t-14.5 51.5zM649 909v101q0 36 14.5 50.5t51.5 14.5h49q37 0 53.5 -15t16.5 -50v-101q0 -35 -16.5 -49t-53.5 -14h-49 q-37 0 -51.5 14t-14.5 49z" />
<glyph unicode="&#xf8;" horiz-adv-x="1466" d="M115 498q0 286 134 405t456 119q146 0 262 -25l94 158l84 -47l-84 -143q122 -53 176.5 -166t54.5 -301q0 -288 -132.5 -406.5t-454.5 -118.5q-117 0 -224 17l-86 -144l-86 45l74 125q-141 49 -204.5 165t-63.5 317zM297 498q0 -149 38.5 -230t129.5 -114l420 706 q-69 14 -180 14q-232 0 -320 -79.5t-88 -296.5zM563 129q55 -8 142 -8q231 0 320 80.5t89 296.5q0 133 -32 211.5t-105 117.5z" />
<glyph unicode="&#xf9;" horiz-adv-x="1458" d="M190 248v749h177v-700q-1 -94 52.5 -133t176.5 -39q107 0 215 34.5t274 112.5v725h175v-997h-140l-14 150q-298 -177 -567 -177q-172 0 -260.5 70t-88.5 205zM315 1376l103 133l438 -299l-65 -80z" />
<glyph unicode="&#xfa;" horiz-adv-x="1458" d="M190 248v749h177v-700q-1 -94 52.5 -133t176.5 -39q107 0 215 34.5t274 112.5v725h175v-997h-140l-14 150q-298 -177 -567 -177q-172 0 -260.5 70t-88.5 205zM575 1210l437 299l104 -133l-475 -246z" />
<glyph unicode="&#xfb;" horiz-adv-x="1458" d="M190 248v749h177v-700q-1 -94 52.5 -133t176.5 -39q107 0 215 34.5t274 112.5v725h175v-997h-140l-14 150q-298 -177 -567 -177q-172 0 -260.5 70t-88.5 205zM315 1214l353 261h127l354 -261l-66 -75l-340 198h-22l-342 -198z" />
<glyph unicode="&#xfc;" horiz-adv-x="1458" d="M190 248v749h177v-700q-1 -94 52.5 -133t176.5 -39q107 0 215 34.5t274 112.5v725h175v-997h-140l-14 150q-298 -177 -567 -177q-172 0 -260.5 70t-88.5 205zM418 1260v112q0 49 51 49h59q52 0 52 -49v-112q0 -50 -52 -50h-59q-51 0 -51 50zM885 1260v112q0 49 53 49h59 q52 0 52 -49v-112q0 -50 -52 -50h-59q-53 0 -53 50z" />
<glyph unicode="&#xfd;" horiz-adv-x="1370" d="M53 997h191l364 -743q8 -17 28.5 -57.5t29.5 -63.5h39q7 14 19 39.5t22 45.5l18 36l364 743h191l-533 -1052q-29 -58 -60 -105t-77.5 -96t-99.5 -83t-126.5 -57t-158.5 -26l-20 115q152 38 237.5 101t134.5 163l23 43h-39q-42 0 -65 45zM535 1204l436 299l104 -133 l-475 -246z" />
<glyph unicode="&#xfe;" horiz-adv-x="1452" d="M199 -412v1846h176v-349q0 -139 -13 -219q250 156 500 156t356.5 -124.5t106.5 -405.5q0 -193 -49.5 -307t-150 -163t-269.5 -49q-254 0 -489 101q8 -68 8 -197v-289h-176zM375 195q275 -76 432 -76q186 0 261 81.5t75 293.5q0 213 -75 295.5t-255 82.5 q-100 0 -200.5 -33.5t-237.5 -103.5v-540z" />
<glyph unicode="&#xff;" horiz-adv-x="1370" d="M53 997h191l364 -743q8 -17 28.5 -57.5t29.5 -63.5h39q7 14 19 39.5t22 45.5l18 36l364 743h191l-533 -1052q-29 -58 -60 -105t-77.5 -96t-99.5 -83t-126.5 -57t-158.5 -26l-20 115q152 38 237.5 101t134.5 163l23 43h-39q-42 0 -65 45zM379 1251v113q0 49 51 49h59 q52 0 52 -49v-113q0 -49 -52 -49h-59q-51 0 -51 49zM846 1251v113q0 49 53 49h59q52 0 52 -49v-113q0 -49 -52 -49h-59q-53 0 -53 49z" />
<glyph unicode="&#x152;" horiz-adv-x="2365" d="M156 707q0 210 36.5 348t122 225t217 123.5t330.5 36.5q139 0 231 -15t216 -53q73 43 178 43q511 0 751 -12l-6 -141h-690q-188 0 -188 -136v-305l772 -2v-145l-772 -2v-385q0 -137 188 -137h690l6 -140q-246 -12 -765 -12q-101 0 -177 45q-111 -38 -204 -54t-230 -16 q-199 0 -330.5 36.5t-217 123.5t-122 225.5t-36.5 348.5zM346 707q0 -165 25.5 -272t87.5 -175.5t158.5 -96.5t244.5 -28q176 0 328 31q-19 49 -19 98v885q0 49 19 98q-165 31 -328 31q-149 0 -244.5 -27.5t-158 -95t-88 -175t-25.5 -273.5z" />
<glyph unicode="&#x153;" horiz-adv-x="2385" d="M143 498q0 286 133.5 405t458.5 119q190 0 310.5 -38t187.5 -122q64 84 179.5 122t295.5 38q278 0 413 -80t138 -227q1 -166 -88 -229.5t-307 -63.5h-535q9 -91 37 -149.5t83.5 -91.5t129 -45.5t186.5 -12.5q236 0 443 24l18 -116q-75 -27 -217 -41.5t-268 -14.5 q-191 0 -313.5 39.5t-190.5 124.5q-65 -87 -187 -126.5t-315 -39.5q-325 0 -458.5 118.5t-133.5 406.5zM328 498q0 -217 87.5 -297t319.5 -80q219 0 310 72t100 260l-2 53v45q-9 184 -99.5 253.5t-308.5 69.5q-232 0 -319.5 -79.5t-87.5 -296.5zM1325 551h530q128 0 179 37 t47 129q-6 80 -94.5 118.5t-270.5 38.5q-211 0 -297.5 -69.5t-93.5 -251.5v-2z" />
<glyph unicode="&#x178;" horiz-adv-x="1476" d="M35 1413h205l401 -612q42 -62 88 -160h19q36 78 86 160l399 612h207l-613 -926v-487h-180v489zM414 1620v113q0 49 51 49h59q51 0 51 -49v-113q0 -49 -51 -49h-59q-51 0 -51 49zM881 1620v113q0 49 53 49h59q51 0 51 -49v-113q0 -49 -51 -49h-59q-53 0 -53 49z" />
<glyph unicode="&#x2c6;" horiz-adv-x="1062" d="M117 1200l352 260h127l354 -260l-65 -76l-340 199h-23l-342 -199z" />
<glyph unicode="&#x2dc;" horiz-adv-x="1067" d="M125 1198q-12 118 46.5 179t158.5 55q68 -4 133 -30t128 -52t126 -31q75 -7 106 17.5t31 84.5h86q12 -113 -45.5 -174t-159.5 -55q-60 3 -117.5 21t-95 37.5t-85.5 37.5t-91 21q-73 7 -104 -20t-31 -91h-86z" />
<glyph unicode="&#x2000;" horiz-adv-x="956" />
<glyph unicode="&#x2001;" horiz-adv-x="1913" />
<glyph unicode="&#x2002;" horiz-adv-x="956" />
<glyph unicode="&#x2003;" horiz-adv-x="1913" />
<glyph unicode="&#x2004;" horiz-adv-x="637" />
<glyph unicode="&#x2005;" horiz-adv-x="478" />
<glyph unicode="&#x2006;" horiz-adv-x="318" />
<glyph unicode="&#x2007;" horiz-adv-x="318" />
<glyph unicode="&#x2008;" horiz-adv-x="239" />
<glyph unicode="&#x2009;" horiz-adv-x="382" />
<glyph unicode="&#x200a;" horiz-adv-x="106" />
<glyph unicode="&#x2010;" horiz-adv-x="1175" d="M182 451v133h811v-133h-811z" />
<glyph unicode="&#x2011;" horiz-adv-x="1175" d="M182 451v133h811v-133h-811z" />
<glyph unicode="&#x2012;" horiz-adv-x="1175" d="M182 451v133h811v-133h-811z" />
<glyph unicode="&#x2013;" horiz-adv-x="1552" d="M182 451v133h1190v-133h-1190z" />
<glyph unicode="&#x2014;" horiz-adv-x="2361" d="M182 451v133h1997v-133h-1997z" />
<glyph unicode="&#x2018;" horiz-adv-x="520" d="M182 1077v123q3 158 78 295l82 -22q-20 -111 -20 -230q24 0 37 -14.5t12 -38.5l-2 -113q0 -33 -16 -47t-52 -14h-53q-36 0 -51 14t-15 47z" />
<glyph unicode="&#x2019;" horiz-adv-x="516" d="M147 1307l5 112q0 33 15.5 47.5t51.5 14.5h51q37 0 52.5 -14t15.5 -48v-123q-3 -160 -80 -292l-82 20q23 128 23 229q-23 0 -37.5 14.5t-14.5 39.5z" />
<glyph unicode="&#x201a;" horiz-adv-x="548" d="M172 57l2 119q1 36 17.5 51t52.5 15h53q36 0 51.5 -15t16.5 -51l-3 -131q-3 -176 -77 -315l-84 24q22 132 22 246q-23 0 -37 15.5t-14 41.5z" />
<glyph unicode="&#x201c;" horiz-adv-x="892" d="M182 1077v123q3 163 78 295l84 -22q-22 -107 -22 -230q25 0 38.5 -14t12.5 -39l-2 -113q0 -32 -16.5 -45.5t-53.5 -13.5h-53q-37 0 -51.5 13.5t-14.5 45.5zM530 1077l2 123q3 163 78 295l84 -22q-22 -107 -22 -230q23 0 37 -14t14 -39l-2 -113q0 -32 -17 -45.5t-53 -13.5 h-53q-36 0 -51 13t-17 46z" />
<glyph unicode="&#x201d;" horiz-adv-x="888" d="M147 1307l5 112q0 33 15.5 47.5t51.5 14.5h51q37 0 52.5 -14t15.5 -48v-123q-3 -160 -80 -292l-82 20q23 128 23 229q-23 0 -37.5 14.5t-14.5 39.5zM520 1307l4 112q0 33 16 47.5t52 14.5h53q35 0 50.5 -14t15.5 -48v-123q-3 -160 -80 -292l-82 20q22 107 22 229 q-23 0 -37 14.5t-14 39.5z" />
<glyph unicode="&#x201e;" horiz-adv-x="919" d="M252 57l2 119q0 36 16 51t52 15h53q35 0 50 -15t15 -51v-131q-3 -168 -78 -315l-83 24q22 115 22 246q-23 0 -36.5 15.5t-12.5 41.5zM469 57l2 119q0 36 16 51t52 15h53q36 0 50.5 -15t14.5 -51v-131q-3 -170 -77 -315l-84 24q22 116 22 246q-23 0 -36.5 15.5t-12.5 41.5 z" />
<glyph unicode="&#x2022;" horiz-adv-x="901" d="M227 539v24q0 96 45.5 133t165.5 37h31q114 0 158.5 -37.5t44.5 -132.5v-24q0 -100 -44.5 -138.5t-158.5 -38.5h-31q-120 0 -165.5 38.5t-45.5 138.5z" />
<glyph unicode="&#x2026;" horiz-adv-x="950" d="M176 66v110q0 36 15.5 51t52.5 15h59q37 0 52.5 -15t15.5 -51v-110q0 -36 -15.5 -51t-52.5 -15h-59q-37 0 -52.5 15t-15.5 51zM377 66v110q0 37 15 51.5t52 14.5h60q37 0 53 -15t16 -51v-110q0 -36 -16 -51t-53 -15h-60q-37 0 -52 14.5t-15 51.5zM578 66v110 q0 37 15 51.5t52 14.5h60q37 0 53 -15t16 -51v-110q0 -36 -16 -51t-53 -15h-60q-37 0 -52 14.5t-15 51.5z" />
<glyph unicode="&#x202f;" horiz-adv-x="382" />
<glyph unicode="&#x2039;" horiz-adv-x="688" d="M76 494v41l426 405l92 -61l-352 -365l354 -373l-92 -61z" />
<glyph unicode="&#x203a;" horiz-adv-x="692" d="M92 141l354 373l-352 365l92 61l428 -405v-41l-430 -414z" />
<glyph unicode="&#x205f;" horiz-adv-x="478" />
<glyph unicode="&#x20ac;" horiz-adv-x="1669" d="M137 535v108h230l-2 64q0 65 2 96h-230v108h240q39 269 204 398t496 129q241 0 434 -41l-22 -140q-219 26 -422 21q-224 -7 -342 -96t-154 -271h699l-21 -108h-692q-4 -62 -4 -98l2 -62h600l-22 -108h-568q30 -199 149 -296.5t353 -101.5q267 -3 449 25l24 -139 q-207 -48 -463 -48q-340 0 -505.5 137.5t-198.5 422.5h-236z" />
<glyph unicode="&#x2122;" horiz-adv-x="2498" d="M168 1321v104h846v-104h-357v-674h-133v674h-356zM1153 647l43 729q3 49 51 49h144q41 0 53 -41l227 -450q10 -19 24 -57t21 -52h33q4 9 20.5 49t26.5 62l223 448q12 41 54 41h145q25 0 39 -13t14 -36l41 -729h-121l-43 682h-32l-275 -549q-12 -41 -55 -41h-107 q-44 0 -57 41l-272 549h-33l-41 -682h-123z" />
<glyph unicode="&#x25fc;" horiz-adv-x="993" d="M0 0v993h993v-993h-993z" />
<glyph unicode="&#xfb03;" horiz-adv-x="2334" d="M72 860v127l233 10v154q0 291 361 291q186 0 321 -15l-12 -129h-248q-139 0 -192.5 -35t-53.5 -133v-133h676v179q0 145 85 218.5t278 73.5q176 0 288 -14l-12 -129h-215q-136 0 -192 -38.5t-56 -129.5v-160h813v-997h-174v860h-639v-860h-176v860h-676v-860h-176v860 h-233zM1962 1251v117q0 53 55 53h82q58 0 58 -53v-117q0 -53 -58 -53h-82q-55 0 -55 53z" />
<glyph unicode="&#xfb04;" horiz-adv-x="2570" d="M72 860v127l231 10v154q0 291 363 291q186 0 321 -15l-14 -129h-246q-139 0 -193.5 -35t-54.5 -133v-133h678v158q0 157 84 235t279 78q529 0 688 -24v-1190q0 -135 184 -135h135l21 -111q-31 -12 -97 -19t-118 -7q-139 0 -220 62t-81 171v1112h-453q-135 1 -190.5 -41.5 t-55.5 -148.5v-140h416v-137h-416v-860h-176v860h-678v-860h-176v860h-231z" />
</font>
</defs>
</svg>
